<?xml version="1.0" encoding="utf-8"?>
<!-- Generator: Adobe Illustrator 18.0.0, SVG Export Plug-In . SVG Version: 6.00 Build 0)  -->
<!DOCTYPE svg PUBLIC "-//W3C//DTD SVG 1.1//EN" "http://www.w3.org/Graphics/SVG/1.1/DTD/svg11.dtd">
<svg version="1.1" id="Layer_1" xmlns="http://www.w3.org/2000/svg" xmlns:xlink="http://www.w3.org/1999/xlink" x="0px" y="0px"
	 viewBox="100 100 300 300" enable-background="new 100 100 300 300" xml:space="preserve">
<g>
	<circle fill="#0D74BA" cx="250.4" cy="249.5" r="149.1"/>
	<g opacity="0.5">
		<defs>
			<path id="SVGID_1_" opacity="0.5" d="M189.7,305.4l21.3,21.3l-2.6,2.6L309.1,430c0,0,39.8-17.2,79-61.2c0,0,16.9-50.1,16.9-62.4
				l4.4-17.9l-97.9-97.9l-3.8-1.3l-7.4,6l-26.7-26.7l-74.3,54.4L189.7,305.4z"/>
		</defs>
		<clipPath id="SVGID_2_">
			<use xlink:href="#SVGID_1_"  overflow="visible"/>
		</clipPath>
		<circle clip-path="url(#SVGID_2_)" fill="#185A8D" cx="250.1" cy="248.4" r="149.5"/>
	</g>
	<g>
		<path fill="#FFFFFF" d="M193.1,310.1l11.4-7c2.9,2.4,7,4.4,10.6,6.1l33.6-31.8c-0.5,0-1.1,0.2-1.6,0.2c-14.8,0-26.7-12-26.7-26.7
			c0-14.8,12-26.7,26.7-26.7c14.8,0,26.7,12,26.7,26.7c0,1.1-0.2,2.1-0.3,3.1l44.2-41.7l-10.2-17.6c-0.6-1.1-1.7-1.9-2.9-2.2
			c-1.2-0.3-2.5-0.1-3.6,0.5l-11.5,6.9c-5.3-4.5-17.5-8.1-17.5-10.6v-13.8c0-2.6-2.6-3.5-5.2-3.5h-38c-2.6,0-6.8,0.9-6.8,3.5v13.8
			c0,2.3-11.5,5.7-17.5,10.6l-11.7-7c-2.3-1.3-4.9-0.5-6.2,1.7l-19,32.9c-0.6,1.1-0.7,2.4-0.4,3.6c0.3,1.2,1.2,2.3,2.2,2.9l12,7
			c-0.6,3.5-0.8,7-0.8,10.5c0,3.5,0.3,7,0.8,10.5l-12,7c-2.3,1.3-3.1,4.2-1.7,6.5l19,32.9C188,310.6,190.8,311.4,193.1,310.1z"/>
		<path fill="#4DB867" d="M205.3,332.3h103c10.4,0,18.9-8.5,18.9-18.9v-96.3L205.3,332.3z M262,317.2V297h20.1L262,317.2z
			 M292,287.2V267h20.2L292,287.2z M287,327.3V292h35.2L287,327.3z"/>
	</g>
</g>
</svg>
