<?xml version="1.0" encoding="utf-8"?>
<!-- Generator: Adobe Illustrator 18.0.0, SVG Export Plug-In . SVG Version: 6.00 Build 0)  -->
<!DOCTYPE svg PUBLIC "-//W3C//DTD SVG 1.1//EN" "http://www.w3.org/Graphics/SVG/1.1/DTD/svg11.dtd">
<svg version="1.1" id="Layer_1" xmlns="http://www.w3.org/2000/svg" xmlns:xlink="http://www.w3.org/1999/xlink" x="0px" y="0px"
	 viewBox="100 100 300 300" enable-background="new 100 100 300 300" xml:space="preserve">
<g>
	<circle fill="#0D74BA" cx="249.6" cy="250.1" r="149.1"/>
	<g opacity="0.5">
		<defs>
			<path id="SVGID_1_" opacity="0.5" d="M171.1,308.1l91.4,91.4c0,0,60.6,25.3,92.6-0.1c0,0,62.5-44.8,70.7-114.1
				c0,0-27.1-29.5-27.2-34.4c-0.1-4.9-67.2-75.4-67.2-75.4L176,180L171.1,308.1z"/>
		</defs>
		<clipPath id="SVGID_2_">
			<use xlink:href="#SVGID_1_"  overflow="visible"/>
		</clipPath>
		<g clip-path="url(#SVGID_2_)">
			<g>
				<circle fill="#185A8D" cx="250" cy="250.9" r="148.5"/>
			</g>
		</g>
	</g>
	<g>
		<path fill="#FFFFFF" d="M210.1,289H184v-94h127v-0.1l18.3-17.3c-1.9-2.3-5.1-3.5-8.3-3.5H173.2c-5.8,0-10.2,4.3-10.2,10.2v116.1
			c0,4.3,2.4,8.1,6.1,9.8c1.3,0.6,2.7,0.9,4.1,0.9h14.5L210.1,289z"/>
		<path fill="#FFFFFF" d="M286.7,335.5L263,324.9V322h-32v2.9l-23.6,10.6c-1.9,0-3,1.3-3,3.3c0,1.9,2.1,3.3,4,3.3h77.4
			c1.9,0,3.5-1.3,3.5-3.3C289.4,336.8,288.7,335.5,286.7,335.5z"/>
		<path fill="#4DB867" d="M204.9,310.9h106.8c11,0,19.9-8.9,19.9-19.9V189.4L204.9,310.9z M263,295v-21h22.8L263,295z M294,263.3
			V242h23.5L294,263.3z M289,305.6V269h39.1L289,305.6z"/>
	</g>
</g>
</svg>
