<?xml version="1.0" encoding="utf-8"?>
<!-- Generator: Adobe Illustrator 18.0.0, SVG Export Plug-In . SVG Version: 6.00 Build 0)  -->
<!DOCTYPE svg PUBLIC "-//W3C//DTD SVG 1.1//EN" "http://www.w3.org/Graphics/SVG/1.1/DTD/svg11.dtd">
<svg version="1.1" id="Layer_1" xmlns="http://www.w3.org/2000/svg" xmlns:xlink="http://www.w3.org/1999/xlink" x="0px" y="0px"
	 viewBox="100 100 300 300" enable-background="new 100 100 300 300" xml:space="preserve">
<g>
	<circle fill="#0D74BA" cx="250.2" cy="248.5" r="149.1"/>
	<g opacity="0.5">
		<defs>
			<path id="SVGID_1_" opacity="0.5" d="M167.3,327.9l68.7,68.7c0,0,62.2,19.8,111-10c0,0,76.1-52.2,64.6-146.9l-79.9-79.9
				l-35.3,12.4l-59.9,59.9l-9.6-6.1h-51.7L167.3,327.9z"/>
		</defs>
		<clipPath id="SVGID_2_">
			<use xlink:href="#SVGID_1_"  overflow="visible"/>
		</clipPath>
		<circle clip-path="url(#SVGID_2_)" fill="#185A8D" cx="250.7" cy="248" r="148.8"/>
	</g>
	<g>
		<path fill="#FFFFFF" d="M333.7,164.3c-8.7-8.7-22.8-8.7-31.5,0l-7.9,7.9l31.5,31.5l7.9-7.9C342.4,187.2,342.4,173,333.7,164.3z"/>
		<polygon fill="#FFFFFF" points="215.6,251 207.8,290.3 247.1,282.5 318,211.6 286.5,180.1 		"/>
		<path fill="#47B667" d="M284,309h-99v-60h17.6l12.5-12.9l9.8-10.1h-51.7c-6.1,0-11.2,3.7-11.2,9.8v83.5c0,6.1,5,12.7,11.2,12.7
			h63.1H266h29.7c6.1,0,11.3-6.5,11.3-12.7v-80.8l-23,22.3V309z"/>
	</g>
</g>
</svg>
