<?xml version="1.0" encoding="utf-8"?>
<!-- Generator: Adobe Illustrator 18.0.0, SVG Export Plug-In . SVG Version: 6.00 Build 0)  -->
<!DOCTYPE svg PUBLIC "-//W3C//DTD SVG 1.1//EN" "http://www.w3.org/Graphics/SVG/1.1/DTD/svg11.dtd">
<svg version="1.1" id="Layer_1" xmlns="http://www.w3.org/2000/svg" xmlns:xlink="http://www.w3.org/1999/xlink" x="0px" y="0px"
	 viewBox="0 0 288 288" enable-background="new 0 0 288 288" xml:space="preserve">
<g>
	<circle fill="#0D74BA" cx="144" cy="143.4" r="144"/>
	<g opacity="0.5">
		<defs>
			<circle id="SVGID_1_" opacity="0.5" cx="144" cy="143" r="144"/>
		</defs>
		<clipPath id="SVGID_2_">
			<use xlink:href="#SVGID_1_"  overflow="visible"/>
		</clipPath>
		<polygon clip-path="url(#SVGID_2_)" fill="#185A8D" points="32.1,174.7 57.9,200.5 54.4,218.3 129.7,293.7 308,293.7 308,213.5 
			308,172.9 308,163.2 206.2,61.4 170.1,56.7 163.4,65.5 122.1,65.5 113,56.3 82.5,78 95,114.6 89.1,130.6 		"/>
	</g>
	<g>
		<path fill="#FFFFFF" d="M54.4,218.3c0.5-14.2,1.9-28.1,12.9-38.3c4.1-3.9,9.5-6.7,14.8-9c9.5-4,19.3-7.1,28.9-10.6
			c1.4-0.5,2.8-1.1,4.2-1.6c5.3-1.7,7.5-5.8,7.9-11c0.1-0.8-0.3-1.7-0.7-2.4c-10.3-14.9-15.2-31.6-16-49.5c-0.3-5.3,0.2-10.8,1.3-16
			c2.4-11.5,9.7-18.7,21.1-21.3c8.2-1.9,16.4-1.9,24.6,0c12.4,2.9,19.9,11.2,21.8,24.2c2.5,17.3-1.2,33.7-8,49.6
			c-1.5,3.5-3.5,6.9-5.5,10.2c-2.8,4.5-1.2,12.2,3.5,14.7c3.1,1.7,6.4,2.8,9.7,4.1c10,3.9,20.1,7.5,30,11.6
			c12.9,5.3,20.1,15.3,22.4,28.9c0.9,5.3,1.3,10.8,2,16.4C170.6,218.3,112.7,218.3,54.4,218.3z"/>
		<path fill="#47B667" d="M250.6,174.7c-9.3,0-17.9,0-26.5,0c-0.6,0-1.3-0.1-1.7-0.5c-10.3-8.6-22.6-13.1-34.9-17.4
			c-5.4-1.9-10.8-3.7-16.1-5.7c-3-1.1-3.2-2.5-1.6-5.3c9.6-16.4,14.5-34.1,14.7-53c0.1-11.5-2.2-22.4-10.2-31.4
			c-1.3-1.4-2.6-2.9-4.2-4.6c2.6-0.7,5.2-1.9,7.8-2c5.2-0.2,10.6-0.5,15.7,0.4c9.9,1.8,15.8,8.9,16.9,19.3
			c1.5,15.7-2.3,30.2-10.3,43.6c-2.2,3.6-1,9.3,2.9,11.1c3.5,1.7,7.3,2.9,11,4.3c6.3,2.5,12.6,4.8,18.9,7.4
			c9.9,4.2,15,12.1,16.6,22.5C250,167,250.2,170.7,250.6,174.7z"/>
		<path fill="#47B667" d="M32.1,174.7c0.9-5.7,1.4-11,2.7-16.1c2.1-8.3,7.3-14.4,15.3-17.7c7.7-3.2,15.6-6,23.4-9
			c1.8-0.7,3.6-1.4,5.4-2.1c2.9-1.1,4.3-3.3,5-6.2c0.4-1.7,0-2.9-0.9-4.4c-8.9-13.9-13-29-10.9-45.4c1.5-11.6,7.5-17.4,19.1-19.2
			c6-0.9,12.1-0.8,18,1.2c1,0.3,1.9,0.8,3.2,1.3C105,62.8,100.9,70.3,99,79c-2.7,12.1-1.4,24.2,1.2,36.1
			c2.6,11.5,6.7,22.4,13.1,32.3c1.2,1.8,0.6,2.8-1.1,3.4c-6.2,2.2-12.4,4.3-18.7,6.5c-9.9,3.4-19.6,7.3-28.4,13.2
			c-0.4,0.2-0.8,0.4-1.1,0.7c-3,3.7-7.1,3.7-11.4,3.6C46.1,174.5,39.5,174.7,32.1,174.7z"/>
	</g>
</g>
</svg>
