<?xml version="1.0" encoding="utf-8"?>
<!-- Generator: Adobe Illustrator 18.0.0, SVG Export Plug-In . SVG Version: 6.00 Build 0)  -->
<!DOCTYPE svg PUBLIC "-//W3C//DTD SVG 1.1//EN" "http://www.w3.org/Graphics/SVG/1.1/DTD/svg11.dtd">
<svg version="1.1" id="Layer_1" xmlns="http://www.w3.org/2000/svg" xmlns:xlink="http://www.w3.org/1999/xlink" x="0px" y="0px"
	 viewBox="0 0 288 288" enable-background="new 0 0 288 288" xml:space="preserve">
<g id="Layer_2">
</g>
<path fill="#48B768" d="M55.5,94.2l-7.2-3.6l7.2-3.6v1l-5.2,2.6l5.2,2.6V94.2z"/>
<path fill="#48B768" d="M58,94.2v-8.9h2.3c0.9,0,1.5,0.2,2,0.5c0.5,0.4,0.7,0.9,0.7,1.4c0,1.1-0.6,1.8-1.8,2.3
	c1.4,0.5,2.2,1.2,2.2,2.4c0,0.8-0.3,1.2-0.8,1.6c-0.5,0.4-1.2,0.6-2.1,0.6L58,94.2L58,94.2z M59.2,89.1h0.4c0.7,0,1.2-0.2,1.5-0.5
	c0.4-0.3,0.6-0.7,0.6-1.2c0-0.9-0.7-1.3-2-1.3h-0.5C59.2,86,59.2,89.1,59.2,89.1z M59.2,93.2h0.3c1,0,1.5-0.1,1.8-0.2
	c0.5-0.2,0.8-0.7,0.8-1.2c0-0.6-0.2-1-0.7-1.3c-0.5-0.4-1.1-0.6-1.8-0.6h-0.4C59.2,89.9,59.2,93.2,59.2,93.2z"/>
<path fill="#48B768" d="M68.7,94.4c-1.2,0-2.2-0.4-3-1.2c-0.8-0.9-1.2-2-1.2-3.5c0-1.4,0.4-2.6,1.2-3.5c0.8-0.9,1.8-1.2,3.1-1.2
	c1.2,0,2.3,0.4,3.1,1.2c0.8,0.9,1.2,2,1.2,3.5c0,1.4-0.4,2.6-1.2,3.5C71,94,70,94.4,68.7,94.4z M68.7,93.4c1,0,1.6-0.3,2.1-1
	c0.5-0.7,0.8-1.6,0.8-2.8s-0.3-2.1-0.8-2.8c-0.5-0.7-1.2-1-2.1-1c-0.9,0-1.6,0.3-2.1,1c-0.5,0.7-0.8,1.5-0.8,2.8
	c0,1.2,0.3,2.1,0.8,2.8C67.2,93.1,67.9,93.4,68.7,93.4z"/>
<path fill="#48B768" d="M74.8,94.2v-8.9h3c0.9,0,1.6,0.1,2.1,0.3c0.6,0.2,1.1,0.6,1.4,1c0.7,0.8,1,1.7,1,3c0,1.5-0.4,2.7-1.2,3.5
	c-0.8,0.9-1.9,1.2-3.4,1.2H74.8z M76,93.2h1.6c1.2,0,2-0.3,2.5-1c0.5-0.7,0.8-1.5,0.8-2.7c0-1.1-0.3-1.9-0.8-2.5
	c-0.3-0.4-0.7-0.6-1.2-0.8c-0.5-0.1-1.1-0.2-1.9-0.2H76V93.2z"/>
<path fill="#48B768" d="M86,94.2v-3.7l-3-5.2h1.4l2.3,4l2.5-4h1.2l-3.2,5.2v3.7H86z"/>
<path fill="#48B768" d="M92,93.1l5.2-2.6L92,87.9v-1l7.2,3.6L92,94.1V93.1z"/>
<path fill="#FFD162" d="M55.5,109.1l-7.2-3.6l7.2-3.6v1l-5.2,2.6l5.2,2.6V109.1z"/>
<path fill="#FFD162" d="M58,109.1v-9.6h1.2v4.2c0.7-1,1.4-1.3,2.3-1.3c0.6,0,1.1,0.2,1.3,0.6c0.4,0.4,0.5,0.9,0.5,1.4v4.7h-1.2v-4.3
	c0-0.5-0.1-0.9-0.2-1.1c-0.1-0.2-0.4-0.3-0.7-0.3c-0.8,0-1.4,0.5-2.1,1.4v4.2H58z"/>
<path fill="#FFD162" d="M66.3,109.1v-0.9h1.8v-7.1l-1.8,0.5v-1l3-0.8v8.3h1.8v0.9L66.3,109.1L66.3,109.1z"/>
<path fill="#FFD162" d="M73.7,108l5.2-2.6l-5.2-2.6v-1l7.2,3.6l-7.2,3.6V108z"/>
<path fill="#FFD162" d="M157.8,109.1l-7.2-3.6l7.2-3.6v1l-5.2,2.6l5.2,2.6V109.1z"/>
<path fill="#FFD162" d="M160.4,110.8l3.3-10.8h1l-3.3,10.8H160.4z"/>
<path fill="#FFD162" d="M166.9,109.1v-9.6h1.2v4.2c0.7-1,1.4-1.3,2.3-1.3c0.6,0,1.1,0.2,1.3,0.6c0.4,0.4,0.5,0.9,0.5,1.4v4.7h-1.2
	v-4.3c0-0.5-0.1-0.9-0.2-1.1c-0.1-0.2-0.4-0.3-0.7-0.3c-0.8,0-1.4,0.5-2.1,1.4v4.2H166.9z"/>
<path fill="#FFD162" d="M175.3,109.1v-0.9h1.8v-7.1l-1.8,0.5v-1l3-0.8v8.3h1.8v0.9L175.3,109.1L175.3,109.1z"/>
<path fill="#FFD162" d="M182.6,108l5.2-2.6l-5.2-2.6v-1l7.2,3.6l-7.2,3.6V108z"/>
<path fill="#48B768" d="M55.5,123.9l-7.2-3.6l7.2-3.6v1l-5.2,2.6l5.2,2.6V123.9z"/>
<path fill="#48B768" d="M58,125.7l3.3-10.8h1l-3.3,10.8H58z"/>
<path fill="#48B768" d="M64.5,123.9V115h2.3c0.9,0,1.5,0.2,2,0.5c0.5,0.4,0.7,0.9,0.7,1.4c0,1.1-0.6,1.8-1.8,2.3
	c1.4,0.5,2.2,1.2,2.2,2.4c0,0.8-0.3,1.2-0.8,1.6c-0.5,0.4-1.2,0.6-2.1,0.6L64.5,123.9L64.5,123.9z M65.8,118.8h0.4
	c0.7,0,1.2-0.2,1.5-0.5c0.4-0.3,0.6-0.7,0.6-1.2c0-0.9-0.7-1.3-2-1.3h-0.5V118.8z M65.8,123H66c1,0,1.5-0.1,1.8-0.2
	c0.5-0.2,0.8-0.7,0.8-1.2c0-0.6-0.2-1-0.7-1.3c-0.5-0.4-1.1-0.6-1.8-0.6h-0.4C65.8,119.6,65.8,123,65.8,123z"/>
<path fill="#48B768" d="M75.3,124.1c-1.2,0-2.2-0.4-3-1.2s-1.2-2-1.2-3.5c0-1.4,0.4-2.6,1.2-3.5c0.8-0.9,1.8-1.2,3.1-1.2
	s2.3,0.4,3.1,1.2c0.8,0.9,1.2,2,1.2,3.5c0,1.4-0.4,2.6-1.2,3.5C77.6,123.7,76.5,124.1,75.3,124.1z M75.3,123.2c1,0,1.6-0.3,2.1-1
	c0.5-0.7,0.8-1.6,0.8-2.8c0-1.2-0.3-2.1-0.8-2.8c-0.5-0.7-1.2-1-2.1-1c-0.9,0-1.6,0.3-2.1,1c-0.5,0.7-0.8,1.5-0.8,2.8
	c0,1.2,0.3,2.1,0.8,2.8C73.6,122.9,74.4,123.2,75.3,123.2z"/>
<path fill="#48B768" d="M81.2,123.9V115h3c0.9,0,1.6,0.1,2.1,0.3c0.6,0.2,1.1,0.6,1.4,1c0.7,0.8,1,1.7,1,3c0,1.5-0.4,2.7-1.2,3.5
	c-0.8,0.9-1.9,1.2-3.4,1.2H81.2z M82.6,123h1.6c1.2,0,2-0.3,2.5-1c0.5-0.7,0.8-1.5,0.8-2.7c0-1.1-0.3-1.9-0.8-2.5
	c-0.3-0.4-0.7-0.6-1.2-0.8c-0.5-0.1-1.1-0.2-1.9-0.2h-1.1V123z"/>
<path fill="#48B768" d="M92.4,123.9v-3.7l-3-5.2h1.4l2.3,4l2.5-4h1.2l-3.2,5.2v3.7H92.4z"/>
<path fill="#48B768" d="M98.5,122.9l5.2-2.6l-5.2-2.6v-1l7.2,3.6l-7.2,3.6V122.9z"/>
<g>
	<path fill="#FFFFFF" d="M91.5,108.5c-0.4,0.2-1.2,0.4-2.1,0.4c-2.3,0-4-1.4-4-4.1c0-2.5,1.7-4.2,4.2-4.2c1,0,1.6,0.2,1.9,0.4
		l-0.3,0.9c-0.4-0.2-1-0.3-1.6-0.3c-1.9,0-3.2,1.2-3.2,3.3c0,2,1.1,3.3,3.1,3.3c0.6,0,1.3-0.1,1.7-0.3L91.5,108.5z"/>
	<path fill="#FFFFFF" d="M97.5,107.2c0,0.6,0,1.1,0,1.6h-0.9l-0.1-0.9h0c-0.3,0.5-0.9,1.1-1.9,1.1c-0.9,0-2-0.5-2-2.5V103h1.1v3.2
		c0,1.1,0.3,1.8,1.3,1.8c0.7,0,1.2-0.5,1.4-1c0.1-0.2,0.1-0.3,0.1-0.5V103h1.1V107.2z"/>
	<path fill="#FFFFFF" d="M99.1,107.7c0.3,0.2,0.9,0.4,1.4,0.4c0.8,0,1.1-0.4,1.1-0.9c0-0.5-0.3-0.8-1.1-1.1c-1-0.4-1.5-0.9-1.5-1.6
		c0-0.9,0.8-1.7,2-1.7c0.6,0,1.1,0.2,1.4,0.4l-0.3,0.8c-0.2-0.1-0.6-0.3-1.2-0.3c-0.6,0-1,0.4-1,0.8c0,0.5,0.3,0.7,1.1,1
		c1,0.4,1.5,0.9,1.5,1.8c0,1-0.8,1.7-2.2,1.7c-0.6,0-1.2-0.2-1.6-0.4L99.1,107.7z"/>
	<path fill="#FFFFFF" d="M105.3,101.3v1.7h1.5v0.8h-1.5v3.1c0,0.7,0.2,1.1,0.8,1.1c0.3,0,0.5,0,0.6-0.1l0,0.8
		c-0.2,0.1-0.5,0.1-0.9,0.1c-0.5,0-0.9-0.2-1.1-0.4c-0.3-0.3-0.4-0.8-0.4-1.5v-3.2h-0.9V103h0.9v-1.4L105.3,101.3z"/>
	<path fill="#FFFFFF" d="M113.2,105.8c0,2.1-1.5,3.1-2.9,3.1c-1.6,0-2.8-1.2-2.8-3c0-1.9,1.3-3.1,2.9-3.1
		C112,102.8,113.2,104,113.2,105.8z M108.6,105.9c0,1.3,0.7,2.2,1.8,2.2c1,0,1.8-0.9,1.8-2.3c0-1-0.5-2.2-1.7-2.2
		C109.1,103.6,108.6,104.8,108.6,105.9z"/>
	<path fill="#FFFFFF" d="M114.5,104.5c0-0.6,0-1.1,0-1.6h0.9l0,0.9h0c0.3-0.6,0.9-1.1,1.8-1.1c0.8,0,1.4,0.5,1.6,1.2h0
		c0.2-0.3,0.4-0.6,0.6-0.8c0.3-0.3,0.7-0.4,1.3-0.4c0.8,0,1.9,0.5,1.9,2.5v3.4h-1v-3.3c0-1.1-0.4-1.8-1.3-1.8c-0.6,0-1.1,0.4-1.2,1
		c0,0.1-0.1,0.3-0.1,0.5v3.6h-1v-3.5c0-0.9-0.4-1.6-1.2-1.6c-0.7,0-1.1,0.5-1.3,1.1c-0.1,0.2-0.1,0.3-0.1,0.5v3.5h-1V104.5z"/>
	<path fill="#FFFFFF" d="M128.4,106.2l-0.8,2.5h-1.1l2.7-8.1h1.3l2.8,8.1h-1.1l-0.9-2.5H128.4z M131,105.4l-0.8-2.3
		c-0.2-0.5-0.3-1-0.4-1.5h0c-0.1,0.5-0.3,1-0.4,1.5l-0.8,2.3H131z"/>
	<path fill="#FFFFFF" d="M134.4,104.8c0-0.7,0-1.3,0-1.9h0.9l0,1h0c0.4-0.7,1.1-1.1,2.1-1.1c1.4,0,2.5,1.2,2.5,3
		c0,2.1-1.3,3.1-2.6,3.1c-0.8,0-1.4-0.3-1.8-0.9h0v3.2h-1V104.8z M135.4,106.4c0,0.2,0,0.3,0,0.4c0.2,0.7,0.8,1.2,1.6,1.2
		c1.1,0,1.8-0.9,1.8-2.2c0-1.2-0.6-2.2-1.7-2.2c-0.7,0-1.4,0.5-1.6,1.3c0,0.1-0.1,0.3-0.1,0.4V106.4z"/>
	<path fill="#FFFFFF" d="M141.2,104.8c0-0.7,0-1.3,0-1.9h0.9l0,1h0c0.4-0.7,1.1-1.1,2.1-1.1c1.4,0,2.5,1.2,2.5,3
		c0,2.1-1.3,3.1-2.6,3.1c-0.8,0-1.4-0.3-1.8-0.9h0v3.2h-1V104.8z M142.2,106.4c0,0.2,0,0.3,0,0.4c0.2,0.7,0.8,1.2,1.6,1.2
		c1.1,0,1.8-0.9,1.8-2.2c0-1.2-0.6-2.2-1.7-2.2c-0.7,0-1.4,0.5-1.6,1.3c0,0.1-0.1,0.3-0.1,0.4V106.4z"/>
</g>
</svg>
