<?xml version="1.0" encoding="utf-8"?>
<!-- Generator: Adobe Illustrator 18.0.0, SVG Export Plug-In . SVG Version: 6.00 Build 0)  -->
<!DOCTYPE svg PUBLIC "-//W3C//DTD SVG 1.1//EN" "http://www.w3.org/Graphics/SVG/1.1/DTD/svg11.dtd">
<svg version="1.1" id="Layer_1" xmlns="http://www.w3.org/2000/svg" xmlns:xlink="http://www.w3.org/1999/xlink" x="0px" y="0px"
	 viewBox="0 0 288 288" enable-background="new 0 0 288 288" xml:space="preserve">
<g>
	
		<rect x="130.6" y="81" fill="#8CC97F" stroke="#FFFFFF" stroke-width="0.7907" stroke-miterlimit="10" width="141.5" height="106.9"/>
	<circle opacity="0.3" fill="#FFFFFF" cx="161.6" cy="109.6" r="15.1"/>
	<g>
		<polygon opacity="0.5" fill="#47B667" points="130.6,187.4 188.6,129.5 246.3,187.2 		"/>
		<polygon fill="#47B667" points="188.6,129.5 188.6,187.5 246.3,187.5 		"/>
	</g>
	<g>
		<polygon opacity="0.5" fill="#47B667" points="196.3,187.5 234.3,149.5 272.1,187.3 		"/>
		<polygon fill="#47B667" points="234.3,149.5 234.3,187.5 272.1,187.5 		"/>
	</g>
	<rect x="270.5" y="79.4" fill="#FFFFFF" width="3.4" height="3.4"/>
	<rect x="129.2" y="79.4" fill="#FFFFFF" width="3.4" height="3.4"/>
	<rect x="199" y="79.4" fill="#FFFFFF" width="3.4" height="3.4"/>
	<rect x="270.5" y="186.3" fill="#FFFFFF" width="3.4" height="3.4"/>
	<rect x="129.2" y="186.3" fill="#FFFFFF" width="3.4" height="3.4"/>
	<rect x="198.8" y="186.3" fill="#FFFFFF" width="3.4" height="3.4"/>
	<rect x="270.5" y="130.3" fill="#FFFFFF" width="3.4" height="3.4"/>
	<rect x="129.2" y="130.3" fill="#FFFFFF" width="3.4" height="3.4"/>
</g>
</svg>
