<?xml version="1.0" encoding="utf-8"?>
<!-- Generator: Adobe Illustrator 18.0.0, SVG Export Plug-In . SVG Version: 6.00 Build 0)  -->
<!DOCTYPE svg PUBLIC "-//W3C//DTD SVG 1.1//EN" "http://www.w3.org/Graphics/SVG/1.1/DTD/svg11.dtd">
<svg version="1.1" id="Layer_1" xmlns="http://www.w3.org/2000/svg" xmlns:xlink="http://www.w3.org/1999/xlink" x="0px" y="0px"
	 viewBox="0 0 288 288" enable-background="new 0 0 288 288" xml:space="preserve">
<rect x="0.1" y="31.8" fill="#FFFFFF" width="286.9" height="172.2"/>
<rect x="0" y="64.9" fill="#D7D7D8" width="286.8" height="139.3"/>
<rect x="0.1" y="0" fill="#D7D7D8" width="286.9" height="31.8"/>
<circle fill="#AAACB2" cx="255.2" cy="8" r="4"/>
<circle fill="#8CC97F" cx="267.1" cy="8" r="4"/>
<circle fill="#47B667" cx="279.1" cy="8" r="4"/>
<rect x="4.1" y="15.9" fill="#AAACB2" width="23.9" height="11.9"/>
<rect x="32" y="15.9" fill="#EFEDED" width="235.2" height="11.9"/>
<rect x="271.1" y="15.9" fill="#AAACB2" width="11.9" height="11.9"/>
<g>
	<path fill="#D7D7D8" d="M15.8,45.4H23l0-2.6h2.6L23,45.4h2.6v-9.8L15.8,45.4z M20.5,45v-1.9l1.8,0L20.5,45z M23.4,42.1v-1.9l1.8,0
		L23.4,42.1z"/>
</g>
<polygon fill="#D7D7D8" points="261.6,48.9 261.6,60.5 273.2,54.7 "/>
<g>
	<path fill="#D7D7D8" d="M251.6,60.8c-3.5,0-6.9,0-10.4,0c-0.4-0.4-0.7-0.7-1.1-1.1c0-3.5,0-6.9,0-10.4c0.4-0.4,0.7-0.7,1.1-1.1
		c3,0,5.9,0,8.9,0c0.9,0.9,1.7,1.7,2.6,2.6c0,3,0,5.9,0,8.9C252.4,60.1,252,60.5,251.6,60.8z M246.4,60.4c1.4,0,2.7,0,4.1,0
		c0.8,0,0.8-0.1,0.8-0.8c0-1.4,0-2.8,0-4.2c0-0.5-0.2-0.8-0.7-0.8c-2.7,0-5.5,0-8.2,0c-0.6,0-0.8,0.2-0.7,0.8c0,1.4,0,2.8,0,4.2
		c0,0.7,0.1,0.8,0.8,0.8C243.8,60.4,245.1,60.4,246.4,60.4z M246.2,53.1c1,0,2,0,3,0c0.5,0,0.7-0.2,0.7-0.7c0-1,0-2,0-3.1
		c0-0.5-0.2-0.6-0.7-0.6c-2,0-3.9,0-5.9,0c-0.5,0-0.7,0.2-0.7,0.7c0,1,0,1.9,0,2.9c0,0.5,0.2,0.8,0.8,0.8
		C244.3,53.1,245.3,53.1,246.2,53.1z"/>
	<path fill="#D7D7D8" d="M247.5,49.3c0.5,0,0.9,0,1.3,0c0,1.1,0,2.2,0,3.3c-0.5,0-0.9,0-1.3,0C247.5,51.5,247.5,50.4,247.5,49.3z"/>
</g>
<rect x="15.4" y="49" fill="#8CC97F" stroke="#FFFFFF" stroke-width="0.8265" stroke-miterlimit="10" width="39.6" height="12"/>
<g>
	<path fill="#FFFFFF" d="M19.5,51.6h0.9v6h2.9v0.7h-3.7V51.6z"/>
	<path fill="#FFFFFF" d="M25.3,56.2l-0.7,2.1h-0.9l2.3-6.7h1l2.3,6.7h-0.9l-0.7-2.1H25.3z M27.5,55.5l-0.7-1.9
		c-0.1-0.4-0.2-0.8-0.3-1.2h0c-0.1,0.4-0.2,0.8-0.3,1.2l-0.7,1.9H27.5z"/>
	<path fill="#FFFFFF" d="M31,58.3v-2.9l-2.1-3.9h1l0.9,1.9c0.3,0.5,0.5,0.9,0.7,1.4h0c0.2-0.4,0.4-0.9,0.7-1.4l1-1.9h1l-2.3,3.9v2.9
		H31z"/>
	<path fill="#FFFFFF" d="M40.3,54.9c0,2.3-1.4,3.5-3.1,3.5c-1.8,0-3-1.4-3-3.4c0-2.1,1.3-3.5,3.1-3.5C39.1,51.5,40.3,52.9,40.3,54.9
		z M35.1,55c0,1.4,0.8,2.7,2.1,2.7c1.4,0,2.2-1.3,2.2-2.8c0-1.3-0.7-2.7-2.1-2.7C35.8,52.2,35.1,53.5,35.1,55z"/>
	<path fill="#FFFFFF" d="M42.3,51.6v4c0,1.5,0.7,2.1,1.6,2.1c1,0,1.6-0.7,1.6-2.1v-4h0.9v3.9c0,2.1-1.1,2.9-2.5,2.9
		c-1.4,0-2.4-0.8-2.4-2.9v-4H42.3z"/>
	<path fill="#FFFFFF" d="M49.2,52.3h-2v-0.7h5v0.7h-2.1v6h-0.9V52.3z"/>
</g>
<rect x="59.2" y="49.2" fill="#D7D7D8" width="39.6" height="11.8"/>
<g>
	<path fill="#FFFFFF" d="M68.5,51.6v2.8h3.3v-2.8h0.9v6.7h-0.9v-3.2h-3.3v3.2h-0.9v-6.7H68.5z"/>
	<path fill="#FFFFFF" d="M75.5,52.3h-2v-0.7h5v0.7h-2.1v6h-0.9V52.3z"/>
	<path fill="#FFFFFF" d="M84.8,55.4c0-0.9-0.1-2.1-0.1-2.9h0c-0.2,0.8-0.5,1.6-0.8,2.6l-1.2,3.3H82l-1.1-3.2
		c-0.3-0.9-0.6-1.8-0.8-2.6h0c0,0.8-0.1,2-0.1,3l-0.2,2.9H79l0.5-6.7h1.1l1.1,3.3c0.3,0.8,0.5,1.6,0.7,2.3h0
		c0.2-0.7,0.4-1.4,0.7-2.3l1.2-3.3h1.1l0.4,6.7H85L84.8,55.4z"/>
	<path fill="#FFFFFF" d="M87.2,51.6h0.9v6H91v0.7h-3.7V51.6z"/>
</g>
</svg>
