<?xml version="1.0" encoding="utf-8"?>
<!-- Generator: Adobe Illustrator 18.0.0, SVG Export Plug-In . SVG Version: 6.00 Build 0)  -->
<!DOCTYPE svg PUBLIC "-//W3C//DTD SVG 1.1//EN" "http://www.w3.org/Graphics/SVG/1.1/DTD/svg11.dtd">
<svg version="1.1" xmlns="http://www.w3.org/2000/svg" xmlns:xlink="http://www.w3.org/1999/xlink" x="0px" y="0px"
	 viewBox="0 0 300 300" enable-background="new 0 0 300 300" xml:space="preserve">
<g id="Layer_2">
</g>
<g id="Layer_1">
	<g>
		<path fill="#48B768" d="M61.7,47.4l-7.5-3.7l7.5-3.7v1l-5.4,2.7l5.4,2.7V47.4z"/>
		<path fill="#48B768" d="M64.3,47.4V38h1.3V42h4.4V38h1.3v9.3h-1.3V43h-4.4v4.4H64.3z"/>
		<path fill="#48B768" d="M73.8,47.4V38h5.2v1h-3.9v3h3.3v1h-3.3v3.4h4.2v1H73.8z"/>
		<path fill="#48B768" d="M87,47.4l-1-2.6h-4l-1,2.6h-1.2l3.7-9.3h1.3l3.6,9.3H87z M85.6,43.8l-1.6-4l-1.6,4H85.6z"/>
		<path fill="#48B768" d="M89.8,47.4V38h3.1c0.9,0,1.7,0.1,2.2,0.3c0.6,0.2,1.1,0.6,1.5,1c0.7,0.8,1,1.8,1,3.1
			c0,1.6-0.4,2.8-1.2,3.6c-0.8,0.9-2,1.3-3.5,1.3H89.8z M91.1,46.4h1.7c1.2,0,2.1-0.3,2.6-1c0.5-0.7,0.8-1.6,0.8-2.8
			c0-1.1-0.3-2-0.8-2.6c-0.3-0.4-0.7-0.6-1.2-0.8c-0.5-0.1-1.1-0.2-2-0.2h-1.1V46.4z"/>
		<path fill="#48B768" d="M99.6,46.3l5.4-2.7L99.6,41v-1l7.5,3.7l-7.5,3.7V46.3z"/>
		<path fill="#FFD162" d="M61.7,62.9l-7.5-3.7l7.5-3.7v1l-5.4,2.7l5.4,2.7V62.9z"/>
		<path fill="#FFD162" d="M66.6,62.9v-8.3h-3.3v-1h7.9v1h-3.3v8.3H66.6z"/>
		<path fill="#FFD162" d="M72.5,62.9v-9.3h1.3v9.3H72.5z"/>
		<path fill="#FFD162" d="M78.5,62.9v-8.3h-3.3v-1h7.9v1h-3.3v8.3H78.5z"/>
		<path fill="#FFD162" d="M84.4,62.9v-9.3h1.3v8.3h4.2v1H84.4z"/>
		<path fill="#FFD162" d="M91.3,62.9v-9.3h5.2v1h-3.9v3h3.3v1h-3.3v3.4h4.2v1H91.3z"/>
		<path fill="#FFD162" d="M98.5,61.8l5.4-2.7l-5.4-2.7v-1l7.5,3.7l-7.5,3.7V61.8z"/>
		<path fill="#FFFFFF" d="M109.8,62.9l-2.4-9.3h1.3l1.9,7.4l1.8-7.4h1.3l1.7,7.3l2.1-7.3h1.1l-2.6,9.3h-1.3l-1.6-7.2l-1.7,7.2H109.8
			z"/>
		<path fill="#FFFFFF" d="M124.7,62.7c-0.8,0.3-1.5,0.4-2.1,0.4c-1,0-1.8-0.3-2.5-1c-0.6-0.7-1-1.5-1-2.6c0-1,0.3-1.9,0.8-2.6
			c0.6-0.7,1.3-1,2.2-1c0.8,0,1.5,0.3,1.9,0.9s0.7,1.4,0.7,2.5l0,0.4h-4.3c0.2,1.6,1,2.4,2.4,2.4c0.5,0,1.2-0.1,1.9-0.4V62.7z
			 M120.4,58.7h3c0-1.3-0.5-1.9-1.4-1.9C121.1,56.8,120.5,57.4,120.4,58.7z"/>
		<path fill="#FFFFFF" d="M126.8,63v-10h1.2v4.4c0.5-1,1.3-1.4,2.3-1.4c0.8,0,1.5,0.3,1.9,0.9c0.5,0.6,0.7,1.4,0.7,2.5
			c0,1.1-0.3,2.1-0.8,2.7s-1.2,1-2.1,1c-0.8,0-1.5-0.3-2-0.9l-0.2,0.9H126.8z M128.1,61.2c0.6,0.6,1.2,0.9,1.8,0.9
			c1.2,0,1.8-0.9,1.8-2.7c0-1.6-0.5-2.4-1.6-2.4c-0.7,0-1.4,0.4-2,1.1V61.2z"/>
		<path fill="#FFFFFF" d="M139,62.9v-9.3h2.5c1.1,0,1.9,0.2,2.4,0.6c0.5,0.4,0.7,1,0.7,1.9c0,1-0.3,1.8-1,2.3s-1.6,0.8-2.8,0.8h-0.6
			v3.7H139z M140.3,58.2h0.5c0.8,0,1.4-0.2,1.8-0.5c0.4-0.4,0.6-0.9,0.6-1.5c0-0.6-0.2-1-0.5-1.2s-0.9-0.4-1.7-0.4h-0.8V58.2z"/>
		<path fill="#FFFFFF" d="M149.7,62c-0.7,0.7-1.5,1-2.2,1c-0.6,0-1-0.2-1.4-0.5c-0.4-0.4-0.6-0.8-0.6-1.3c0-0.7,0.3-1.3,0.9-1.7
			c0.6-0.4,1.5-0.6,2.7-0.6h0.3V58c0-0.8-0.4-1.2-1.2-1.2c-0.7,0-1.4,0.2-2.1,0.6v-1c0.8-0.3,1.6-0.5,2.4-0.5c0.8,0,1.3,0.2,1.7,0.5
			c0.4,0.3,0.5,0.9,0.5,1.6v3.1c0,0.7,0.2,1.1,0.7,1.1c0.1,0,0.1,0,0.2,0l0.1,0.7c-0.3,0.1-0.6,0.2-0.9,0.2
			C150.3,63,149.9,62.7,149.7,62z M149.6,61.3v-1.8l-0.4,0c-0.7,0-1.2,0.1-1.7,0.4c-0.4,0.3-0.6,0.6-0.6,1c0,0.3,0.1,0.6,0.3,0.8
			c0.2,0.2,0.5,0.3,0.8,0.3C148.5,62,149,61.8,149.6,61.3z"/>
		<path fill="#FFFFFF" d="M153.4,65.2l0.1-1.1c0.7,0.3,1.4,0.5,2.1,0.5c1.4,0,2.1-0.7,2.1-2.2v-1.1c-0.5,1-1.2,1.4-2.3,1.4
			c-0.8,0-1.5-0.3-2-0.9s-0.7-1.4-0.7-2.4c0-1,0.3-1.9,0.8-2.5c0.6-0.7,1.3-1,2.1-1c0.8,0,1.4,0.3,2,0.9V56h1.2v5
			c0,1.1-0.1,1.9-0.2,2.4s-0.3,0.9-0.6,1.3c-0.5,0.6-1.4,0.9-2.5,0.9C154.9,65.5,154.1,65.4,153.4,65.2z M157.7,60.5v-2.8
			c-0.5-0.6-1.1-0.9-1.8-0.9c-0.6,0-1,0.2-1.3,0.7c-0.3,0.5-0.5,1.1-0.5,1.9c0,1.5,0.5,2.3,1.6,2.3
			C156.4,61.6,157.1,61.3,157.7,60.5z"/>
		<path fill="#FFFFFF" d="M166.4,62.7c-0.8,0.3-1.5,0.4-2.1,0.4c-1,0-1.8-0.3-2.5-1c-0.6-0.7-1-1.5-1-2.6c0-1,0.3-1.9,0.8-2.6
			c0.6-0.7,1.3-1,2.2-1c0.8,0,1.5,0.3,1.9,0.9s0.7,1.4,0.7,2.5l0,0.4h-4.3c0.2,1.6,1,2.4,2.4,2.4c0.5,0,1.2-0.1,1.9-0.4V62.7z
			 M162.2,58.7h3c0-1.3-0.5-1.9-1.4-1.9C162.8,56.8,162.3,57.4,162.2,58.7z"/>
		<path fill="#FFD162" d="M176.2,62.9l-7.5-3.7l7.5-3.7v1l-5.4,2.7l5.4,2.7V62.9z"/>
		<path fill="#FFD162" d="M178.8,64.7l3.4-11.2h1l-3.4,11.2H178.8z"/>
		<path fill="#FFD162" d="M187.8,62.9v-8.3h-3.3v-1h7.9v1h-3.3v8.3H187.8z"/>
		<path fill="#FFD162" d="M193.8,62.9v-9.3h1.3v9.3H193.8z"/>
		<path fill="#FFD162" d="M199.7,62.9v-8.3h-3.3v-1h7.9v1H201v8.3H199.7z"/>
		<path fill="#FFD162" d="M205.7,62.9v-9.3h1.3v8.3h4.2v1H205.7z"/>
		<path fill="#FFD162" d="M212.5,62.9v-9.3h5.2v1h-3.9v3h3.3v1h-3.3v3.4h4.2v1H212.5z"/>
		<path fill="#FFD162" d="M219.7,61.8l5.4-2.7l-5.4-2.7v-1l7.5,3.7l-7.5,3.7V61.8z"/>
		<path fill="#48B768" d="M61.7,78.4l-7.5-3.7l7.5-3.7v1l-5.4,2.7l5.4,2.7V78.4z"/>
		<path fill="#48B768" d="M64.4,80.3L67.7,69h1l-3.4,11.2H64.4z"/>
		<path fill="#48B768" d="M71.1,78.4V69h1.3V73h4.4V69h1.3v9.3h-1.3V74h-4.4v4.4H71.1z"/>
		<path fill="#48B768" d="M80.6,78.4V69h5.2v1h-3.9v3h3.3v1h-3.3v3.4h4.2v1H80.6z"/>
		<path fill="#48B768" d="M93.7,78.4l-1-2.6h-4l-1,2.6h-1.2l3.7-9.3h1.3l3.6,9.3H93.7z M92.3,74.8l-1.6-4l-1.6,4H92.3z"/>
		<path fill="#48B768" d="M96.5,78.4V69h3.1c0.9,0,1.7,0.1,2.2,0.3c0.6,0.2,1.1,0.6,1.5,1c0.7,0.8,1,1.8,1,3.1
			c0,1.6-0.4,2.8-1.2,3.6c-0.8,0.9-2,1.3-3.5,1.3H96.5z M97.9,77.4h1.7c1.2,0,2.1-0.3,2.6-1c0.5-0.7,0.8-1.6,0.8-2.8
			c0-1.1-0.3-2-0.8-2.6c-0.3-0.4-0.7-0.6-1.2-0.8c-0.5-0.1-1.1-0.2-2-0.2h-1.1V77.4z"/>
		<path fill="#48B768" d="M106.4,77.3l5.4-2.7l-5.4-2.7v-1l7.5,3.7l-7.5,3.7V77.3z"/>
	</g>
</g>
</svg>
