<?xml version="1.0" encoding="utf-8"?>
<!-- Generator: Adobe Illustrator 18.0.0, SVG Export Plug-In . SVG Version: 6.00 Build 0)  -->
<!DOCTYPE svg PUBLIC "-//W3C//DTD SVG 1.1//EN" "http://www.w3.org/Graphics/SVG/1.1/DTD/svg11.dtd">
<svg version="1.1" xmlns="http://www.w3.org/2000/svg" xmlns:xlink="http://www.w3.org/1999/xlink" x="0px" y="0px"
	 viewBox="0 0 300 300" enable-background="new 0 0 300 300" xml:space="preserve">
<g id="Layer_2">
</g>
<g id="Layer_1">
	<g>
		<path fill="#27AAE1" d="M50.6,30.8l-7.5-3.7l7.5-3.7v1l-5.4,2.7l5.4,2.7V30.8z"/>
		<path fill="#27AAE1" d="M53.2,30.8v-9.3h1.3v3.9H59v-3.9h1.3v9.3H59v-4.4h-4.4v4.4H53.2z"/>
		<path fill="#27AAE1" d="M64.9,30.8v-8.3h-3.3v-1h7.9v1h-3.3v8.3H64.9z"/>
		<path fill="#27AAE1" d="M70.9,30.8v-9.3h1.8l2.6,7.2l2.7-7.2h1.6v9.3h-1.2v-7.6l-2.6,7h-1.3l-2.5-7v7.6H70.9z"/>
		<path fill="#27AAE1" d="M82,30.8v-9.3h1.3v8.3h4.2v1H82z"/>
		<path fill="#27AAE1" d="M89.1,29.7l5.4-2.7l-5.4-2.7v-1l7.5,3.7l-7.5,3.7V29.7z"/>
	</g>
	<g>
		<path fill="#00AEEF" d="M44.9,147.3l-7.5-3.7l7.5-3.7v1l-5.4,2.7l5.4,2.7V147.3z"/>
		<path fill="#00AEEF" d="M47.5,147.3V138h1.3v3.9h4.4V138h1.3v9.3h-1.3v-4.4h-4.4v4.4H47.5z"/>
		<path fill="#00AEEF" d="M59.2,147.3V139h-3.3v-1h7.9v1h-3.3v8.3H59.2z"/>
		<path fill="#00AEEF" d="M65.1,147.3V138H67l2.6,7.2l2.7-7.2h1.6v9.3h-1.2v-7.6l-2.6,7h-1.3l-2.5-7v7.6H65.1z"/>
		<path fill="#00AEEF" d="M76.3,147.3V138h1.3v8.3h4.2v1H76.3z"/>
		<path fill="#00AEEF" d="M83.3,146.3l5.4-2.7l-5.4-2.7v-1l7.5,3.7l-7.5,3.7V146.3z"/>
	</g>
</g>
</svg>
