<?xml version="1.0" encoding="utf-8"?>
<!-- Generator: Adobe Illustrator 18.0.0, SVG Export Plug-In . SVG Version: 6.00 Build 0)  -->
<!DOCTYPE svg PUBLIC "-//W3C//DTD SVG 1.1//EN" "http://www.w3.org/Graphics/SVG/1.1/DTD/svg11.dtd">
<svg version="1.1" id="Layer_1" xmlns="http://www.w3.org/2000/svg" xmlns:xlink="http://www.w3.org/1999/xlink" x="0px" y="0px"
	 viewBox="0 0 500 500" enable-background="new 0 0 500 500" xml:space="preserve">
<g>
	<path fill="#FFFFFF" d="M225,302.3V272h30.5l25.5-23.6V216h34.8l20.1-21H148v136h47.2L225,302.3z M225,216h37v37h-37V216z M167,216
		h37v37h-37V216z M167,272h37v37h-37V272z"/>
	<path fill="#4DB867" d="M162.6,386H395V166.9L162.6,386z M262,374.5V331h37.2L262,374.5z M318,374.5V309h57.2L318,374.5z
		 M340,300.4V253h35.2L340,300.4z"/>
	<path fill="#FFFFFF" d="M390.2,145.4c-3.5-4.1-9.8-6.4-15.5-6.4H358v-19.6c0-5.2-6.6-8.4-11.8-8.4h-57c-5.2,0-8.2,3.2-8.2,8.4V139
		h-77v-19.6c0-5.2-4.5-8.4-9.7-8.4h-57c-5.2,0-7.3,3.2-7.3,8.4V139h-21.2c-10.5,0-18.8,7.9-18.8,18.4v208.9
		c0,10.5,8.3,19.7,18.8,19.7h26.1l40.2-37H130V176h228v0.6L390.2,145.4z M185,158h-37v-28h37V158z M340,158h-40v-28h40V158z"/>
</g>
</svg>
