<?xml version="1.0" encoding="utf-8"?>
<!-- Generator: Adobe Illustrator 18.0.0, SVG Export Plug-In . SVG Version: 6.00 Build 0)  -->
<!DOCTYPE svg PUBLIC "-//W3C//DTD SVG 1.1//EN" "http://www.w3.org/Graphics/SVG/1.1/DTD/svg11.dtd">
<svg version="1.1" id="Layer_1" xmlns="http://www.w3.org/2000/svg" xmlns:xlink="http://www.w3.org/1999/xlink" x="0px" y="0px"
	 viewBox="0 0 288 288" enable-background="new 0 0 288 288" xml:space="preserve">
<g>
	
		<rect x="15.8" y="141.7" fill="#F0BA63" stroke="#FFFFFF" stroke-width="0.7907" stroke-miterlimit="10" width="100.1" height="46.7"/>
	<g>
		<g>
			<g>
				<path fill="#FFFFFF" d="M49.4,162.5l2.7-4.9l-5.6,1C47.8,159.6,48.8,161,49.4,162.5z"/>
			</g>
		</g>
		<g>
			<g>
				<path fill="#FFFFFF" d="M49.7,167.4l4.9-2.3l-5.1-2.4c0.3,0.9,0.5,1.8,0.5,2.7C50,166.1,49.9,166.8,49.7,167.4z"/>
			</g>
		</g>
		<g>
			<g>
				<path fill="#FFFFFF" d="M41.7,157l-3.9-4.1l-0.7,5.4c1.3-0.8,2.8-1.3,4.5-1.3C41.6,157,41.6,157,41.7,157z"/>
			</g>
		</g>
		<g>
			<g>
				<path fill="#FFFFFF" d="M33.7,168.4l-2.3,4.3l4.7-0.9C35,170.9,34.2,169.7,33.7,168.4z"/>
			</g>
		</g>
		<g>
			<g>
				<path fill="#FFFFFF" d="M36.7,158.6l-5.3-1l2.5,4.5C34.5,160.7,35.5,159.5,36.7,158.6z"/>
			</g>
		</g>
		<g>
			<g>
				<path fill="#FFFFFF" d="M33.5,162.9l-4.6,2.2l4.4,2.1c-0.1-0.6-0.2-1.2-0.2-1.8C33.2,164.6,33.3,163.7,33.5,162.9z"/>
			</g>
		</g>
		<g>
			<g>
				<path fill="#FFFFFF" d="M47.1,171.7l5,0.9l-2.5-4.7C49.1,169.4,48.2,170.7,47.1,171.7z"/>
			</g>
		</g>
		<g>
			<g>
				<path fill="#FFFFFF" d="M37.8,177.3l3.3-3.5c-1.4-0.1-2.8-0.5-3.9-1.2L37.8,177.3z"/>
			</g>
		</g>
		<g>
			<g>
				<path fill="#FFFFFF" d="M45.7,177.3l0.7-5c-1.2,0.8-2.5,1.3-4,1.5L45.7,177.3z"/>
			</g>
		</g>
		<g>
			<g>
				<path fill="#FFFFFF" d="M45.7,152.9l-3.9,4.1c1.7,0.1,3.3,0.6,4.6,1.6L45.7,152.9z"/>
			</g>
		</g>
		<g>
			<g>
				<circle fill="#FFFFFF" cx="41.6" cy="165.4" r="6.7"/>
			</g>
		</g>
	</g>
	<g>
		<path fill="#FFFFFF" d="M73.9,161.3h-5.1v-1.9h8.4l-5.6,11.2h-2.4L73.9,161.3z"/>
		<path fill="#FFFFFF" d="M81.6,170.6v-2.4h-4.6v-1.9l5.3-6.8h1.5v6.8h1.4v1.9h-1.4v2.4H81.6z M79.1,166.3h2.7v-3.6L79.1,166.3z"/>
		<path fill="#FFFFFF" d="M86,158.7c0-0.4,0.2-0.8,0.5-1.1c0.3-0.3,0.7-0.5,1.2-0.5s0.9,0.2,1.2,0.5c0.3,0.3,0.5,0.7,0.5,1.1
			c0,0.5-0.2,0.9-0.5,1.2c-0.3,0.3-0.7,0.5-1.2,0.5s-0.9-0.2-1.2-0.5C86.1,159.6,86,159.2,86,158.7z M87.6,158.2
			c-0.2,0-0.3,0.1-0.4,0.2c-0.1,0.1-0.2,0.3-0.2,0.4c0,0.2,0.1,0.3,0.2,0.4c0.1,0.1,0.3,0.2,0.4,0.2c0.2,0,0.3-0.1,0.4-0.2
			c0.1-0.1,0.2-0.3,0.2-0.4c0-0.2-0.1-0.3-0.2-0.4C87.9,158.2,87.8,158.2,87.6,158.2z"/>
		<path fill="#FFFFFF" d="M91,168.6v-11.2h7.5v1.9h-5.4v2.9h4.5v1.8h-4.5v4.6H91z"/>
	</g>
	<rect x="114.3" y="140" fill="#FFFFFF" width="3.4" height="3.4"/>
	<rect x="14.1" y="140" fill="#FFFFFF" width="3.4" height="3.4"/>
	<rect x="64.2" y="140" fill="#FFFFFF" width="3.4" height="3.4"/>
	<rect x="114.3" y="186.7" fill="#FFFFFF" width="3.4" height="3.4"/>
	<rect x="14.1" y="186.7" fill="#FFFFFF" width="3.4" height="3.4"/>
	<rect x="64.2" y="186.7" fill="#FFFFFF" width="3.4" height="3.4"/>
	<rect x="114.3" y="161.6" fill="#FFFFFF" width="3.4" height="3.4"/>
	<rect x="14.1" y="161.6" fill="#FFFFFF" width="3.4" height="3.4"/>
</g>
</svg>
