<?xml version="1.0" encoding="utf-8"?>
<!-- Generator: Adobe Illustrator 18.0.0, SVG Export Plug-In . SVG Version: 6.00 Build 0)  -->
<!DOCTYPE svg PUBLIC "-//W3C//DTD SVG 1.1//EN" "http://www.w3.org/Graphics/SVG/1.1/DTD/svg11.dtd">
<svg version="1.1" id="Layer_1" xmlns="http://www.w3.org/2000/svg" xmlns:xlink="http://www.w3.org/1999/xlink" x="0px" y="0px"
	 viewBox="0 0 500 500" enable-background="new 0 0 500 500" xml:space="preserve">
<path fill="#47B667" d="M394.8,250c-11.3-5.5-5.8-17.3-4.3-20.1c13.2-11.4,22.1-32.5,22.1-54.1c0-31.8-19.3-52.5-43.2-52.5
	c-23.9,0-43.2,20.7-43.2,52.5c0,21.6,8.9,42.7,22.1,54.1c1.5,2.9,7,14.7-4.3,20.1c-40.6,9.5-70.5,40.8-70.5,73.9c0,0.3,0,0.6,0,0.9
	c0,0.2,0,0.3,0,0.5c0,19.4,43,37.6,96,37.6c53,0,96-18.2,96-37.6c0-0.2,0-0.3,0-0.5c0-0.3,0-0.6,0-0.9
	C465.3,290.8,435.4,259.5,394.8,250z"/>
<path fill="#47B667" d="M152.5,255.8c-11.3-5.5-5.8-17.3-4.3-20.1c13.2-11.4,22.1-32.5,22.1-54.1c0-31.8-19.3-52.5-43.2-52.5
	c-23.9,0-43.2,20.7-43.2,52.5c0,21.6,8.9,42.7,22.1,54.1c1.5,2.9,7,14.7-4.3,20.1c-40.6,9.5-70.5,40.8-70.5,73.9c0,0.3,0,0.6,0,0.9
	c0,0.2,0,0.3,0,0.5c0,19.4,43,37.6,96,37.6c53,0,96-18.2,96-37.6c0-0.2,0-0.3,0-0.5c0-0.3,0-0.6,0-0.9
	C223,296.6,193.1,265.3,152.5,255.8z"/>
<polygon fill="#FFFFFF" points="129,274 140.7,297.6 166.7,301.4 147.9,319.8 152.3,345.8 129,333.5 105.7,345.8 110.1,319.8 
	91.3,301.4 117.3,297.6 "/>
<path fill="#FFFFFF" d="M387,291.5h-0.5v-7.1c0-11.3-8.6-20.5-19.3-20.5H367c-10.6,0-19.3,9.2-19.3,20.5v7.1h-0.5
	c-4,0-7.3,3.3-7.3,7.3v30.3c0,4,3.3,7.3,7.3,7.3H387c4,0,7.3-3.3,7.3-7.3v-30.3C394.4,294.8,391.1,291.5,387,291.5z M356.6,284.4
	c0-6.2,4.7-11.3,10.4-11.3h0.2c5.8,0,10.4,5.1,10.4,11.3v7.1h-21.1V284.4z M369.7,315.9v5.5c0,1.4-1.1,2.5-2.5,2.5s-2.5-1.1-2.5-2.5
	v-5.5c-2.1-1-3.6-3.1-3.6-5.6c0-3.4,2.7-6.1,6.1-6.1c3.4,0,6.1,2.7,6.1,6.1C373.2,312.8,371.8,314.9,369.7,315.9z"/>
</svg>
