<?xml version="1.0" encoding="utf-8"?>
<!-- Generator: Adobe Illustrator 18.0.0, SVG Export Plug-In . SVG Version: 6.00 Build 0)  -->
<!DOCTYPE svg PUBLIC "-//W3C//DTD SVG 1.1//EN" "http://www.w3.org/Graphics/SVG/1.1/DTD/svg11.dtd">
<svg version="1.1" xmlns="http://www.w3.org/2000/svg" xmlns:xlink="http://www.w3.org/1999/xlink" x="0px" y="0px"
	 viewBox="0 0 300 300" enable-background="new 0 0 300 300" xml:space="preserve">
<g id="Layer_2">
</g>
<g id="Layer_1">
	<g>
		<path fill="#6FBEC4" d="M296.8,10.6C296.8,4.8,292,0,286.2,0H10.6C4.8,0,0,4.8,0,10.6v159h296.8V10.6z"/>
		<rect x="21.2" y="21.2" fill="#FFFFFF" width="148.4" height="127.2"/>
		<g>
			<rect x="164.3" y="15.9" fill="#6FBEC4" width="10.6" height="137.8"/>
		</g>
		<path fill="#252C3D" d="M286.2,10.6V159H10.6V10.6H286.2L286.2,10.6z M286.2,0H10.6C4.8,0,0,4.8,0,10.6v159h296.8v-159
			C296.8,4.8,292,0,286.2,0L286.2,0z"/>
		<circle fill="#2B3B49" cx="148.4" cy="190.8" r="5.3"/>
		<path fill="#FFFFFF" d="M0,169.6v31.8c0,5.8,4.8,10.6,10.6,10.6h275.6c5.8,0,10.6-4.8,10.6-10.6v-31.8H0z"/>
		<circle fill="#252C3D" cx="148.4" cy="190.8" r="5.3"/>
		<g>
			<polygon fill="#F0EEEE" points="106,254.4 190.8,254.4 181.5,217.3 115.3,217.3 			"/>
			<polygon fill="#ACAEB3" points="116.6,212 115.3,217.3 181.5,217.3 180.2,212 			"/>
		</g>
		<g>
			<rect x="84.8" y="243.8" fill="#FFFFFF" width="127.2" height="10.6"/>
		</g>
		<rect x="10.6" y="10.6" fill="#4B5155" width="275.6" height="148.4"/>
	</g>
</g>
</svg>
