<?xml version="1.0" encoding="utf-8"?>
<!-- Generator: Adobe Illustrator 18.0.0, SVG Export Plug-In . SVG Version: 6.00 Build 0)  -->
<!DOCTYPE svg PUBLIC "-//W3C//DTD SVG 1.1//EN" "http://www.w3.org/Graphics/SVG/1.1/DTD/svg11.dtd">
<svg version="1.1" id="Layer_1" xmlns="http://www.w3.org/2000/svg" xmlns:xlink="http://www.w3.org/1999/xlink" x="0px" y="0px"
	 viewBox="0 0 500 500" enable-background="new 0 0 500 500" xml:space="preserve">
<g>
	<rect x="31.6" y="137.6" fill="#FFFFFF" width="437.8" height="271.4"/>
	<rect x="31.6" y="89" fill="#D7D7D8" width="437.8" height="48.6"/>
	<circle fill="#AAACB2" cx="420.8" cy="101.1" r="6.1"/>
	<circle fill="#8CC97F" cx="439" cy="101.1" r="6.1"/>
	<circle fill="#47B667" cx="457.2" cy="101.1" r="6.1"/>
	<rect x="37.7" y="113.3" fill="#AAACB2" width="36.4" height="18.2"/>
	<rect x="80.2" y="113.3" fill="#EFEDED" width="358.9" height="18.2"/>
	<rect x="445.1" y="113.3" fill="#AAACB2" width="18.2" height="18.2"/>
	<rect x="88.6" y="322.9" fill="#47B667" width="322.4" height="65.1"/>
	<g>
		<path fill="#FFFFFF" d="M175.3,374v-36.2h7v30h18.4v6.2H175.3z"/>
		<path fill="#FFFFFF" d="M218.9,374.3c-2.5,0-4.9-0.5-7-1.6c-2.1-1-3.9-2.4-5.4-4.1c-1.5-1.7-2.7-3.7-3.5-5.9
			c-0.8-2.2-1.2-4.5-1.2-6.8c0-2.4,0.4-4.7,1.3-6.9c0.9-2.2,2.1-4.2,3.6-5.9c1.5-1.7,3.4-3,5.5-4.1c2.1-1,4.4-1.5,6.9-1.5
			c2.5,0,4.9,0.5,7,1.6c2.1,1.1,3.9,2.5,5.4,4.2c1.5,1.7,2.7,3.7,3.5,5.9c0.8,2.2,1.2,4.5,1.2,6.7c0,2.4-0.4,4.7-1.3,6.9
			s-2.1,4.1-3.6,5.8c-1.5,1.7-3.3,3-5.5,4C223.7,373.8,221.4,374.3,218.9,374.3z M208.8,355.9c0,1.6,0.2,3.1,0.7,4.5
			c0.5,1.5,1.1,2.8,2,3.9c0.9,1.1,1.9,2,3.2,2.7c1.3,0.7,2.7,1,4.3,1c1.6,0,3.1-0.3,4.3-1c1.2-0.7,2.3-1.6,3.1-2.8
			c0.8-1.2,1.5-2.5,1.9-3.9c0.4-1.4,0.7-2.9,0.7-4.4c0-1.6-0.2-3.1-0.7-4.5s-1.1-2.8-2-3.9c-0.9-1.1-1.9-2-3.2-2.7
			c-1.2-0.7-2.6-1-4.2-1c-1.6,0-3.1,0.3-4.3,1c-1.2,0.7-2.3,1.6-3.2,2.8c-0.9,1.1-1.5,2.4-2,3.9C209.1,353,208.8,354.4,208.8,355.9z
			"/>
		<path fill="#FFFFFF" d="M265.8,369.9c-2.8,2.9-6,4.3-9.6,4.3c-2.3,0-4.5-0.5-6.5-1.5c-2-1-3.8-2.4-5.3-4.1
			c-1.5-1.7-2.7-3.7-3.6-5.9c-0.9-2.2-1.3-4.6-1.3-7c0-2.5,0.4-4.8,1.3-7c0.9-2.2,2.1-4.1,3.6-5.8c1.5-1.6,3.4-3,5.5-3.9
			c2.1-1,4.4-1.5,6.8-1.5c3.3,0,6.1,0.7,8.5,2.1c2.3,1.4,4.1,3.3,5.3,5.8l-5.2,3.9c-0.9-1.8-2.1-3.2-3.6-4.1
			c-1.5-0.9-3.3-1.4-5.1-1.4c-1.5,0-2.8,0.3-4.1,1c-1.2,0.6-2.2,1.5-3.1,2.6c-0.8,1.1-1.5,2.4-2,3.9c-0.5,1.5-0.7,3-0.7,4.6
			c0,1.7,0.3,3.3,0.8,4.8c0.5,1.5,1.2,2.8,2.1,3.8c0.9,1.1,2,1.9,3.2,2.6c1.2,0.6,2.6,0.9,4.1,0.9c3.3,0,6.3-1.6,9-4.9v-2.5h-7.3
			v-5.1h13.1V374h-5.8V369.9z"/>
		<path fill="#FFFFFF" d="M277.7,374v-36.1h7V374H277.7z"/>
		<path fill="#FFFFFF" d="M299.3,350.8V374h-7v-36.2h5.5l18.9,23.7v-23.7h7V374h-5.7L299.3,350.8z"/>
	</g>
	<g>
		<path fill="#AAACB2" d="M180.9,264.2h-0.3v-4.1c0-6.6-5-11.9-11.2-11.9h-0.1c-6.2,0-11.2,5.3-11.2,11.9v4.1h-0.3
			c-2.3,0-4.3,1.9-4.3,4.3V286c0,2.3,1.9,4.3,4.3,4.3h23c2.3,0,4.3-1.9,4.3-4.3v-17.6C185.1,266.1,183.2,264.2,180.9,264.2z
			 M163.2,260.1c0-3.6,2.7-6.5,6.1-6.5h0.1c3.3,0,6.1,2.9,6.1,6.5v4.1h-12.2V260.1z M170.8,278.3v3.2c0,0.8-0.7,1.5-1.5,1.5
			c-0.8,0-1.5-0.7-1.5-1.5v-3.2c-1.2-0.6-2.1-1.8-2.1-3.2c0-2,1.6-3.5,3.5-3.5c2,0,3.5,1.6,3.5,3.5
			C172.9,276.5,172,277.7,170.8,278.3z"/>
		<g>
			<path fill="#AAACB2" d="M218.2,277.5l3.7-5.6l-5.6-1.7l1.4-4.6l5.8,2.5l-0.4-6.1h5.6l-0.4,6.1l5.7-2.5l1.4,4.6l-5.6,1.7l3.7,5.6
				l-4.1,2.7l-3.6-6l-3.7,6L218.2,277.5z"/>
			<path fill="#AAACB2" d="M245.6,277.5l3.7-5.6l-5.6-1.7l1.4-4.6l5.8,2.5l-0.4-6.1h5.6l-0.4,6.1l5.7-2.5l1.4,4.6l-5.6,1.7l3.7,5.6
				l-4.1,2.7l-3.6-6l-3.7,6L245.6,277.5z"/>
			<path fill="#AAACB2" d="M273,277.5l3.7-5.6l-5.6-1.7l1.4-4.6l5.8,2.5l-0.4-6.1h5.6l-0.4,6.1l5.7-2.5l1.4,4.6l-5.6,1.7l3.7,5.6
				l-4.1,2.7l-3.6-6l-3.7,6L273,277.5z"/>
			<path fill="#AAACB2" d="M300.4,277.5l3.7-5.6l-5.6-1.7l1.4-4.6l5.8,2.5l-0.4-6.1h5.6l-0.4,6.1l5.7-2.5l1.4,4.6l-5.6,1.7l3.7,5.6
				l-4.1,2.7l-3.6-6l-3.7,6L300.4,277.5z"/>
			<path fill="#AAACB2" d="M327.8,277.5l3.7-5.6l-5.6-1.7l1.4-4.6l5.8,2.5l-0.4-6.1h5.6L338,268l5.7-2.5l1.4,4.6l-5.6,1.7l3.7,5.6
				l-4.1,2.7l-3.6-6l-3.7,6L327.8,277.5z"/>
		</g>
	</g>
	<g>
		<path fill="#AAACB2" d="M173.6,195.3c-1.9-0.9-1-2.8-0.7-3.3c2.2-1.9,3.6-5.4,3.6-8.9c0-5.2-3.2-8.7-7.1-8.7
			c-3.9,0-7.1,3.4-7.1,8.7c0,3.6,1.5,7,3.6,8.9c0.3,0.5,1.1,2.4-0.7,3.3c-6.7,1.6-11.6,6.7-11.6,12.2c0,0.1,0,0.1,0,0.2
			c0,0,0,0,0,0.1c0,3.2,7.1,6.2,15.8,6.2c8.7,0,15.8-3,15.8-6.2c0,0,0-0.1,0-0.1c0-0.1,0-0.1,0-0.2
			C185.2,202.1,180.3,196.9,173.6,195.3z"/>
		<g>
			<path fill="#AAACB2" d="M224.3,208.9c-2.6,0-4.6-0.8-6-2.5c-1.4-1.7-2-4.2-2-7.5V183h6.5v14.5c0,3.9,1.4,5.9,4.2,5.9
				c1.3,0,2.5-0.4,3.7-1.1c1.2-0.8,2.1-1.9,2.9-3.5V183h6.5v17.9c0,0.7,0.1,1.2,0.4,1.5c0.3,0.3,0.7,0.5,1.4,0.5v5.5
				c-0.7,0.1-1.3,0.2-1.8,0.3c-0.5,0-1,0.1-1.4,0.1c-1.2,0-2.1-0.3-2.7-0.8c-0.7-0.5-1.1-1.3-1.2-2.2l-0.1-2.1
				c-1.2,1.7-2.6,3.1-4.4,3.9C228.4,208.4,226.5,208.9,224.3,208.9z"/>
			<path fill="#AAACB2" d="M256.7,208.9c-1,0-2.1-0.1-3.2-0.2c-1.1-0.2-2.2-0.4-3.3-0.7c-1.1-0.3-2.1-0.6-3.1-1.1
				c-1-0.4-1.8-0.9-2.6-1.4l2.6-4.4c3.2,2.1,6.4,3.2,9.4,3.2c1.4,0,2.4-0.2,3.2-0.7c0.8-0.5,1.2-1.2,1.2-2.1c0-0.9-0.5-1.6-1.4-2
				c-0.9-0.4-2.5-0.9-4.6-1.4c-1.6-0.4-3.1-0.8-4.2-1.2c-1.2-0.4-2.1-0.9-2.8-1.5c-0.7-0.5-1.2-1.2-1.6-1.9
				c-0.3-0.7-0.5-1.6-0.5-2.5c0-1.3,0.3-2.5,0.8-3.5c0.5-1,1.2-1.9,2.2-2.6c0.9-0.7,2-1.3,3.3-1.7c1.2-0.4,2.6-0.6,4.1-0.6
				c1.8,0,3.6,0.3,5.4,0.8c1.8,0.6,3.5,1.3,5,2.3l-2.7,4c-1.4-0.9-2.8-1.6-4-2c-1.3-0.4-2.5-0.6-3.8-0.6c-1.2,0-2.1,0.2-2.9,0.7
				c-0.8,0.5-1.2,1.2-1.2,2.2c0,0.9,0.4,1.5,1.1,1.9c0.8,0.4,2.1,0.8,4.1,1.3c1.8,0.5,3.4,0.9,4.6,1.4c1.3,0.5,2.3,1,3.2,1.6
				c0.8,0.6,1.4,1.3,1.8,2c0.4,0.8,0.6,1.7,0.6,2.7c0,1.2-0.3,2.3-0.8,3.3c-0.5,1-1.2,1.9-2.1,2.5c-0.9,0.7-2,1.2-3.3,1.6
				C259.8,208.7,258.3,208.9,256.7,208.9z"/>
			<path fill="#AAACB2" d="M283.2,208.9c-2,0-3.9-0.3-5.5-1c-1.6-0.7-3.1-1.6-4.2-2.8c-1.2-1.2-2.1-2.6-2.7-4.2
				c-0.6-1.6-0.9-3.2-0.9-5c0-1.8,0.3-3.5,0.9-5.1c0.6-1.6,1.5-3,2.7-4.2c1.2-1.2,2.6-2.2,4.2-2.9c1.7-0.7,3.5-1.1,5.6-1.1
				c2.1,0,3.9,0.4,5.6,1.1c1.6,0.7,3,1.7,4.2,2.9c1.1,1.2,2,2.6,2.6,4.2c0.6,1.6,0.9,3.2,0.9,4.9c0,0.4,0,0.8,0,1.2
				c0,0.4-0.1,0.7-0.1,1h-19.6c0.1,1,0.3,1.9,0.7,2.7c0.4,0.8,0.9,1.4,1.5,2c0.6,0.6,1.3,1,2.1,1.3c0.8,0.3,1.6,0.4,2.4,0.4
				c1.3,0,2.5-0.3,3.7-0.9c1.1-0.6,1.9-1.5,2.4-2.5l5.6,1.6c-0.9,1.9-2.4,3.5-4.5,4.8C288.5,208.2,286,208.9,283.2,208.9z
				 M289.8,193.5c-0.2-1.9-0.9-3.4-2.1-4.6c-1.2-1.1-2.8-1.7-4.5-1.7c-0.9,0-1.7,0.2-2.5,0.5c-0.8,0.3-1.4,0.7-2,1.3
				c-0.6,0.6-1.1,1.2-1.4,2c-0.4,0.8-0.6,1.6-0.7,2.6H289.8z"/>
			<path fill="#AAACB2" d="M315.6,188.6c-2,0-3.7,0.4-5.3,1.1c-1.6,0.7-2.7,1.8-3.3,3.3v15.4h-6.5V183h6v5.4c0.9-1.7,2-3.2,3.4-4.2
				c1.4-1.1,2.9-1.6,4.4-1.6c0.4,0,0.6,0,0.8,0c0.2,0,0.3,0,0.5,0.1V188.6z"/>
		</g>
	</g>
</g>
</svg>
