<?xml version="1.0" encoding="utf-8"?>
<!-- Generator: Adobe Illustrator 18.0.0, SVG Export Plug-In . SVG Version: 6.00 Build 0)  -->
<!DOCTYPE svg PUBLIC "-//W3C//DTD SVG 1.1//EN" "http://www.w3.org/Graphics/SVG/1.1/DTD/svg11.dtd">
<svg version="1.1" id="Layer_1" xmlns="http://www.w3.org/2000/svg" xmlns:xlink="http://www.w3.org/1999/xlink" x="0px" y="0px"
	 viewBox="0 0 500 500" enable-background="new 0 0 500 500" xml:space="preserve">
<g>
	<path fill="#404041" d="M159.3,22.7l-31,58.7c0,0-3,4.2-2.7,16.6l1.9,45.6c0,0,0.2,3.7,3.8,7.5l10.8,8.2c0,0,4.6,3.1,7.7,3.1h2.7
		c0,0,2.7,2.7,4.5,2.7l203.6-1c0,0,6,1.1,9.2-5.1c0,0,6.8-2,7.5-6.9l2.7-62.3c0,0-0.1-2.6-1.2-4.3l-34.6-66.3c0,0-3.3-5.8-14.5-5.6
		L175.2,14C175.2,14,163.2,13.3,159.3,22.7z"/>
	<path fill="#404041" d="M141,158.7c0,0-10.1-7.3-10.8-8.8l-2.4-57.6c0,0,0.2-5.9,2.2-9.1l34.4-66.7c0,0,5.1-2.6,12.4-2.6h153
		c0,0,8.8-0.9,11.7,5.1l33.1,64c0,0,2.9,4.9,0,6c0,0-1.8,2.7-9.7,2.6l-218.3,2c0,0-8.6,0-8.6,9.5l1.8,49.2c0,0,0.4,5.9,3.3,7.3"/>
	<path fill="#58595B" d="M141.6,104.7l2.4,50.5c0,0-0.7,6.8,14.1,6.8l206.1-0.9c0,0,12.1-0.9,13.2-9.3l2.7-63.1
		c0,0-0.7,8.6-15.7,7.9L148.3,98c0,0-7,0.2-6.8,5.9S141.6,104.7,141.6,104.7z"/>
	<path fill="#404041" d="M168,125.8l0.3,9.9c0,0-0.2,1.6,1.9,1.8h26.9c0,0,2.3-0.3,2.3-2.2v-9.7c0,0-0.2-2-2.9-2.1h-25.9
		C170.6,123.4,168.4,123.6,168,125.8z"/>
	<path fill="#404041" d="M209.7,125.6l0.3,10c0,0,0,1.4,1.9,1.4h26.7c0,0,2.3-0.2,2.5-2.3V125c0,0-0.1-2.2-3.8-1.9l-25,0
		C212.3,123.1,209.7,123.4,209.7,125.6z"/>
	<rect x="172" y="124.3" fill="#26A9E0" width="23.3" height="4"/>
	<rect x="213.9" y="124" fill="#26A9E0" width="23.3" height="4"/>
	<path fill="#E6E7E8" d="M128.3,93.6v3.9l8.1,5h1.8c0,0-0.1-1.9,0.4-2.7l-1.4-0.3L128.3,93.6z"/>
	<path fill="#E6E7E8" d="M131.8,108.5c0,0-1.1,2.4,1.1,4.2c0,0,2,0.9,0.5-3.4c0,0-0.3-0.4-0.1-0.6c0,0,0.3-0.1,0.5,0.4
		c0,0,1.6,4.2-0.4,4.5c0,0-2.7-0.5-2.4-4.6c0,0,0.3-1.1,0.8-1.3c0,0,0.5,0.1,0.3,0.6L131.8,108.5z"/>
	<path fill="#E6E7E8" d="M132.4,107.3v2.5c0,0,0,0.6,0.2,0.7c0,0,0.3,0.1,0.3-0.6l0-2.5c0,0,0-0.3-0.3-0.3
		C132.6,107,132.4,107,132.4,107.3z"/>
	<g>
		<path fill="#808184" d="M238.3,47.6c2,0,3.8,0,5.6,0c1.6,0,3.1,0,4.7,0c0.5,0,1.2,0.1,1.2-0.3c0-0.1-0.8-0.3-1.2-0.3
			c-2.1-0.1-4.2-0.1-6.2-0.2c-0.8,0-1.7-0.2-2.5-0.3c-0.9-0.1-1.3-0.5-1.3-0.9c1.8,0,3.7,0.1,5.5,0.1c1.6,0,3.2,0.1,4.8,0.1
			c1.4,0,2.7,0.2,3.8,0.7c0-0.5,0-0.9,0-1.4c1.2,0,2.2,0.1,3.4,0.1c0,0.5,0,1,0,1.5c0,0.5,0.2,0.6,1.4,0.6c1.5,0,3,0,4.5,0
			c1,0,1.3-0.2,1.3-0.6c0-0.5,0-0.9,0-1.4c1.1,0,2.1,0.1,3.2,0.1c0,0.3,0,0.6,0,0.9c0,0.3,0,0.6,0,0.9c0.5,0,1,0,1.5,0c3,0,6,0,9,0
			c0.4,0,0.8-0.1,1.2-0.2c-0.4-0.1-0.7-0.3-1.1-0.3c-2.3-0.1-4.6-0.1-6.9-0.2c-1.6-0.1-2.7-0.4-3.5-1c0.4,0,0.6,0,0.8,0
			c3.6,0.1,7.2,0.2,10.8,0.3c1.7,0,3.1,0.7,3.1,1.4c0,0.9-1.3,1.6-3,1.6c-3.9,0-7.7,0-11.7,0c0-0.3-0.1-0.5-0.1-0.8
			c-0.3,0.2-0.5,0.3-0.6,0.3c-0.6,0.3-1.4,0.5-2.4,0.5c-2.3,0-4.7,0-7,0c-2,0-2.5-0.1-3.4-1c-0.8,0.9-2.4,1-4.3,1
			c-4.2,0-8.3,0-12.5,0c-0.4,0-0.7,0-1.2,0c0-1.1,0-2.2,0-3.3c1.1,0,2.2,0,3.4,0C238.3,46.3,238.3,46.9,238.3,47.6z"/>
		<path fill="#808184" d="M252.1,43.8c0,0.5,0,0.9,0,1.3c-7.4,0-14.7,0-22,0c0.3-0.7,1.9-1.3,3.6-1.3c1.5,0,2.9,0,4.4,0
			c0.1,0,0.1,0,0.3,0c0,0.2,0,0.4,0.1,0.7c0.2-0.1,0.4-0.1,0.5-0.2c0.9-0.4,1.8-0.6,3.1-0.6c3,0,6.1,0,9.1,0
			C251.4,43.8,251.7,43.8,252.1,43.8z"/>
		<path fill="#808184" d="M281.1,43.8c0,0.5,0,0.9,0,1.3c-6,0-11.9,0-17.9,0c0-0.4,0-0.8,0-1.3c1,0,2.1,0,3.1,0
			c0,0.3,0.1,0.5,0.1,0.9c1.1-0.9,2.7-1,4.5-1C274.3,43.9,277.6,43.8,281.1,43.8z"/>
		<path fill="#808184" d="M224.2,48.8c1.8-1.1,3.4-2.2,5.2-3.3c0.1-0.1,0.4-0.1,0.5-0.1c1.1,0,2.3,0,3.6,0.1
			c-1.2,0.8-2.4,1.5-3.5,2.2c-0.1,0-0.2,0.1-0.2,0.1C227.8,49,227.8,49,224.2,48.8z"/>
		<path fill="#808184" d="M252.7,43.9c1.1,0,2.1,0,3.2,0c0,0.4,0,0.8,0,1.3c-1.1,0-2.1,0-3.2,0C252.7,44.7,252.7,44.3,252.7,43.9z"
			/>
	</g>
	<g>
		<g>
			<g>
				<path fill="#78797B" d="M185.8,20.5c-0.2,0-0.6,0.1-1.2,0.1c-1.3,0-2.1-0.3-2.1-0.9c0-0.5,0.9-0.9,2.3-0.9c0.5,0,0.9,0,1.1,0.1
					l-0.2,0.2c-0.2,0-0.5-0.1-0.9-0.1c-1,0-1.5,0.3-1.5,0.6c0,0.4,0.6,0.6,1.5,0.6c0.4,0,0.7,0,0.9-0.1L185.8,20.5z"/>
				<path fill="#78797B" d="M186.7,18.1h0.8v1.1h0c0.1-0.1,0.3-0.2,0.5-0.2c0.2-0.1,0.5-0.1,0.8-0.1c0.6,0,1.5,0.1,1.5,0.7v1h-0.8
					v-1c0-0.3-0.3-0.5-1-0.5c-0.5,0-0.9,0.1-1,0.3c0,0-0.1,0.1-0.1,0.1v1h-0.8L186.7,18.1L186.7,18.1z"/>
				<path fill="#78797B" d="M191.5,19.4c0-0.2,0-0.4,0-0.5h0.7l0,0.3h0c0.2-0.2,0.7-0.4,1.2-0.4c0.1,0,0.1,0,0.2,0v0.3
					c-0.1,0-0.2,0-0.3,0c-0.5,0-0.9,0.2-1,0.4c0,0,0,0.1,0,0.1v0.9h-0.8V19.4z"/>
				<path fill="#78797B" d="M198.1,19.7c0,0.6-1.1,0.9-2.1,0.9c-1.1,0-2-0.3-2-0.9c0-0.6,0.9-0.9,2.1-0.9
					C197.3,18.9,198.1,19.2,198.1,19.7z M194.8,19.8c0,0.4,0.5,0.6,1.3,0.6c0.7,0,1.3-0.3,1.3-0.7c0-0.3-0.4-0.6-1.3-0.6
					C195.1,19.1,194.8,19.4,194.8,19.8z"/>
				<path fill="#78797B" d="M199,19.4c0-0.2,0-0.3,0-0.5h0.7l0,0.3h0c0.2-0.2,0.6-0.3,1.3-0.3c0.6,0,1,0.1,1.2,0.3h0
					c0.1-0.1,0.3-0.2,0.5-0.2c0.3-0.1,0.5-0.1,0.9-0.1c0.6,0,1.4,0.1,1.4,0.7v1h-0.7v-1c0-0.3-0.3-0.5-0.9-0.5
					c-0.4,0-0.8,0.1-0.9,0.3c0,0-0.1,0.1-0.1,0.2v1h-0.7v-1c0-0.3-0.3-0.5-0.9-0.5c-0.5,0-0.8,0.2-0.9,0.3c0,0-0.1,0.1-0.1,0.2v1
					H199V19.4z"/>
				<path fill="#78797B" d="M206.7,19.8c0,0.4,0.7,0.6,1.4,0.6c0.5,0,0.9,0,1.2-0.1l0.1,0.2c-0.3,0-0.7,0.1-1.4,0.1
					c-1.3,0-2.1-0.3-2.1-0.9c0-0.5,0.7-0.9,2-0.9c1.4,0,1.7,0.5,1.7,0.8c0,0.1,0,0.1,0,0.1L206.7,19.8L206.7,19.8z M208.9,19.6
					c0-0.2-0.2-0.5-1.1-0.5c-0.8,0-1.1,0.3-1.2,0.5H208.9z"/>
			</g>
		</g>
		<ellipse id="circle47_1_" fill="#FFFFFF" cx="176.1" cy="19.7" rx="5" ry="2"/>
		<path id="path49_1_" fill-opacity="0.1" d="M179.3,20.1c0-0.7-1.4-1.3-3.2-1.3c-1.8,0-3.2,0.6-3.2,1.3h0.9c0-0.5,1-0.9,2.3-0.9
			s2.3,0.4,2.3,0.9"/>
		<ellipse id="circle51_1_" fill-opacity="0.1" cx="176.3" cy="20" rx="1.7" ry="0.7"/>
		
			<linearGradient id="circle53_2_" gradientUnits="userSpaceOnUse" x1="-174.5598" y1="-82.631" x2="-174.5598" y2="-82.6125" gradientTransform="matrix(82 0 0 82 14489.9707 6794.6992)">
			<stop  offset="0" style="stop-color:#81B3DF"/>
			<stop  offset="1" style="stop-color:#075A93"/>
		</linearGradient>
		<ellipse id="circle53_1_" fill="url(#circle53_2_)" cx="176.1" cy="19.7" rx="1.9" ry="0.8"/>
		
			<linearGradient id="path55_2_" gradientUnits="userSpaceOnUse" x1="-26.2741" y1="266.8672" x2="-26.2741" y2="268.5497" gradientTransform="matrix(1 0 0 1 202.5 -249.2241)">
			<stop  offset="0" style="stop-color:#EE6B5A"/>
			<stop  offset="1" style="stop-color:#DE2428"/>
		</linearGradient>
		<path id="path55_1_" fill="url(#path55_2_)" d="M180.7,18.8c-1.3-1-4.3-1.4-6.9-0.9c-0.8,0.2-1.5,0.4-2,0.7l2.1,1.4
			c-0.4-0.5,0.3-1,1.5-1.2c0.2,0,0.4,0,0.7,0"/>
		
			<linearGradient id="path57_2_" gradientUnits="userSpaceOnUse" x1="-29.2672" y1="270.9684" x2="-27.8541" y2="268.6337" gradientTransform="matrix(1 0 0 1 202.5 -249.2241)">
			<stop  offset="0" style="stop-color:#388A42"/>
			<stop  offset="1" style="stop-color:#4CB649"/>
		</linearGradient>
		<path id="path57_1_" fill="url(#path57_2_)" d="M171.8,18.5c-1.6,0.9-1,2.2,1.4,2.9c0.7,0.2,1.6,0.3,2.4,0.3l2.2-1.5
			c-0.8,0.4-2.3,0.4-3.2,0.1c-0.3-0.1-0.6-0.3-0.7-0.4"/>
		
			<linearGradient id="path59_2_" gradientUnits="userSpaceOnUse" x1="-23.7469" y1="270.6838" x2="-24.864" y2="267.9935" gradientTransform="matrix(1 0 0 1 202.5 -249.2241)">
			<stop  offset="0" style="stop-color:#E2AF24"/>
			<stop  offset="0.3" style="stop-color:#FBD10B"/>
		</linearGradient>
		<path id="path59_1_" fill="url(#path59_2_)" d="M175.7,21.8c2.8,0.1,5.3-0.8,5.5-1.9c0.1-0.4-0.1-0.7-0.5-1.1H176
			c1.3,0,2.3,0.4,2.3,0.9c0,0.2-0.2,0.4-0.5,0.6"/>
		
			<linearGradient id="path61_2_" gradientUnits="userSpaceOnUse" x1="-29.6243" y1="269.1598" x2="-29.6243" y2="267.6807" gradientTransform="matrix(1 0 0 1 202.5 -249.2241)">
			<stop  offset="0" style="stop-color:#000000;stop-opacity:0.15"/>
			<stop  offset="0.3" style="stop-color:#000000;stop-opacity:6.000000e-02"/>
			<stop  offset="1" style="stop-color:#000000;stop-opacity:3.000000e-02"/>
		</linearGradient>
		<path id="path61_1_" fill="url(#path61_2_)" d="M171.8,18.5l2.1,1.4c-0.2-0.2-0.1-0.4,0.1-0.6L171.8,18.5"/>
		
			<linearGradient id="path63_2_" gradientUnits="userSpaceOnUse" x1="-25.008" y1="269.3136" x2="-26.591" y2="270.9254" gradientTransform="matrix(1 0 0 1 202.5 -249.2241)">
			<stop  offset="0" style="stop-color:#000000;stop-opacity:0.15"/>
			<stop  offset="0.3" style="stop-color:#000000;stop-opacity:6.000000e-02"/>
			<stop  offset="1" style="stop-color:#000000;stop-opacity:3.000000e-02"/>
		</linearGradient>
		<path id="path63_1_" fill="url(#path63_2_)" d="M175.7,21.8l2.2-1.5c-0.3,0.2-0.8,0.3-1.3,0.3L175.7,21.8"/>
		
			<linearGradient id="path65_2_" gradientUnits="userSpaceOnUse" x1="-24.3703" y1="270.5404" x2="-24.168" y2="268.5423" gradientTransform="matrix(1 0 0 1 202.5 -249.2241)">
			<stop  offset="0" style="stop-color:#000000;stop-opacity:0.15"/>
			<stop  offset="0.3" style="stop-color:#000000;stop-opacity:6.000000e-02"/>
			<stop  offset="1" style="stop-color:#000000;stop-opacity:3.000000e-02"/>
		</linearGradient>
		<path id="path65_1_" fill="url(#path65_2_)" d="M180.7,18.8H176c0.7,0,1.4,0.1,1.8,0.4L180.7,18.8"/>
	</g>
</g>
</svg>
