<?xml version="1.0" encoding="utf-8"?>
<!-- Generator: Adobe Illustrator 18.0.0, SVG Export Plug-In . SVG Version: 6.00 Build 0)  -->
<!DOCTYPE svg PUBLIC "-//W3C//DTD SVG 1.1//EN" "http://www.w3.org/Graphics/SVG/1.1/DTD/svg11.dtd">
<svg version="1.1" id="Layer_1" xmlns="http://www.w3.org/2000/svg" xmlns:xlink="http://www.w3.org/1999/xlink" x="0px" y="0px"
	 viewBox="0 0 500 500" enable-background="new 0 0 500 500" xml:space="preserve">
<g>
	<path fill="#F0BA63" d="M316.2,111.7c-2.7-2.7-6.3-4.1-9.8-4.1c-3.5,0-7.1,1.4-9.8,4.1c-2.7,2.7-4.1,6.3-4.1,9.8v25.7h-1.1v-31.2
		c0-3.5-1.3-7.1-4.1-9.8c-2.7-2.7-6.3-4.1-9.8-4.1c-3.6,0-7.1,1.4-9.8,4.1c-2.7,2.7-4.1,6.3-4.1,9.8v31.2h-1.1v-36.8
		c0-3.6-1.4-7.1-4.1-9.8c-2.7-2.7-6.3-4.1-9.8-4.1c-3.6,0-7.1,1.4-9.8,4.1c-2.7,2.7-4.1,6.3-4.1,9.8v36.8h-1.1V64.8
		c0-3.6-1.4-7.1-4.1-9.8c-2.7-2.7-6.3-4.1-9.8-4.1c-3.6,0-7.1,1.4-9.8,4.1c-2.7,2.7-4.1,6.3-4.1,9.8v82.4v24.6L184.3,150
		c-2.5-2.5-6-4.1-9.8-4.1c-3.8,0-7.3,1.5-9.8,4.1c-2.5,2.5-4.1,6-4.1,9.8c0,3.8,1.5,7.3,4.1,9.8l58.2,58.2l0.4,29.5l81.4-4.7
		l-1.2-24.8l12.4-23.2c1.5-2.7,2.6-5.7,3.4-8.9c0.8-3.1,1.2-6.3,1.2-9.4v-39.3v-25.7C320.3,117.9,318.9,114.4,316.2,111.7z"/>
	<rect x="217.2" y="241.8" fill="#FFFFFF" width="91.9" height="5.1"/>
	<rect x="205.9" y="246.4" fill="#4A5054" width="114.4" height="56.6"/>
	<path fill="#FFFFFF" d="M309,264.3c0,3.7-3,6.7-6.7,6.7c-3.7,0-6.7-3-6.7-6.7c0-3.7,3-6.7,6.7-6.7C306.1,257.6,309,260.6,309,264.3
		z"/>
	<g>
		<rect x="183.7" y="63.7" fill="#FFFFFF" width="13.9" height="2.2"/>
		<polygon fill="#FFFFFF" points="193.5,40.1 195.1,38.5 204.9,48.3 203.3,49.9 		"/>
		<rect x="218.7" y="28.7" fill="#FFFFFF" width="2.2" height="13.9"/>
		<polygon fill="#FFFFFF" points="244.5,38.5 246.1,40.1 236.3,49.9 234.7,48.3 		"/>
		<rect x="242" y="63.7" fill="#FFFFFF" width="13.9" height="2.2"/>
	</g>
</g>
</svg>
