<?xml version="1.0" encoding="utf-8"?>
<!-- Generator: Adobe Illustrator 18.0.0, SVG Export Plug-In . SVG Version: 6.00 Build 0)  -->
<!DOCTYPE svg PUBLIC "-//W3C//DTD SVG 1.1//EN" "http://www.w3.org/Graphics/SVG/1.1/DTD/svg11.dtd">
<svg version="1.1" id="Layer_1" xmlns="http://www.w3.org/2000/svg" xmlns:xlink="http://www.w3.org/1999/xlink" x="0px" y="0px"
	 viewBox="0 0 500 500" enable-background="new 0 0 500 500" xml:space="preserve">
<g>
	<rect x="344" y="137" fill="#FFFFFF" width="132.6" height="195.3"/>
	<rect x="343.8" y="129.4" fill="#8CC97F" width="133" height="88.5"/>
	<g>
		<path fill="#FFFFFF" d="M444.9,140.7c-3.5-3.5-9.3-3.5-12.9,0l-3.2,3.2l12.9,12.9l3.2-3.2C448.4,150,448.4,144.2,444.9,140.7z"/>
		<polygon fill="#FFFFFF" points="396.6,176 393.5,192.1 409.5,188.9 438.4,159.9 425.6,147.1 		"/>
		<path fill="#FFFFFF" d="M424,200h-40v-25h7.3l5.1-5.1l4-3.9h-21.1c-2.5,0-4.3,1.3-4.3,3.8v34.1c0,2.5,1.8,5.1,4.3,5.1h25.8h12.1
			h12.1c2.5,0,4.7-2.6,4.7-5.1v-33l-10,9.1V200z"/>
	</g>
	<g>
		<path fill="#47B667" d="M355,232.1c0-0.6,0.1-1.1,0.3-1.6c0.2-0.5,0.5-1,0.8-1.4s0.8-0.8,1.4-1c0.5-0.3,1.1-0.4,1.8-0.4
			c0.8,0,1.5,0.2,2.1,0.5c0.6,0.4,1,0.8,1.3,1.4l-1.4,0.9c-0.1-0.3-0.2-0.5-0.4-0.6s-0.3-0.3-0.5-0.4c-0.2-0.1-0.4-0.2-0.6-0.2
			c-0.2,0-0.4-0.1-0.6-0.1c-0.4,0-0.8,0.1-1.1,0.3c-0.3,0.2-0.6,0.4-0.8,0.7c-0.2,0.3-0.4,0.6-0.5,1c-0.1,0.4-0.2,0.7-0.2,1.1
			c0,0.4,0.1,0.8,0.2,1.2c0.1,0.4,0.3,0.7,0.5,1c0.2,0.3,0.5,0.5,0.8,0.7s0.7,0.3,1,0.3c0.2,0,0.4,0,0.6-0.1
			c0.2-0.1,0.4-0.1,0.6-0.2c0.2-0.1,0.4-0.3,0.5-0.4c0.2-0.2,0.3-0.4,0.4-0.6l1.4,0.8c-0.1,0.3-0.3,0.6-0.6,0.9
			c-0.3,0.3-0.6,0.5-0.9,0.7s-0.7,0.3-1,0.4c-0.4,0.1-0.7,0.1-1.1,0.1c-0.6,0-1.2-0.1-1.7-0.4c-0.5-0.3-1-0.6-1.3-1.1
			c-0.4-0.4-0.7-0.9-0.9-1.5C355.1,233.2,355,232.7,355,232.1z"/>
		<path fill="#47B667" d="M366.9,236.8c-0.5,0-1-0.1-1.5-0.3c-0.4-0.2-0.8-0.4-1.1-0.8c-0.3-0.3-0.5-0.7-0.7-1.1s-0.2-0.9-0.2-1.3
			c0-0.5,0.1-0.9,0.2-1.3s0.4-0.8,0.7-1.1c0.3-0.3,0.7-0.6,1.1-0.8c0.4-0.2,0.9-0.3,1.5-0.3c0.5,0,1,0.1,1.5,0.3
			c0.4,0.2,0.8,0.4,1.1,0.8c0.3,0.3,0.5,0.7,0.7,1.1s0.2,0.9,0.2,1.3c0,0.5-0.1,0.9-0.2,1.3s-0.4,0.8-0.7,1.1
			c-0.3,0.3-0.7,0.6-1.1,0.8S367.4,236.8,366.9,236.8z M365.1,233.3c0,0.3,0,0.6,0.1,0.8c0.1,0.2,0.2,0.5,0.4,0.6s0.3,0.3,0.6,0.4
			c0.2,0.1,0.4,0.1,0.7,0.1c0.2,0,0.5,0,0.7-0.1c0.2-0.1,0.4-0.2,0.6-0.4s0.3-0.4,0.4-0.6s0.1-0.5,0.1-0.8c0-0.3,0-0.6-0.1-0.8
			s-0.2-0.5-0.4-0.6s-0.3-0.3-0.6-0.4c-0.2-0.1-0.4-0.1-0.7-0.1c-0.2,0-0.5,0.1-0.7,0.2c-0.2,0.1-0.4,0.2-0.6,0.4s-0.3,0.4-0.4,0.6
			C365.2,232.8,365.1,233.1,365.1,233.3z"/>
		<path fill="#47B667" d="M377.7,236.7H376v-3.7c0-0.5-0.1-0.9-0.3-1.2c-0.2-0.2-0.4-0.4-0.8-0.4c-0.2,0-0.3,0-0.5,0.1
			c-0.2,0.1-0.3,0.2-0.5,0.3c-0.2,0.1-0.3,0.3-0.4,0.4c-0.1,0.2-0.2,0.4-0.3,0.6v3.9h-1.7V230h1.5v1.2c0.2-0.4,0.6-0.8,1.1-1
			c0.5-0.2,1-0.4,1.6-0.4c0.4,0,0.8,0.1,1,0.2c0.3,0.2,0.5,0.4,0.6,0.6s0.2,0.5,0.3,0.8c0.1,0.3,0.1,0.6,0.1,1V236.7z"/>
		<path fill="#47B667" d="M383.1,236.3c-0.2,0.1-0.5,0.2-0.8,0.3c-0.3,0.1-0.7,0.2-1,0.2c-0.2,0-0.5,0-0.7-0.1
			c-0.2-0.1-0.4-0.2-0.5-0.3c-0.2-0.1-0.3-0.3-0.4-0.5c-0.1-0.2-0.1-0.5-0.1-0.8v-3.8h-0.9V230h0.9v-2.2h1.7v2.2h1.4v1.3h-1.4v3.3
			c0,0.2,0.1,0.4,0.2,0.5c0.1,0.1,0.3,0.1,0.5,0.1c0.2,0,0.4,0,0.5-0.1s0.3-0.1,0.4-0.2L383.1,236.3z"/>
		<path fill="#47B667" d="M387.1,236.8c-0.5,0-1-0.1-1.5-0.3c-0.4-0.2-0.8-0.4-1.1-0.7s-0.5-0.7-0.7-1.1c-0.2-0.4-0.2-0.9-0.2-1.3
			c0-0.5,0.1-0.9,0.2-1.3s0.4-0.8,0.7-1.1s0.7-0.6,1.1-0.8c0.4-0.2,0.9-0.3,1.5-0.3c0.5,0,1,0.1,1.5,0.3c0.4,0.2,0.8,0.4,1.1,0.8
			c0.3,0.3,0.5,0.7,0.7,1.1s0.2,0.8,0.2,1.3c0,0.1,0,0.2,0,0.3c0,0.1,0,0.2,0,0.3h-5.2c0,0.3,0.1,0.5,0.2,0.7
			c0.1,0.2,0.2,0.4,0.4,0.5c0.2,0.1,0.3,0.3,0.5,0.3c0.2,0.1,0.4,0.1,0.6,0.1c0.3,0,0.7-0.1,1-0.2c0.3-0.2,0.5-0.4,0.6-0.7l1.5,0.4
			c-0.2,0.5-0.6,0.9-1.2,1.3S387.8,236.8,387.1,236.8z M388.8,232.8c0-0.5-0.2-0.9-0.6-1.2c-0.3-0.3-0.7-0.5-1.2-0.5
			c-0.2,0-0.4,0-0.6,0.1c-0.2,0.1-0.4,0.2-0.5,0.3c-0.2,0.1-0.3,0.3-0.4,0.5c-0.1,0.2-0.2,0.4-0.2,0.7H388.8z"/>
		<path fill="#47B667" d="M397.8,236.7h-1.7v-3.7c0-0.5-0.1-0.9-0.3-1.2c-0.2-0.2-0.4-0.4-0.8-0.4c-0.2,0-0.3,0-0.5,0.1
			c-0.2,0.1-0.3,0.2-0.5,0.3c-0.2,0.1-0.3,0.3-0.4,0.4c-0.1,0.2-0.2,0.4-0.3,0.6v3.9h-1.7V230h1.5v1.2c0.2-0.4,0.6-0.8,1.1-1
			c0.5-0.2,1-0.4,1.6-0.4c0.4,0,0.8,0.1,1,0.2c0.3,0.2,0.5,0.4,0.6,0.6s0.2,0.5,0.3,0.8c0.1,0.3,0.1,0.6,0.1,1V236.7z"/>
		<path fill="#47B667" d="M403.3,236.3c-0.2,0.1-0.5,0.2-0.8,0.3c-0.3,0.1-0.7,0.2-1,0.2c-0.2,0-0.5,0-0.7-0.1
			c-0.2-0.1-0.4-0.2-0.5-0.3c-0.2-0.1-0.3-0.3-0.4-0.5c-0.1-0.2-0.1-0.5-0.1-0.8v-3.8h-0.9V230h0.9v-2.2h1.7v2.2h1.4v1.3h-1.4v3.3
			c0,0.2,0.1,0.4,0.2,0.5c0.1,0.1,0.3,0.1,0.5,0.1c0.2,0,0.4,0,0.5-0.1s0.3-0.1,0.4-0.2L403.3,236.3z"/>
		<path fill="#47B667" d="M407.4,236.7v-9h3.3c0.7,0,1.4,0.1,1.9,0.4s1,0.6,1.4,1c0.4,0.4,0.7,0.9,0.8,1.4s0.3,1.1,0.3,1.8
			c0,0.7-0.1,1.3-0.3,1.9s-0.5,1-0.9,1.4c-0.4,0.4-0.9,0.7-1.4,0.9c-0.5,0.2-1.2,0.3-1.8,0.3H407.4z M413.3,232.1
			c0-0.4-0.1-0.8-0.2-1.2c-0.1-0.4-0.3-0.7-0.5-0.9c-0.2-0.3-0.5-0.5-0.8-0.6c-0.3-0.1-0.7-0.2-1.1-0.2h-1.5v6h1.5
			c0.4,0,0.8-0.1,1.2-0.2c0.3-0.2,0.6-0.4,0.8-0.6c0.2-0.3,0.4-0.6,0.5-0.9S413.3,232.6,413.3,232.1z"/>
		<path fill="#47B667" d="M419.4,236.8c-0.5,0-1-0.1-1.5-0.3c-0.4-0.2-0.8-0.4-1.1-0.7s-0.5-0.7-0.7-1.1c-0.2-0.4-0.2-0.9-0.2-1.3
			c0-0.5,0.1-0.9,0.2-1.3s0.4-0.8,0.7-1.1s0.7-0.6,1.1-0.8c0.4-0.2,0.9-0.3,1.5-0.3c0.5,0,1,0.1,1.5,0.3c0.4,0.2,0.8,0.4,1.1,0.8
			c0.3,0.3,0.5,0.7,0.7,1.1s0.2,0.8,0.2,1.3c0,0.1,0,0.2,0,0.3c0,0.1,0,0.2,0,0.3h-5.2c0,0.3,0.1,0.5,0.2,0.7
			c0.1,0.2,0.2,0.4,0.4,0.5c0.2,0.1,0.3,0.3,0.5,0.3c0.2,0.1,0.4,0.1,0.6,0.1c0.3,0,0.7-0.1,1-0.2c0.3-0.2,0.5-0.4,0.6-0.7l1.5,0.4
			c-0.2,0.5-0.6,0.9-1.2,1.3S420.2,236.8,419.4,236.8z M421.2,232.8c0-0.5-0.2-0.9-0.6-1.2c-0.3-0.3-0.7-0.5-1.2-0.5
			c-0.2,0-0.4,0-0.6,0.1c-0.2,0.1-0.4,0.2-0.5,0.3c-0.2,0.1-0.3,0.3-0.4,0.5c-0.1,0.2-0.2,0.4-0.2,0.7H421.2z"/>
		<path fill="#47B667" d="M426.6,236.8c-0.3,0-0.6,0-0.8-0.1s-0.6-0.1-0.9-0.2c-0.3-0.1-0.5-0.2-0.8-0.3c-0.3-0.1-0.5-0.2-0.7-0.4
			l0.7-1.2c0.8,0.6,1.7,0.8,2.5,0.8c0.4,0,0.6-0.1,0.8-0.2c0.2-0.1,0.3-0.3,0.3-0.5s-0.1-0.4-0.4-0.5c-0.2-0.1-0.6-0.2-1.2-0.4
			c-0.4-0.1-0.8-0.2-1.1-0.3c-0.3-0.1-0.6-0.2-0.7-0.4c-0.2-0.1-0.3-0.3-0.4-0.5c-0.1-0.2-0.1-0.4-0.1-0.7c0-0.3,0.1-0.6,0.2-0.9
			s0.3-0.5,0.6-0.7c0.2-0.2,0.5-0.3,0.9-0.4s0.7-0.2,1.1-0.2c0.5,0,0.9,0.1,1.4,0.2c0.5,0.1,0.9,0.4,1.3,0.6l-0.7,1.1
			c-0.4-0.2-0.7-0.4-1.1-0.5c-0.3-0.1-0.7-0.2-1-0.2c-0.3,0-0.6,0.1-0.8,0.2c-0.2,0.1-0.3,0.3-0.3,0.6c0,0.2,0.1,0.4,0.3,0.5
			c0.2,0.1,0.6,0.2,1.1,0.3c0.5,0.1,0.9,0.2,1.2,0.4c0.3,0.1,0.6,0.3,0.8,0.4c0.2,0.2,0.4,0.3,0.5,0.5c0.1,0.2,0.1,0.4,0.1,0.7
			c0,0.3-0.1,0.6-0.2,0.9c-0.1,0.3-0.3,0.5-0.6,0.7c-0.2,0.2-0.5,0.3-0.9,0.4S427,236.8,426.6,236.8z"/>
		<path fill="#47B667" d="M430.4,229.1v-1.7h1.7v1.7H430.4z M430.4,236.7V230h1.7v6.7H430.4z"/>
		<path fill="#47B667" d="M436.3,236.7c-0.4,0-0.8-0.1-1.2-0.3s-0.7-0.4-0.9-0.7c-0.3-0.3-0.5-0.7-0.6-1.1c-0.1-0.4-0.2-0.8-0.2-1.3
			c0-0.5,0.1-0.9,0.2-1.3c0.2-0.4,0.4-0.8,0.6-1.1c0.3-0.3,0.6-0.6,1-0.7s0.8-0.3,1.3-0.3c0.5,0,1,0.1,1.4,0.4
			c0.4,0.2,0.7,0.5,1,0.9V230h1.5v6.4c0,0.5-0.1,0.9-0.3,1.3c-0.2,0.4-0.4,0.7-0.8,1c-0.3,0.3-0.7,0.5-1.2,0.6
			c-0.5,0.1-0.9,0.2-1.5,0.2c-0.7,0-1.4-0.1-1.9-0.4c-0.5-0.2-0.9-0.6-1.3-1l0.9-0.9c0.3,0.3,0.6,0.6,1,0.7c0.4,0.2,0.8,0.3,1.2,0.3
			c0.3,0,0.5,0,0.8-0.1c0.2-0.1,0.5-0.2,0.6-0.3c0.2-0.2,0.3-0.3,0.4-0.6c0.1-0.2,0.2-0.5,0.2-0.8v-0.8c-0.2,0.4-0.5,0.7-0.9,0.9
			C437.1,236.6,436.7,236.7,436.3,236.7z M436.8,235.3c0.2,0,0.4,0,0.5-0.1c0.2-0.1,0.3-0.1,0.5-0.2c0.1-0.1,0.3-0.2,0.4-0.4
			s0.2-0.3,0.3-0.4v-1.6c-0.2-0.4-0.4-0.7-0.7-0.9c-0.3-0.2-0.7-0.4-1-0.4c-0.3,0-0.5,0.1-0.7,0.2s-0.4,0.3-0.6,0.5
			c-0.2,0.2-0.3,0.4-0.4,0.7c-0.1,0.2-0.1,0.5-0.1,0.8c0,0.3,0,0.5,0.1,0.8c0.1,0.2,0.2,0.4,0.4,0.6c0.2,0.2,0.4,0.3,0.6,0.4
			S436.6,235.3,436.8,235.3z"/>
		<path fill="#47B667" d="M447.9,236.7h-1.7v-3.7c0-0.5-0.1-0.9-0.3-1.2c-0.2-0.2-0.4-0.4-0.8-0.4c-0.2,0-0.3,0-0.5,0.1
			c-0.2,0.1-0.3,0.2-0.5,0.3c-0.2,0.1-0.3,0.3-0.4,0.4c-0.1,0.2-0.2,0.4-0.3,0.6v3.9h-1.7V230h1.5v1.2c0.2-0.4,0.6-0.8,1.1-1
			c0.5-0.2,1-0.4,1.6-0.4c0.4,0,0.8,0.1,1,0.2c0.3,0.2,0.5,0.4,0.6,0.6s0.2,0.5,0.3,0.8c0.1,0.3,0.1,0.6,0.1,1V236.7z"/>
	</g>
	<g>
		<rect x="354.6" y="270.8" fill="#8CC97F" width="108.7" height="2.7"/>
		<rect x="354.6" y="250.8" fill="#8CC97F" width="108.7" height="2.7"/>
		<rect x="354.6" y="290.8" fill="#8CC97F" width="108.7" height="2.7"/>
	</g>
	<g>
		<rect x="412.1" y="309.4" fill="#8CC97F" width="52.3" height="16.1"/>
		<g>
			<path fill="#FFFFFF" d="M429.1,320c0,0.3-0.1,0.6-0.2,0.9s-0.3,0.5-0.5,0.6c-0.2,0.2-0.5,0.3-0.8,0.4c-0.3,0.1-0.6,0.1-1,0.1
				h-3.7v-7.7h4.1c0.3,0,0.5,0.1,0.7,0.2c0.2,0.1,0.4,0.3,0.6,0.5c0.2,0.2,0.3,0.4,0.4,0.6c0.1,0.2,0.1,0.5,0.1,0.7
				c0,0.4-0.1,0.7-0.3,1.1c-0.2,0.3-0.5,0.6-0.8,0.7c0.4,0.1,0.8,0.4,1.1,0.7C429,319,429.1,319.4,429.1,320z M424.4,315.5v2h2
				c0.3,0,0.5-0.1,0.6-0.3c0.2-0.2,0.3-0.4,0.3-0.7c0-0.3-0.1-0.5-0.2-0.7s-0.4-0.3-0.6-0.3H424.4z M427.6,319.7
				c0-0.1,0-0.3-0.1-0.4c0-0.1-0.1-0.2-0.2-0.3c-0.1-0.1-0.2-0.2-0.3-0.2c-0.1-0.1-0.2-0.1-0.4-0.1h-2.3v2h2.2c0.1,0,0.3,0,0.4-0.1
				s0.2-0.1,0.3-0.2c0.1-0.1,0.2-0.2,0.2-0.3C427.6,319.9,427.6,319.8,427.6,319.7z"/>
			<path fill="#FFFFFF" d="M433.6,320.7c0.4,0,0.7-0.1,0.9-0.2c0.2-0.1,0.4-0.3,0.6-0.6c0.1-0.2,0.3-0.5,0.3-0.8
				c0.1-0.3,0.1-0.6,0.1-0.9v-4h1.5v4c0,0.5-0.1,1-0.2,1.5c-0.1,0.5-0.3,0.9-0.6,1.2c-0.3,0.3-0.6,0.6-1.1,0.8
				c-0.4,0.2-0.9,0.3-1.5,0.3c-0.6,0-1.1-0.1-1.6-0.3c-0.4-0.2-0.8-0.5-1.1-0.9c-0.3-0.4-0.5-0.8-0.6-1.2c-0.1-0.5-0.2-0.9-0.2-1.5
				v-4h1.5v4c0,0.3,0,0.6,0.1,0.9c0.1,0.3,0.2,0.6,0.3,0.8c0.1,0.2,0.3,0.4,0.6,0.6C432.9,320.6,433.2,320.7,433.6,320.7z"/>
			<path fill="#FFFFFF" d="M439.2,314.2l1.9,3.7l1.9-3.7h1.6l-2.8,5v2.7h-1.5v-2.7l-2.8-5H439.2z"/>
			<path fill="#FFFFFF" d="M452.4,316.2c0-0.1-0.1-0.1-0.2-0.2s-0.3-0.1-0.4-0.2c-0.2-0.1-0.3-0.1-0.5-0.2c-0.2-0.1-0.4-0.1-0.6-0.1
				v1.9l0.3,0.1c0.4,0.1,0.7,0.2,1,0.3c0.3,0.1,0.6,0.3,0.8,0.4s0.4,0.4,0.5,0.6c0.1,0.2,0.2,0.5,0.2,0.9c0,0.4-0.1,0.7-0.2,1
				c-0.1,0.3-0.3,0.5-0.6,0.7c-0.2,0.2-0.5,0.3-0.8,0.4s-0.7,0.1-1,0.2v1.2h-0.7V322c-0.5,0-1-0.1-1.5-0.3s-0.9-0.4-1.3-0.7l0.7-1.3
				c0.1,0.1,0.2,0.1,0.3,0.2s0.3,0.2,0.5,0.3c0.2,0.1,0.4,0.2,0.7,0.3s0.5,0.1,0.8,0.2v-1.9l-0.4-0.1c-0.4-0.1-0.7-0.2-1-0.3
				c-0.3-0.1-0.5-0.3-0.7-0.4s-0.3-0.3-0.4-0.6s-0.1-0.5-0.1-0.8c0-0.4,0.1-0.7,0.2-1c0.1-0.3,0.3-0.5,0.5-0.7
				c0.2-0.2,0.5-0.4,0.8-0.5s0.6-0.2,1-0.2v-1.1h0.7v1.1c0.5,0,0.9,0.1,1.3,0.3c0.4,0.2,0.8,0.3,1.1,0.6L452.4,316.2z M449.1,316.3
				c0,0.2,0.1,0.4,0.3,0.6c0.2,0.1,0.4,0.2,0.8,0.3v-1.8C449.5,315.5,449.1,315.8,449.1,316.3z M451.8,319.9c0-0.3-0.1-0.5-0.3-0.6
				c-0.2-0.1-0.5-0.3-0.9-0.4v1.8C451.4,320.7,451.8,320.4,451.8,319.9z"/>
		</g>
	</g>
</g>
</svg>
