<?xml version="1.0" encoding="utf-8"?>
<!-- Generator: Adobe Illustrator 18.0.0, SVG Export Plug-In . SVG Version: 6.00 Build 0)  -->
<!DOCTYPE svg PUBLIC "-//W3C//DTD SVG 1.1//EN" "http://www.w3.org/Graphics/SVG/1.1/DTD/svg11.dtd">
<svg version="1.1" id="Layer_1" xmlns="http://www.w3.org/2000/svg" xmlns:xlink="http://www.w3.org/1999/xlink" x="0px" y="0px"
	 viewBox="0 0 500 500" enable-background="new 0 0 500 500" xml:space="preserve">
<g>
	<path fill="#FFFFFF" d="M88.4,180.1c14.1,8.1,33.5,14.5,57.7,19.2c24.3,4.7,50.7,7.1,79.3,7.1c28.5,0,55-2.4,79.3-7.1
		c24.3-4.7,41.2-11.2,55.4-19.2c14.1-8.1,18.9-16.9,18.9-26.3v-26.3c0-9.5-4.8-18.2-18.9-26.3c-14.1-8.1-32.2-14.5-56.5-19.2
		c-24.3-4.7-50.1-7.1-78.7-7.1c-28.5,0-54.7,2.4-78.9,7.1C121.7,86.5,102.4,93,88.3,101C74.1,109.1,67,117.9,67,127.4v26.3
		C67,163.2,74.3,172,88.4,180.1z"/>
	<path fill="#FFFFFF" d="M88.4,259.1c14.1,8.1,33.5,14.5,57.7,19.2c24.3,4.7,50.7,7.1,79.3,7.1c23.5,0,45.5-1.7,66.1-4.9l76.6-73.7
		c-14.1,7.1-31.2,12.9-51.5,17.1c-28.3,5.9-58.7,8.9-91.2,8.9c-32.5,0-63.1-3-91.4-8.9C105.8,218,78,209.3,67,197.8v35
		C67,242.2,74.3,251,88.4,259.1z"/>
	<path fill="#FFFFFF" d="M88.4,338.1c14.1,8.1,33.5,14.5,57.7,19.2c18.3,3.6,37.8,5.8,58.6,6.7l55.7-53.6c-11.4,0.8-23,1.3-34.9,1.3
		c-32.5,0-63.1-3-91.4-8.9c-28.3-5.9-56.1-14.6-67.1-26.1v35C67,321.3,74.3,330,88.4,338.1z"/>
	<path fill="#FFFFFF" d="M134.1,382c-28.3-5.9-56.1-14.6-67.1-26.1v35c0,9.5,7.3,18.2,21.4,26.3c11.4,6.5,26.3,11.9,44.2,16.2
		l46.5-44.7C163.6,387.2,148.5,385,134.1,382z"/>
	<path fill="#47B667" d="M155.4,443H435V173.6L155.4,443z M273,425.6V374h48.3L273,425.6z M343,425.6V351h70.5L343,425.6z
		 M365,335.6V282h48.5L365,335.6z"/>
</g>
</svg>
