<?xml version="1.0" encoding="utf-8"?>
<!-- Generator: Adobe Illustrator 18.0.0, SVG Export Plug-In . SVG Version: 6.00 Build 0)  -->
<!DOCTYPE svg PUBLIC "-//W3C//DTD SVG 1.1//EN" "http://www.w3.org/Graphics/SVG/1.1/DTD/svg11.dtd">
<svg version="1.1" id="Layer_1" xmlns="http://www.w3.org/2000/svg" xmlns:xlink="http://www.w3.org/1999/xlink" x="0px" y="0px"
	 viewBox="0 0 500 500" enable-background="new 0 0 500 500" xml:space="preserve">
<g>
	<path fill="#FFFFFF" d="M51.6,189.5c0.7-2.1,1.4-4.3,2.2-6.4c3.8-10.1,11.6-14.7,21.9-15.3c6.8-0.4,13.7-0.2,20.6-0.1
		c0.9,0,1.9,0.9,2.5,1.6c6,7.7,12.4,15.3,20.6,20.7c9.5,6.2,7,5.7,16.3,0.9c9.4-4.8,16.9-11.8,22.1-21.1c1-1.8,2.1-2.3,4.1-2.2
		c20.2,0.1,40.4,0,60.6,0c18.3,0,36.6,0.2,54.8-0.1c9.8-0.2,14.5,4,16.4,13.2c1.4,6.8,1.4,13.6-0.2,20.4c-2,8.2-6.8,11.3-15.1,10.1
		c-0.9-0.1-1.8-0.2-2.7-0.2c-31.3,0-62.5,0-93.8,0c-0.7,0-1.4,0-2.6,0c0,1.3,0,2.5,0,3.6c0,69.6,0,139.3,0,208.9
		c0,11.1-6.4,20.7-15.9,23.1c-11.8,2.9-21.7,0-28.8-10.4c-1-1.4-1.8-2.9-2.9-4.7c-0.8,1.3-1.4,2.3-2.1,3.4
		c-6.5,10.6-19.8,16.2-31.2,13c-8.6-2.4-16.2-12.3-16.2-21.3c0-40.4,0-80.8,0-121.2c0-1.1,0-2.2,0-3.7c-4.4,0-8.5,0-12.7,0
		c-2.2,0-4.4,0-6.5-0.5c-5.6-1.2-9.2-4.5-10.8-10.1c-0.1-0.5-0.4-0.9-0.6-1.4C51.6,256.4,51.6,222.9,51.6,189.5z"/>
	<path fill="#47B667" d="M300.1,69.9c2.3,0.5,4.6,0.9,6.9,1.4c10.6,2.3,18.3,8.9,17.8,22c0,0.5,0,1.1,0.1,1.9c1.2,0,2.3,0,3.3,0
		c26.9,0,53.8-0.1,80.6,0.1c4.4,0,8.8,0.3,13,1.2c11.2,2.5,17.9,10.4,19.7,22.6c0.4,2.4,0.6,4.9,0.6,7.4c0,72.2,0,144.4,0,216.7
		c0,3.8-0.5,7.7-1.4,11.4c-2.9,11.2-12.6,17.9-25.5,17.9c-31.9,0-63.8,0-95.7,0c-38.3,0-76.6,0-114.9,0c-1.2,0-2.3,0-3.6,0
		c0-10,0-19.6,0-29.6c1.3,0,2.5,0,3.7,0c61.2,0,122.3,0,183.5-0.1c3.2,0,6.6-0.5,9.7-1.4c8.4-2.4,13.5-9.3,14.1-18.5
		c0.1-1.5,0.1-2.9,0.1-4.4c0-54.8,0-109.5-0.1-164.3c0-4.2-0.7-8.6-2-12.6c-2.3-7.4-7.8-11.7-15.4-13.3c-2.9-0.6-5.9-0.9-8.9-0.9
		c-60.2-0.1-120.5,0-180.7,0c-1.3,0-2.5,0-4,0c0-10.7,0-21.2,0-32c20,0,39.8,0,59.8,0c0.2-2.1,0.2-4,0.5-5.7
		c1.8-10.2,8.5-16.4,20-18.5c1.8-0.3,3.7-0.7,5.5-1.1C291.3,69.9,295.7,69.9,300.1,69.9z"/>
	<path fill="#FFFFFF" d="M133.9,69.9c2.1,0.5,4.3,0.9,6.3,1.5c15.2,4.7,25.3,14.7,29.1,30c3.8,15.2-0.3,28.7-11.8,39.7
		c-23,22.1-60.6,10.5-68.3-20.1c-5.8-22.9,9.8-46.5,33.1-50.5c0.6-0.1,1.1-0.4,1.7-0.6C127.3,69.9,130.6,69.9,133.9,69.9z"/>
</g>
</svg>
