<?xml version="1.0" encoding="utf-8"?>
<!-- Generator: Adobe Illustrator 18.0.0, SVG Export Plug-In . SVG Version: 6.00 Build 0)  -->
<!DOCTYPE svg PUBLIC "-//W3C//DTD SVG 1.1//EN" "http://www.w3.org/Graphics/SVG/1.1/DTD/svg11.dtd">
<svg version="1.1" id="Layer_1" xmlns="http://www.w3.org/2000/svg" xmlns:xlink="http://www.w3.org/1999/xlink" x="0px" y="0px"
	 viewBox="0 0 500 500" enable-background="new 0 0 500 500" xml:space="preserve">
<g>
	<g>
		<path fill="#47B667" d="M365.7,381.9c0,4.1-0.7,9.3-2.2,15.9c-1.5,6.5-3.1,11.7-4.7,15.4c-3.1,7.5-12.3,15.4-27.4,23.8
			c-14.1,7.6-28,11.5-41.8,11.5c-4,0-8-0.3-11.8-0.8c-3.8-0.5-8.1-1.5-12.9-2.8c-4.8-1.3-8.4-2.4-10.7-3.3
			c-2.3-0.8-6.5-2.4-12.5-4.6c-6-2.2-9.7-3.6-11-4c-14.7-5.2-27.8-11.5-39.3-18.6c-19.2-11.8-39-28-59.5-48.4s-36.6-40.3-48.4-59.5
			c-7.2-11.5-13.4-24.6-18.6-39.3c-0.5-1.3-1.8-5-4-11c-2.2-6-3.8-10.1-4.6-12.5c-0.8-2.3-1.9-5.9-3.3-10.7
			c-1.4-4.8-2.3-9.1-2.8-12.9c-0.5-3.8-0.8-7.8-0.8-11.8c0-13.8,3.8-27.7,11.5-41.8c8.4-15.1,16.3-24.3,23.8-27.4
			c3.7-1.6,8.9-3.2,15.4-4.7c6.5-1.5,11.8-2.2,15.9-2.2c2.1,0,3.7,0.2,4.7,0.7c2.7,0.9,6.7,6.6,11.9,17.1c1.6,2.9,3.9,6.9,6.7,12.1
			c2.9,5.2,5.5,10,7.9,14.3c2.4,4.3,4.7,8.3,7,12c0.5,0.6,1.8,2.5,3.9,5.6c2.2,3.1,3.8,5.8,4.8,8c1,2.2,1.6,4.3,1.6,6.4
			c0,3-2.1,6.7-6.4,11.2c-4.3,4.5-8.9,8.6-13.9,12.4c-5,3.7-9.7,7.7-13.9,11.9c-4.3,4.2-6.4,7.6-6.4,10.3c0,1.4,0.4,3,1.1,5.1
			c0.7,2,1.4,3.6,1.9,4.6c0.5,1.1,1.6,2.9,3.1,5.4c1.6,2.5,2.4,4,2.6,4.3c11.4,20.5,24.4,38.1,39.1,52.8
			c14.7,14.7,32.3,27.7,52.8,39.1c0.3,0.2,1.7,1,4.3,2.6c2.5,1.6,4.3,2.6,5.4,3.1c1,0.5,2.6,1.2,4.6,1.9c2,0.7,3.7,1.1,5.1,1.1
			c2.7,0,6.1-2.1,10.3-6.4c4.2-4.3,8.2-8.9,11.9-13.9c3.7-5,7.9-9.7,12.4-13.9c4.5-4.3,8.2-6.4,11.2-6.4c2.1,0,4.2,0.5,6.4,1.6
			c2.2,1,4.8,2.7,8,4.8c3.1,2.2,5,3.5,5.6,3.9c3.7,2.2,7.8,4.6,12,7c4.3,2.4,9,5,14.3,7.9c5.2,2.8,9.3,5.1,12.1,6.7
			c10.5,5.2,16.2,9.2,17.1,11.9C365.4,378.2,365.7,379.8,365.7,381.9z"/>
	</g>
	<path fill="#FFFFFF" d="M345,56.4c-59.1,0-107,47.9-107,107c0,59.1,47.9,107,107,107s107-47.9,107-107
		C452,104.3,404.1,56.4,345,56.4z M398.4,148.3c-1.3,3.7-2.7,6.8-4.2,9.1c-1.6,2.4-3.8,4.8-6.7,7.2c-2.9,2.5-5.2,4.2-6.9,5.3
		c-1.7,1.1-4.2,2.5-7.4,4.3c-3.3,1.9-6.1,4.4-8.2,7.5c-2.2,3.1-2.6,10.2-8.1,10.2h-29c-1.4,0-5.5,0.4-5.5-2.7v-5.4
		c0-6.7,3-13.1,8.2-19c5.3-5.9,11.3-10.2,17.6-13.1c4.8-2.2,8.3-4.5,10.4-6.8c2-2.3,3.1-5.4,3.1-9.2c0-3.3-1.9-6.3-5.6-8.9
		c-3.8-2.6-8.1-3.9-12.9-3.9c-5.2,0-9.6,1.2-13,3.6c-3.3,2.4-7.6,7.1-13,13.9c-0.9,1.2-2.2,1.8-3.8,1.8c-1.2,0-2.2-0.3-2.9-0.9
		l-19.9-15.1c-2.3-1.8-2.7-3.9-1.2-6.3c12.9-21.5,31.6-32.2,56-32.2c8.8,0,17.3,2.1,25.7,6.2c8.4,4.1,15.3,10,20.9,17.5
		c5.6,7.5,8.4,15.8,8.4,24.6C400.3,140.5,399.6,144.6,398.4,148.3z M360,241.8h-37.2c-0.3,0-0.5-0.2-0.5-0.5v-37.2
		c0-0.3,0.2-0.5,0.5-0.5H360c0.3,0,0.5,0.2,0.5,0.5v37.2C360.5,241.6,360.3,241.8,360,241.8z"/>
</g>
</svg>
