<?xml version="1.0" encoding="utf-8"?>
<!-- Generator: Adobe Illustrator 18.0.0, SVG Export Plug-In . SVG Version: 6.00 Build 0)  -->
<!DOCTYPE svg PUBLIC "-//W3C//DTD SVG 1.1//EN" "http://www.w3.org/Graphics/SVG/1.1/DTD/svg11.dtd">
<svg version="1.1" id="Layer_1" xmlns="http://www.w3.org/2000/svg" xmlns:xlink="http://www.w3.org/1999/xlink" x="0px" y="0px"
	 viewBox="0 0 500 500" enable-background="new 0 0 500 500" xml:space="preserve">
<g>
	<path fill="#FFFFFF" d="M439.7,74.4c-19.4-19.4-51-19.4-70.4,0L351.7,92l70.4,70.4l17.6-17.6C459.1,125.4,459.1,93.8,439.7,74.4z"
		/>
	<polygon fill="#FFFFFF" points="175.8,268 158.3,355.8 246.2,338.3 404.5,180 334.1,109.6 	"/>
	<path fill="#47B667" d="M329,397H108V263h38.7l27.9-28.6l21.8-22.4H81c-13.7,0-25,8.3-25,22.1v186.6c0,13.7,11.3,28.3,25,28.3h141
		h66.4h66.4c13.7,0,26.3-14.6,26.3-28.3V240.1l-52,49.8V397z"/>
</g>
</svg>
