<?xml version="1.0" encoding="utf-8"?>
<!-- Generator: Adobe Illustrator 18.0.0, SVG Export Plug-In . SVG Version: 6.00 Build 0)  -->
<!DOCTYPE svg PUBLIC "-//W3C//DTD SVG 1.1//EN" "http://www.w3.org/Graphics/SVG/1.1/DTD/svg11.dtd">
<svg version="1.1" id="Layer_1" xmlns="http://www.w3.org/2000/svg" xmlns:xlink="http://www.w3.org/1999/xlink" x="0px" y="0px"
	 viewBox="0 0 500 500" enable-background="new 0 0 500 500" xml:space="preserve">
<g>
	<path fill="#FFFFFF" d="M170.2,213c-7.8-13.6-15.4-26.2-22.1-39.2c-1.4-2.6-0.5-7.5,1.1-10.4c8.9-16.2,18.3-32.3,27.7-48.2
		c4.2-7.2,11-10.7,19.2-10.7c33.1-0.1,66.2-0.1,99.3,0c7.3,0,13.8,2.8,17.7,9c7.3,11.6,14,23.6,21.1,35.7
		c-16.1-3.1-31.9-1.4-47.6-1.5c-24.4-0.1-48.8,0.6-73.3,0.7c-4.4,0-6.8,1.4-8.9,5.2C193.4,173.1,182,192.5,170.2,213z M199.3,120.5
		c-3.3,0-6,2.7-6,6s2.7,6,6,6c3.3,0,6-2.7,6-6S202.6,120.5,199.3,120.5z M295.8,120.5c-3.3,0-6,2.7-6,6s2.7,6,6,6s6-2.7,6-6
		S299.2,120.5,295.8,120.5z"/>
	<g>
		<g>
			<path fill="#FFFFFF" d="M182.5,364.9c0-2,0.3-3.9,1-5.9c0.7-1.9,1.7-3.7,3-5.2c1.3-1.5,2.9-2.8,4.9-3.8c1.9-1,4.1-1.5,6.6-1.5
				c2.9,0,5.4,0.7,7.5,2c2.1,1.3,3.6,3,4.6,5.1l-1.9,1.1c-0.6-1.1-1.2-2.1-2-2.9c-0.8-0.8-1.6-1.4-2.5-1.9c-0.9-0.5-1.9-0.8-2.8-1
				c-1-0.2-2-0.3-2.9-0.3c-2.1,0-3.9,0.4-5.5,1.3c-1.6,0.8-2.9,1.9-4.1,3.3c-1.1,1.4-1.9,2.9-2.5,4.6c-0.6,1.7-0.9,3.4-0.9,5.1
				c0,1.9,0.3,3.8,1,5.5c0.7,1.8,1.6,3.3,2.8,4.6c1.2,1.3,2.5,2.4,4.1,3.2c1.6,0.8,3.3,1.2,5.2,1.2c1,0,2-0.1,3-0.4
				c1-0.2,2-0.6,3-1.2c1-0.5,1.9-1.2,2.7-2c0.8-0.8,1.5-1.8,2.1-2.9l2,1c-0.6,1.2-1.3,2.3-2.2,3.3c-0.9,1-2,1.8-3.2,2.4
				c-1.2,0.6-2.4,1.1-3.7,1.5c-1.3,0.3-2.6,0.5-3.8,0.5c-2.2,0-4.3-0.5-6.2-1.5c-1.9-1-3.5-2.3-4.8-3.8c-1.4-1.6-2.4-3.4-3.2-5.4
				C182.8,369,182.5,367,182.5,364.9z"/>
			<path fill="#FFFFFF" d="M216,347.8h2.4v28.9c0,0.9,0.3,1.6,0.8,2.1c0.5,0.5,1.2,0.8,2.1,0.8c0.3,0,0.7,0,1.2-0.1
				c0.5-0.1,0.9-0.2,1.3-0.3l0.5,1.8c-0.5,0.2-1.2,0.4-1.9,0.5c-0.8,0.1-1.4,0.2-2,0.2c-1.3,0-2.3-0.4-3.1-1.2
				c-0.8-0.8-1.2-1.8-1.2-3.2V347.8z"/>
			<path fill="#FFFFFF" d="M237.3,381.9c-1.7,0-3.2-0.3-4.7-1c-1.4-0.7-2.7-1.6-3.7-2.7c-1-1.1-1.9-2.5-2.4-4
				c-0.6-1.5-0.9-3.1-0.9-4.7c0-1.7,0.3-3.3,0.9-4.8c0.6-1.5,1.4-2.8,2.5-4c1.1-1.1,2.3-2,3.7-2.7c1.4-0.7,2.9-1,4.6-1
				c1.7,0,3.2,0.3,4.6,1c1.4,0.7,2.7,1.6,3.7,2.7c1.1,1.1,1.9,2.5,2.5,4c0.6,1.5,0.9,3.1,0.9,4.8c0,1.7-0.3,3.2-0.9,4.7
				c-0.6,1.5-1.4,2.8-2.5,4c-1,1.1-2.3,2-3.7,2.7C240.5,381.6,239,381.9,237.3,381.9z M228,369.6c0,1.4,0.2,2.7,0.7,4
				c0.5,1.2,1.2,2.3,2,3.2s1.8,1.7,3,2.2c1.1,0.5,2.3,0.8,3.6,0.8c1.3,0,2.5-0.3,3.6-0.8c1.1-0.5,2.1-1.3,3-2.2c0.8-1,1.5-2.1,2-3.3
				c0.5-1.2,0.8-2.6,0.8-4c0-1.4-0.3-2.7-0.8-4c-0.5-1.2-1.2-2.3-2-3.3c-0.8-0.9-1.8-1.7-3-2.2c-1.1-0.6-2.4-0.8-3.6-0.8
				c-1.3,0-2.5,0.3-3.6,0.8c-1.1,0.6-2.1,1.3-3,2.3c-0.9,1-1.5,2.1-2,3.3C228.2,366.9,228,368.2,228,369.6z"/>
			<path fill="#FFFFFF" d="M261.9,381.9c-5.1,0-7.7-3.5-7.7-10.6v-13.8h2.3V371c0,5.9,2,8.8,6,8.8c1,0,2-0.2,3-0.5
				c1-0.4,1.9-0.8,2.7-1.5c0.8-0.6,1.6-1.4,2.2-2.3c0.6-0.9,1.1-1.9,1.5-2.9v-15.1h2.3v20.7c0,0.8,0.3,1.2,1,1.2v2.1
				c-0.2,0-0.3,0-0.5,0c-0.1,0-0.2,0-0.4,0c-0.6,0-1.2-0.2-1.6-0.6c-0.4-0.4-0.6-0.9-0.6-1.5v-3.6c-1.1,1.9-2.5,3.4-4.3,4.5
				S264.1,381.9,261.9,381.9z"/>
			<path fill="#FFFFFF" d="M291.5,381.9c-1.7,0-3.2-0.3-4.6-1c-1.4-0.7-2.6-1.6-3.7-2.8c-1-1.2-1.8-2.5-2.4-4
				c-0.6-1.5-0.9-3-0.9-4.6c0-1.7,0.3-3.2,0.8-4.7c0.6-1.5,1.3-2.8,2.3-4c1-1.1,2.1-2,3.5-2.7c1.3-0.7,2.8-1,4.4-1c1,0,2,0.2,3,0.5
				c0.9,0.3,1.8,0.7,2.6,1.2c0.8,0.5,1.5,1.1,2.1,1.8s1.2,1.4,1.7,2.2v-14.9h2.3v30.4c0,0.8,0.3,1.2,1,1.2v2.1c-0.2,0-0.3,0-0.4,0
				c-0.1,0-0.2,0-0.4,0c-0.7,0-1.2-0.2-1.6-0.6c-0.4-0.4-0.6-0.9-0.6-1.4v-2.8c-1,1.6-2.3,2.9-3.9,3.8
				C295,381.4,293.3,381.9,291.5,381.9z M291.9,379.8c0.8,0,1.7-0.2,2.7-0.5c1-0.3,1.8-0.8,2.7-1.4c0.8-0.6,1.5-1.3,2.1-2.1
				c0.6-0.8,0.9-1.6,1-2.5v-7.9c-0.3-0.9-0.8-1.7-1.5-2.5c-0.6-0.8-1.3-1.5-2.1-2c-0.8-0.6-1.7-1-2.6-1.4c-0.9-0.3-1.8-0.5-2.7-0.5
				c-1.4,0-2.6,0.3-3.8,0.9c-1.1,0.6-2.1,1.4-2.9,2.3c-0.8,1-1.4,2.1-1.9,3.3c-0.4,1.2-0.6,2.5-0.6,3.8c0,1.4,0.2,2.7,0.7,3.9
				c0.5,1.2,1.2,2.3,2.1,3.3c0.9,1,1.9,1.7,3,2.3C289.3,379.6,290.5,379.8,291.9,379.8z"/>
			<path fill="#FFFFFF" d="M322.8,381.5v-32.7h13.5c1.4,0,2.7,0.3,3.8,0.9c1.2,0.6,2.2,1.4,3,2.3s1.5,2.1,2,3.3
				c0.5,1.2,0.7,2.4,0.7,3.7c0,1.3-0.2,2.6-0.7,3.8c-0.4,1.2-1.1,2.3-1.9,3.3c-0.8,1-1.8,1.7-2.9,2.3s-2.4,0.9-3.8,0.9h-11.4v12.3
				H322.8z M325.1,366.9h11.3c1.1,0,2-0.2,2.9-0.7c0.9-0.4,1.6-1,2.2-1.8c0.6-0.8,1.1-1.6,1.4-2.6s0.5-2,0.5-3
				c0-1.1-0.2-2.1-0.6-3.1c-0.4-1-0.9-1.8-1.6-2.6c-0.7-0.7-1.4-1.3-2.3-1.8c-0.9-0.4-1.8-0.6-2.8-0.6h-11V366.9z"/>
			<path fill="#FFFFFF" d="M350.8,347.8h2.4v28.9c0,0.9,0.3,1.6,0.8,2.1c0.5,0.5,1.2,0.8,2.1,0.8c0.3,0,0.7,0,1.2-0.1
				c0.5-0.1,0.9-0.2,1.3-0.3l0.5,1.8c-0.5,0.2-1.2,0.4-1.9,0.5c-0.8,0.1-1.4,0.2-2,0.2c-1.3,0-2.3-0.4-3.1-1.2
				c-0.8-0.8-1.2-1.8-1.2-3.2V347.8z"/>
			<path fill="#FFFFFF" d="M368.1,381.9c-1.1,0-2.1-0.2-3.1-0.6c-1-0.4-1.8-0.9-2.5-1.6c-0.7-0.7-1.3-1.4-1.7-2.4
				c-0.4-0.9-0.6-1.9-0.6-2.9s0.2-2,0.7-2.9c0.5-0.9,1.2-1.6,2.1-2.2c0.9-0.6,1.9-1.1,3.2-1.5c1.2-0.4,2.6-0.5,4-0.5
				c1.3,0,2.6,0.1,3.9,0.3c1.3,0.2,2.5,0.5,3.5,0.9v-2.4c0-2.3-0.6-4.1-1.9-5.4c-1.3-1.3-3-2-5.3-2c-1.2,0-2.5,0.2-3.8,0.7
				c-1.3,0.5-2.6,1.2-3.9,2.1l-0.9-1.6c3.1-2.1,6-3.1,8.8-3.1c2.9,0,5.2,0.8,6.8,2.5c1.7,1.7,2.5,4,2.5,6.9v11.7
				c0,0.8,0.3,1.2,1,1.2v2.1c-0.2,0-0.3,0-0.4,0c-0.1,0-0.3,0-0.4,0c-0.6,0-1.1-0.2-1.5-0.6c-0.5-0.4-0.7-0.9-0.7-1.5v-2
				c-1.1,1.4-2.5,2.5-4.2,3.3C371.9,381.5,370.1,381.9,368.1,381.9z M368.5,380.1c1.8,0,3.4-0.3,4.9-1c1.5-0.7,2.6-1.6,3.4-2.7
				c0.5-0.6,0.8-1.2,0.8-1.8v-4.2c-2.3-0.9-4.7-1.3-7.2-1.3c-2.4,0-4.3,0.5-5.8,1.5c-1.5,1-2.2,2.3-2.2,3.9c0,0.8,0.2,1.6,0.5,2.3
				c0.3,0.7,0.7,1.3,1.3,1.8c0.6,0.5,1.2,0.9,2,1.2C366.9,379.9,367.7,380.1,368.5,380.1z"/>
			<path fill="#FFFFFF" d="M397.4,380.3c-0.1,0.1-0.3,0.2-0.6,0.3c-0.3,0.2-0.7,0.3-1.1,0.5c-0.4,0.2-0.9,0.3-1.5,0.4
				c-0.6,0.1-1.2,0.2-1.8,0.2c-0.6,0-1.3-0.1-1.8-0.3c-0.6-0.2-1.1-0.5-1.5-0.8c-0.4-0.4-0.8-0.8-1-1.3c-0.3-0.5-0.4-1.1-0.4-1.8
				v-18.1h-3.4v-1.9h3.4v-8.2h2.3v8.2h5.6v1.9h-5.6v17.5c0,0.9,0.3,1.6,0.9,2c0.6,0.4,1.3,0.7,2.1,0.7c1,0,1.8-0.2,2.5-0.5
				c0.7-0.3,1.1-0.5,1.3-0.6L397.4,380.3z"/>
			<path fill="#FFFFFF" d="M402.4,381.5v-19.3h-3.4v-1.9h3.4v-3.6c0-2.9,0.6-5.2,1.8-6.9c1.2-1.6,2.9-2.5,5-2.5
				c0.9,0,1.8,0.1,2.6,0.4c0.9,0.3,1.6,0.6,2.1,1.1l-0.8,1.7c-0.4-0.3-1-0.6-1.6-0.8c-0.6-0.2-1.3-0.3-2-0.3c-1.6,0-2.8,0.6-3.6,1.9
				c-0.8,1.2-1.3,3-1.3,5.4v3.6h6.8v1.9h-6.8v19.3H402.4z"/>
			<path fill="#FFFFFF" d="M426.4,381.9c-1.7,0-3.2-0.3-4.7-1c-1.4-0.7-2.7-1.6-3.7-2.7c-1-1.1-1.9-2.5-2.4-4
				c-0.6-1.5-0.9-3.1-0.9-4.7c0-1.7,0.3-3.3,0.9-4.8c0.6-1.5,1.4-2.8,2.5-4c1.1-1.1,2.3-2,3.7-2.7c1.4-0.7,2.9-1,4.6-1
				c1.7,0,3.2,0.3,4.6,1c1.4,0.7,2.7,1.6,3.7,2.7c1.1,1.1,1.9,2.5,2.5,4c0.6,1.5,0.9,3.1,0.9,4.8c0,1.7-0.3,3.2-0.9,4.7
				c-0.6,1.5-1.4,2.8-2.5,4c-1,1.1-2.3,2-3.7,2.7C429.6,381.6,428.1,381.9,426.4,381.9z M417.1,369.6c0,1.4,0.2,2.7,0.7,4
				c0.5,1.2,1.2,2.3,2,3.2s1.8,1.7,3,2.2c1.1,0.5,2.3,0.8,3.6,0.8c1.3,0,2.5-0.3,3.6-0.8c1.1-0.5,2.1-1.3,3-2.2c0.8-1,1.5-2.1,2-3.3
				c0.5-1.2,0.8-2.6,0.8-4c0-1.4-0.3-2.7-0.8-4c-0.5-1.2-1.2-2.3-2-3.3c-0.8-0.9-1.8-1.7-3-2.2c-1.1-0.6-2.4-0.8-3.6-0.8
				c-1.3,0-2.5,0.3-3.6,0.8c-1.1,0.6-2.1,1.3-3,2.3c-0.9,1-1.5,2.1-2,3.3C417.3,366.9,417.1,368.2,417.1,369.6z"/>
			<path fill="#FFFFFF" d="M455,359.6c-2.2,0.1-4.1,0.7-5.7,1.9c-1.6,1.2-2.7,2.9-3.4,5v15h-2.3v-24h2.2v5.9
				c0.8-1.7,1.9-3.1,3.3-4.1c1.4-1.1,2.8-1.7,4.4-1.8c0.3,0,0.6,0,0.8,0c0.2,0,0.5,0,0.6,0V359.6z"/>
			<path fill="#FFFFFF" d="M494.5,381.5h-2.3v-13.4c0-3-0.5-5.3-1.4-6.7c-0.9-1.4-2.4-2.2-4.3-2.2c-1,0-2,0.2-2.9,0.6
				c-0.9,0.4-1.7,0.9-2.4,1.5c-0.7,0.7-1.4,1.4-1.9,2.4c-0.5,0.9-1,1.9-1.3,3v14.8h-2.3v-13.4c0-3.1-0.5-5.3-1.4-6.8
				c-0.9-1.4-2.4-2.1-4.3-2.1c-1,0-1.9,0.2-2.8,0.5c-0.9,0.4-1.7,0.9-2.4,1.5c-0.7,0.7-1.4,1.4-1.9,2.3c-0.6,0.9-1,1.9-1.3,3v14.8
				h-2.3v-24h2.1v5.7c1-1.9,2.3-3.4,3.9-4.5c1.6-1.1,3.4-1.6,5.3-1.6c2,0,3.7,0.6,4.9,1.8s2,2.8,2.2,4.7c2.3-4.3,5.5-6.5,9.4-6.5
				c2.6,0,4.5,0.9,5.6,2.8c1.1,1.9,1.7,4.5,1.7,7.8V381.5z"/>
		</g>
		<g id="layer1" transform="translate(4636.4128,-2865.2086)">
			<path id="path4423" fill="#FFFFFF" d="M-4610.6,3234.9h6.9v9.7c-2.1,0.7-4.9,1.1-7.7,1.1c-11.4,0-18.1-9.8-18.1-19.3
				c0-9.4,6.1-15.9,14.5-15.9c5.4,0,8.5,1.8,11.3,4.3v3.1l5.2-5.2c-3.3-2.2-8.1-4.4-14.9-4.4c-15,0-21.9,10.7-21.9,19.6
				c0,12.6,9.2,20.1,20.7,20.1c5.6,0,10.5-0.9,16.2-2.4v-10c0-0.5,0.2-0.9,0.6-1.2l1.8-1.8h-12.3L-4610.6,3234.9z"/>
			<path id="path4425" fill="#FFFFFF" d="M-4579.8,3221.8c-8.6,0-14,6.3-14,13c0,5.8,4.3,12.7,13.1,12.7c8.4,0,13.6-6.3,13.6-13.1
				C-4567.2,3227.9-4572.2,3221.8-4579.8,3221.8L-4579.8,3221.8z M-4581.3,3223.6c6.1,0,8.8,7.9,8.8,13.6c0,8.4-6.3,8.6-7.1,8.6
				c-2.9,0-4.9-1.7-6.4-4c-1.3-2.1-2.6-6-2.6-9.9c0-3.8,1.2-5.7,3.2-7.1C-4583.8,3223.8-4582.3,3223.6-4581.3,3223.6L-4581.3,3223.6
				z"/>
			<path id="path4429" fill="#FFFFFF" d="M-4523.3,3221.8c-7.5,0-11.6,4.8-11.6,10.1c0,4.1,2.9,8.6,8.9,8.6h1.5c0,0-0.4,1-0.4,2
				c0,1.4,0.5,2.2,1.6,3.5c-10.3,0.6-14.5,4.8-14.5,9.3c0,3.9,3.8,7.8,11.6,7.8c9.3,0,14.2-5.2,14.2-10.3c0-3.6-1.8-5.6-6.3-8.9
				c-1.3-1-1.6-1.7-1.6-2.5c0-1.1,0.7-1.8,0.9-2.1c0.4-0.5,1.2-1,1.4-1.2c1.5-1.3,3.7-3.2,3.7-7c0-2.6-1.1-4.9-3.6-7h3l2.3-2.3
				H-4523.3L-4523.3,3221.8z M-4525.4,3223.4c1.4,0,2.5,0.5,3.7,1.5c1.3,1.2,3.5,4.5,3.5,8.5c0,4.3-3.4,5.5-5.2,5.5
				c-0.9,0-2-0.2-2.9-0.9c-2-1.3-4-4.8-4-8.9C-4530.3,3225.4-4528.1,3223.4-4525.4,3223.4z M-4522.4,3247.6c0.6,0,1,0,1,0
				s1.4,1,2.3,1.7c2.2,1.7,3.6,3.1,3.6,5.5c0,3.3-3,5.8-7.9,5.8c-5.4,0-9.5-2.5-9.5-6.6C-4533,3250.6-4530.2,3247.7-4522.4,3247.6
				L-4522.4,3247.6z"/>
			<path id="path4433" fill="#FFFFFF" d="M-4510.5,3246.7h10.4l1.6-1.6l-3-0.4c-0.8-0.1-1.3-0.8-1.3-1.5V3212c0-0.6,0.3-0.9,0.5-1.1
				l1.9-1.9h-8.8l-2.3,2.3h3.4v32.4c0,0.5-0.1,0.8-0.5,1.1L-4510.5,3246.7z"/>
			<path id="path4435" fill="#FFFFFF" d="M-4486.1,3221.8c-5.8,0-11.9,4.4-11.9,12.3c0,6.5,4.4,13.3,12.7,13.3c2.1,0,3.7-0.3,5.3-1
				c1.7-0.8,3.3-2.1,4.5-3.7c-2.3,1.1-4.1,1.9-6.5,1.9c-4.6,0-9.1-3.3-10.7-9.5l16.4-6.6C-4477.3,3225.2-4480,3221.8-4486.1,3221.8
				L-4486.1,3221.8z M-4487.2,3223.6c3.1,0,5.3,2.6,5.3,4.6c0,0.6-0.4,1-1.2,1.3l-10.1,4.1c0,0-0.3-1.3-0.3-2.6
				C-4493.4,3225.1-4489.2,3223.6-4487.2,3223.6L-4487.2,3223.6z"/>
			<path id="path4439" fill="#FFFFFF" d="M-4550.5,3221.8c-8.6,0-14,6.3-14,13c0,5.8,4.3,12.7,13.1,12.7c8.4,0,13.6-6.3,13.6-13.1
				C-4537.9,3227.9-4542.9,3221.8-4550.5,3221.8L-4550.5,3221.8z M-4551.9,3223.6c6.1,0,8.8,7.9,8.8,13.6c0,8.4-6.3,8.6-7.1,8.6
				c-2.9,0-4.9-1.7-6.4-4c-1.3-2.1-2.6-6-2.6-9.9c0-3.8,1.3-5.7,3.2-7.1C-4554.4,3223.8-4552.9,3223.6-4551.9,3223.6L-4551.9,3223.6
				z"/>
		</g>
	</g>
	<path fill="#FFFFFF" d="M294.6,156.7c15.7,0.1,30.4-0.2,45.1,0.6c2.9,0.1,6.7,3.3,8.4,6.1c9.6,15.9,18.7,32,27.8,48.1
		c4.1,7.3,3.7,14.9-0.4,22c-16.5,28.7-33.2,57.3-49.9,85.9c-3.7,6.3-9.3,10.5-16.6,10.8c-13.7,0.5-27.4,0.2-41.5,0.3
		c10.8-12.4,17.2-26.9,25.1-40.4c12.4-21.1,24-42.5,36.2-63.7c2.2-3.8,2.2-6.5,0-10.3C317.4,196.7,306.4,177.1,294.6,156.7z
		 M360,228.2c1.7-2.9,0.7-6.6-2.2-8.3c-2.9-1.7-6.6-0.7-8.3,2.2c-1.7,2.9-0.7,6.6,2.2,8.3C354.6,232.1,358.3,231.1,360,228.2z
		 M311.5,311.7c1.7-2.9,0.7-6.6-2.2-8.3c-2.9-1.7-6.6-0.7-8.3,2.2c-1.7,2.9-0.7,6.6,2.2,8.3C306.2,315.6,309.9,314.6,311.5,311.7z"
		/>
	<path fill="#FFFFFF" d="M281,285.4c-7.4,13.8-14.1,26.9-21.6,39.5c-1.5,2.5-6.1,4.4-9.4,4.5c-18.5,1-37,1.5-55.6,2
		c-8.3,0.2-14.9-3.7-19.2-10.6c-17.6-28-35.1-56.2-52.5-84.3c-3.8-6.2-4.9-13.2-1.8-19.8c6-12.3,12.7-24.3,19.2-36.8
		c5.9,15.3,15.7,27.8,23.9,41.1c12.8,20.8,26.3,41.1,39.3,61.8c2.3,3.7,4.7,5,9.1,4.8C235,286.8,257.4,286.2,281,285.4z
		 M187.2,309.7c1.8,2.8,5.5,3.7,8.3,1.9c2.8-1.8,3.7-5.5,1.9-8.3s-5.5-3.7-8.3-1.9C186.3,303.1,185.4,306.8,187.2,309.7z
		 M136.1,227.7c1.8,2.8,5.5,3.7,8.3,1.9c2.8-1.8,3.7-5.5,1.9-8.3c-1.8-2.8-5.5-3.7-8.3-1.9C135.2,221.2,134.4,224.9,136.1,227.7z"/>
	<path fill="#FFFFFF" d="M247.9,278.1c-10.4,0-20.8,0.1-31.2-0.1c-1.8,0-4.2-1.5-5.1-3c-10.5-17.7-20.7-35.6-30.9-53.5
		c-0.7-1.3-0.7-3.8,0-5.1c10.2-18.1,20.6-36.1,31-54c0.7-1.2,2.7-2.2,4.2-2.3c21.1-0.1,42.2-0.2,63.3,0c1.5,0,3.7,1.2,4.4,2.5
		c10.5,17.9,20.9,35.9,31.1,54c0.7,1.3,0.7,3.8,0,5.1c-10.1,17.9-20.4,35.8-30.9,53.6c-0.8,1.4-3.2,2.6-4.9,2.6
		C268.7,278.3,258.3,278.1,247.9,278.1z M247.4,182.7c-20.1,0-36.5,16.3-36.5,36.5s16.3,36.5,36.5,36.5s36.5-16.3,36.5-36.5
		S267.5,182.7,247.4,182.7z"/>
</g>
</svg>
