<?xml version="1.0" encoding="utf-8"?>
<!-- Generator: Adobe Illustrator 18.0.0, SVG Export Plug-In . SVG Version: 6.00 Build 0)  -->
<!DOCTYPE svg PUBLIC "-//W3C//DTD SVG 1.1//EN" "http://www.w3.org/Graphics/SVG/1.1/DTD/svg11.dtd">
<svg version="1.1" id="Layer_1" xmlns="http://www.w3.org/2000/svg" xmlns:xlink="http://www.w3.org/1999/xlink" x="0px" y="0px"
	 viewBox="0 0 500 500" enable-background="new 0 0 500 500" xml:space="preserve">
<g>
	<rect x="186.5" y="131.3" fill="#FFFFFF" width="132.6" height="201"/>
	<rect x="186.3" y="129.4" fill="#8CC97F" width="132.8" height="88.5"/>
	<g>
		<path fill="#FFFFFF" d="M216.1,161.9c0.1-0.4,0.2-0.8,0.4-1.2c0.7-1.8,2.1-2.7,4-2.8c1.2-0.1,2.5,0,3.8,0c0.2,0,0.4,0.2,0.5,0.3
			c1.1,1.4,2.3,2.8,3.8,3.8c1.7,1.1,1.3,1,3,0.2c1.7-0.9,3.1-2.2,4-3.9c0.2-0.3,0.4-0.4,0.7-0.4c3.7,0,7.4,0,11.1,0
			c3.3,0,6.7,0,10,0c1.8,0,2.7,0.7,3,2.4c0.3,1.2,0.3,2.5,0,3.7c-0.4,1.5-1.2,2.1-2.8,1.9c-0.2,0-0.3,0-0.5,0c-5.7,0-11.4,0-17.2,0
			c-0.1,0-0.3,0-0.5,0c0,0.2,0,0.5,0,0.7c0,12.7,0,25.5,0,38.2c0,2-1.2,3.8-2.9,4.2c-2.2,0.5-4,0-5.3-1.9c-0.2-0.3-0.3-0.5-0.5-0.9
			c-0.1,0.2-0.3,0.4-0.4,0.6c-1.2,1.9-3.6,3-5.7,2.4c-1.6-0.4-3-2.2-3-3.9c0-7.4,0-14.8,0-22.2c0-0.2,0-0.4,0-0.7
			c-0.8,0-1.6,0-2.3,0c-0.4,0-0.8,0-1.2-0.1c-1-0.2-1.7-0.8-2-1.8c0-0.1-0.1-0.2-0.1-0.3C216.1,174.2,216.1,168.1,216.1,161.9z"/>
		<path fill="#FFFFFF" d="M261.5,140.1c0.4,0.1,0.8,0.2,1.3,0.3c1.9,0.4,3.3,1.6,3.3,4c0,0.1,0,0.2,0,0.3c0.2,0,0.4,0,0.6,0
			c4.9,0,9.8,0,14.7,0c0.8,0,1.6,0.1,2.4,0.2c2,0.5,3.3,1.9,3.6,4.1c0.1,0.4,0.1,0.9,0.1,1.3c0,13.2,0,26.4,0,39.6
			c0,0.7-0.1,1.4-0.3,2.1c-0.5,2-2.3,3.3-4.7,3.3c-5.8,0-11.7,0-17.5,0c-7,0-14,0-21,0c-0.2,0-0.4,0-0.7,0c0-1.8,0-3.6,0-5.4
			c0.2,0,0.5,0,0.7,0c11.2,0,22.4,0,33.6,0c0.6,0,1.2-0.1,1.8-0.3c1.5-0.4,2.5-1.7,2.6-3.4c0-0.3,0-0.5,0-0.8c0-10,0-20,0-30
			c0-0.8-0.1-1.6-0.4-2.3c-0.4-1.3-1.4-2.1-2.8-2.4c-0.5-0.1-1.1-0.2-1.6-0.2c-11,0-22,0-33.1,0c-0.2,0-0.5,0-0.7,0c0-2,0-3.9,0-5.9
			c3.7,0,7.3,0,10.9,0c0-0.4,0-0.7,0.1-1c0.3-1.9,1.6-3,3.7-3.4c0.3-0.1,0.7-0.1,1-0.2C259.9,140.1,260.7,140.1,261.5,140.1z"/>
		<path fill="#FFFFFF" d="M231.1,140.1c0.4,0.1,0.8,0.2,1.2,0.3c2.8,0.9,4.6,2.7,5.3,5.5c0.7,2.8,0,5.2-2.2,7.3
			c-4.2,4-11.1,1.9-12.5-3.7c-1.1-4.2,1.8-8.5,6.1-9.2c0.1,0,0.2-0.1,0.3-0.1C229.9,140.1,230.5,140.1,231.1,140.1z"/>
		<path fill="#FFFFFF" d="M273.4,209.4c-1.6,0-3,0-4.5,0c-0.2,0-0.4-0.2-0.6-0.4c-2.5-2.7-5-5.4-7.5-8.1c-0.1-0.1-0.3-0.3-0.5-0.5
			c-1,1.1-1.9,2.1-2.9,3.2c-1.5,1.7-3,3.4-4.6,5.1c-0.1,0.1-0.3,0.3-0.4,0.3c-1.5,0-2.9,0-4.4,0c0.1-0.2,0.2-0.3,0.3-0.4
			c3.2-3.7,6.4-7.4,9.6-11.1c0.1-0.2,0.4-0.3,0.6-0.3c1.2,0,2.3,0,3.5,0c0.2,0,0.5,0.1,0.6,0.3c3.5,3.9,7.1,7.9,10.6,11.8
			C273.3,209.2,273.3,209.3,273.4,209.4z"/>
	</g>
	<g>
		<path fill="#47B667" d="M204.9,229.2h-2.9v7.5h-1.8v-7.5h-2.9v-1.5h7.5V229.2z"/>
		<path fill="#47B667" d="M209.9,231.5c-0.5,0-1,0.1-1.4,0.3c-0.4,0.2-0.7,0.5-0.9,0.9v4h-1.7V230h1.6v1.4c0.2-0.5,0.5-0.8,0.9-1.1
			c0.4-0.3,0.8-0.4,1.2-0.4c0.1,0,0.2,0,0.2,0c0,0,0.1,0,0.1,0V231.5z"/>
		<path fill="#47B667" d="M212.5,236.8c-0.3,0-0.6-0.1-0.9-0.2c-0.3-0.1-0.5-0.3-0.7-0.4s-0.4-0.4-0.5-0.7c-0.1-0.3-0.2-0.5-0.2-0.8
			c0-0.3,0.1-0.6,0.2-0.9c0.1-0.3,0.3-0.5,0.6-0.7c0.2-0.2,0.5-0.3,0.9-0.4c0.3-0.1,0.7-0.2,1.1-0.2c0.3,0,0.6,0,0.9,0.1
			c0.3,0.1,0.5,0.1,0.8,0.2v-0.4c0-0.4-0.1-0.8-0.4-1c-0.3-0.2-0.6-0.4-1.1-0.4c-0.4,0-0.7,0.1-1,0.2c-0.3,0.1-0.7,0.3-1,0.6
			l-0.5-1.1c0.9-0.6,1.8-0.9,2.8-0.9c1,0,1.7,0.2,2.2,0.7c0.5,0.5,0.8,1.2,0.8,2v2.1c0,0.2,0,0.3,0.1,0.4c0.1,0.1,0.2,0.1,0.4,0.1
			v1.5c-0.2,0-0.3,0.1-0.5,0.1s-0.3,0-0.4,0c-0.3,0-0.6-0.1-0.7-0.2c-0.2-0.1-0.3-0.3-0.3-0.6l0-0.4c-0.3,0.4-0.7,0.7-1.1,0.9
			C213.5,236.7,213,236.8,212.5,236.8z M213,235.5c0.3,0,0.6-0.1,0.8-0.2c0.3-0.1,0.5-0.2,0.6-0.4c0.2-0.1,0.3-0.3,0.3-0.5v-0.8
			c-0.2-0.1-0.4-0.1-0.7-0.2c-0.2,0-0.5-0.1-0.7-0.1c-0.4,0-0.8,0.1-1.1,0.3c-0.3,0.2-0.4,0.5-0.4,0.8c0,0.3,0.1,0.5,0.3,0.7
			C212.4,235.5,212.7,235.5,213,235.5z"/>
		<path fill="#47B667" d="M218.1,229.1v-1.7h1.7v1.7H218.1z M218.1,236.7V230h1.7v6.7H218.1z"/>
		<path fill="#47B667" d="M227.5,236.7h-1.7v-3.7c0-0.5-0.1-0.9-0.3-1.2c-0.2-0.2-0.4-0.4-0.8-0.4c-0.2,0-0.3,0-0.5,0.1
			s-0.3,0.2-0.5,0.3c-0.2,0.1-0.3,0.3-0.4,0.4c-0.1,0.2-0.2,0.4-0.3,0.6v3.9h-1.7V230h1.5v1.2c0.2-0.4,0.6-0.8,1.1-1
			c0.5-0.2,1-0.4,1.6-0.4c0.4,0,0.8,0.1,1,0.2c0.3,0.2,0.5,0.4,0.6,0.6c0.1,0.2,0.2,0.5,0.3,0.8c0.1,0.3,0.1,0.6,0.1,1V236.7z"/>
		<path fill="#47B667" d="M229,229.1v-1.7h1.7v1.7H229z M229,236.7V230h1.7v6.7H229z"/>
		<path fill="#47B667" d="M238.4,236.7h-1.7v-3.7c0-0.5-0.1-0.9-0.3-1.2c-0.2-0.2-0.4-0.4-0.8-0.4c-0.2,0-0.3,0-0.5,0.1
			s-0.3,0.2-0.5,0.3c-0.2,0.1-0.3,0.3-0.4,0.4c-0.1,0.2-0.2,0.4-0.3,0.6v3.9h-1.7V230h1.5v1.2c0.2-0.4,0.6-0.8,1.1-1
			c0.5-0.2,1-0.4,1.6-0.4c0.4,0,0.8,0.1,1,0.2c0.3,0.2,0.5,0.4,0.6,0.6c0.1,0.2,0.2,0.5,0.3,0.8c0.1,0.3,0.1,0.6,0.1,1V236.7z"/>
		<path fill="#47B667" d="M242.5,236.7c-0.4,0-0.8-0.1-1.2-0.3s-0.7-0.4-0.9-0.7c-0.3-0.3-0.5-0.7-0.6-1.1c-0.1-0.4-0.2-0.8-0.2-1.3
			c0-0.5,0.1-0.9,0.2-1.3s0.4-0.8,0.6-1.1c0.3-0.3,0.6-0.6,1-0.7c0.4-0.2,0.8-0.3,1.3-0.3c0.5,0,1,0.1,1.4,0.4
			c0.4,0.2,0.7,0.5,1,0.9V230h1.5v6.4c0,0.5-0.1,0.9-0.3,1.3c-0.2,0.4-0.4,0.7-0.8,1c-0.3,0.3-0.7,0.5-1.2,0.6
			c-0.5,0.1-0.9,0.2-1.5,0.2c-0.7,0-1.4-0.1-1.9-0.4c-0.5-0.2-0.9-0.6-1.3-1l0.9-0.9c0.3,0.3,0.6,0.6,1,0.7s0.8,0.3,1.2,0.3
			c0.3,0,0.5,0,0.8-0.1c0.2-0.1,0.5-0.2,0.6-0.3s0.3-0.3,0.4-0.6c0.1-0.2,0.2-0.5,0.2-0.8v-0.8c-0.2,0.4-0.5,0.7-0.9,0.9
			C243.3,236.6,242.9,236.7,242.5,236.7z M243,235.3c0.2,0,0.4,0,0.5-0.1c0.2-0.1,0.3-0.1,0.5-0.2s0.3-0.2,0.4-0.4s0.2-0.3,0.3-0.4
			v-1.6c-0.2-0.4-0.4-0.7-0.7-0.9c-0.3-0.2-0.7-0.4-1-0.4c-0.3,0-0.5,0.1-0.7,0.2s-0.4,0.3-0.6,0.5c-0.2,0.2-0.3,0.4-0.4,0.7
			s-0.1,0.5-0.1,0.8c0,0.3,0,0.5,0.1,0.8c0.1,0.2,0.2,0.4,0.4,0.6c0.2,0.2,0.4,0.3,0.6,0.4C242.5,235.3,242.8,235.3,243,235.3z"/>
	</g>
	<g>
		<rect x="197.2" y="272.4" fill="#8CC97F" width="108.7" height="2.7"/>
		<rect x="197.2" y="252.4" fill="#8CC97F" width="108.7" height="2.7"/>
		<rect x="197.2" y="292.4" fill="#8CC97F" width="108.7" height="2.7"/>
	</g>
	<g>
		<rect x="254.9" y="309.4" fill="#8CC97F" width="52.3" height="16.1"/>
		<g>
			<path fill="#FFFFFF" d="M271.9,320c0,0.3-0.1,0.6-0.2,0.9s-0.3,0.5-0.5,0.6c-0.2,0.2-0.5,0.3-0.8,0.4c-0.3,0.1-0.6,0.1-1,0.1
				h-3.7v-7.7h4.1c0.3,0,0.5,0.1,0.7,0.2c0.2,0.1,0.4,0.3,0.6,0.5c0.2,0.2,0.3,0.4,0.4,0.6c0.1,0.2,0.1,0.5,0.1,0.7
				c0,0.4-0.1,0.7-0.3,1.1c-0.2,0.3-0.5,0.6-0.8,0.7c0.4,0.1,0.8,0.4,1.1,0.7C271.8,319,271.9,319.4,271.9,320z M267.2,315.5v2h2
				c0.3,0,0.5-0.1,0.6-0.3c0.2-0.2,0.3-0.4,0.3-0.7c0-0.3-0.1-0.5-0.2-0.7s-0.4-0.3-0.6-0.3H267.2z M270.4,319.7
				c0-0.1,0-0.3-0.1-0.4c0-0.1-0.1-0.2-0.2-0.3c-0.1-0.1-0.2-0.2-0.3-0.2c-0.1-0.1-0.2-0.1-0.4-0.1h-2.3v2h2.2c0.1,0,0.3,0,0.4-0.1
				s0.2-0.1,0.3-0.2c0.1-0.1,0.2-0.2,0.2-0.3C270.4,319.9,270.4,319.8,270.4,319.7z"/>
			<path fill="#FFFFFF" d="M276.4,320.7c0.4,0,0.7-0.1,0.9-0.2c0.2-0.1,0.4-0.3,0.6-0.6c0.1-0.2,0.3-0.5,0.3-0.8
				c0.1-0.3,0.1-0.6,0.1-0.9v-4h1.5v4c0,0.5-0.1,1-0.2,1.5c-0.1,0.5-0.3,0.9-0.6,1.2c-0.3,0.3-0.6,0.6-1.1,0.8
				c-0.4,0.2-0.9,0.3-1.5,0.3c-0.6,0-1.1-0.1-1.6-0.3c-0.4-0.2-0.8-0.5-1.1-0.9c-0.3-0.4-0.5-0.8-0.6-1.2c-0.1-0.5-0.2-0.9-0.2-1.5
				v-4h1.5v4c0,0.3,0,0.6,0.1,0.9c0.1,0.3,0.2,0.6,0.3,0.8c0.1,0.2,0.3,0.4,0.6,0.6C275.7,320.6,276,320.7,276.4,320.7z"/>
			<path fill="#FFFFFF" d="M282,314.2l1.9,3.7l1.9-3.7h1.6l-2.8,5v2.7h-1.5v-2.7l-2.8-5H282z"/>
			<path fill="#FFFFFF" d="M295.2,316.2c0-0.1-0.1-0.1-0.2-0.2s-0.3-0.1-0.4-0.2c-0.2-0.1-0.3-0.1-0.5-0.2c-0.2-0.1-0.4-0.1-0.6-0.1
				v1.9l0.3,0.1c0.4,0.1,0.7,0.2,1,0.3c0.3,0.1,0.6,0.3,0.8,0.4s0.4,0.4,0.5,0.6c0.1,0.2,0.2,0.5,0.2,0.9c0,0.4-0.1,0.7-0.2,1
				c-0.1,0.3-0.3,0.5-0.6,0.7c-0.2,0.2-0.5,0.3-0.8,0.4s-0.7,0.1-1,0.2v1.2h-0.7V322c-0.5,0-1-0.1-1.5-0.3s-0.9-0.4-1.3-0.7l0.7-1.3
				c0.1,0.1,0.2,0.1,0.3,0.2s0.3,0.2,0.5,0.3c0.2,0.1,0.4,0.2,0.7,0.3s0.5,0.1,0.8,0.2v-1.9l-0.4-0.1c-0.4-0.1-0.7-0.2-1-0.3
				c-0.3-0.1-0.5-0.3-0.7-0.4s-0.3-0.3-0.4-0.6s-0.1-0.5-0.1-0.8c0-0.4,0.1-0.7,0.2-1c0.1-0.3,0.3-0.5,0.5-0.7
				c0.2-0.2,0.5-0.4,0.8-0.5s0.6-0.2,1-0.2v-1.1h0.7v1.1c0.5,0,0.9,0.1,1.3,0.3c0.4,0.2,0.8,0.3,1.1,0.6L295.2,316.2z M291.9,316.3
				c0,0.2,0.1,0.4,0.3,0.6c0.2,0.1,0.4,0.2,0.8,0.3v-1.8C292.3,315.5,291.9,315.8,291.9,316.3z M294.6,319.9c0-0.3-0.1-0.5-0.3-0.6
				c-0.2-0.1-0.5-0.3-0.9-0.4v1.8C294.2,320.7,294.6,320.4,294.6,319.9z"/>
		</g>
	</g>
</g>
</svg>
