<?xml version="1.0" encoding="utf-8"?>
<!-- Generator: Adobe Illustrator 18.0.0, SVG Export Plug-In . SVG Version: 6.00 Build 0)  -->
<!DOCTYPE svg PUBLIC "-//W3C//DTD SVG 1.1//EN" "http://www.w3.org/Graphics/SVG/1.1/DTD/svg11.dtd">
<svg version="1.1" id="Layer_1" xmlns="http://www.w3.org/2000/svg" xmlns:xlink="http://www.w3.org/1999/xlink" x="0px" y="0px"
	 viewBox="0 0 500 500" enable-background="new 0 0 500 500" xml:space="preserve">
<rect x="3" y="54.5" fill="#FFFFFF" width="495" height="297.1"/>
<rect x="3" y="-0.4" fill="#D7D7D8" width="495" height="54.9"/>
<path fill="#AAACB2" d="M450,13.3c0,3.8-3.1,6.9-6.9,6.9c-3.8,0-6.9-3.1-6.9-6.9c0-3.8,3.1-6.9,6.9-6.9C446.9,6.5,450,9.5,450,13.3z
	"/>
<path fill="#8CC97F" d="M470.6,13.3c0,3.8-3.1,6.9-6.9,6.9c-3.8,0-6.9-3.1-6.9-6.9c0-3.8,3.1-6.9,6.9-6.9
	C467.5,6.5,470.6,9.5,470.6,13.3z"/>
<path fill="#47B667" d="M491.2,13.3c0,3.8-3.1,6.9-6.9,6.9c-3.8,0-6.9-3.1-6.9-6.9c0-3.8,3.1-6.9,6.9-6.9
	C488.1,6.5,491.2,9.5,491.2,13.3z"/>
<rect x="9.9" y="27" fill="#AAACB2" width="41.2" height="20.6"/>
<rect x="58" y="27" fill="#EFEDED" width="405.7" height="20.6"/>
<rect x="470.6" y="27" fill="#AAACB2" width="20.6" height="20.6"/>
<rect x="3.3" y="108.8" fill="#D7D7D8" width="494.7" height="242.5"/>
<path fill="#D7D7D8" d="M469.3,84.7c-1.4-0.7-0.7-2.1-0.5-2.5c1.6-1.4,2.7-4,2.7-6.6c0-3.9-2.4-6.4-5.3-6.4c-2.9,0-5.3,2.5-5.3,6.4
	c0,2.6,1.1,5.2,2.7,6.6c0.2,0.3,0.9,1.8-0.5,2.5c-5,1.2-8.6,5-8.6,9c0,0,0,0.1,0,0.1c0,0,0,0,0,0.1c0,2.4,5.3,4.6,11.7,4.6
	c6.5,0,11.7-2.2,11.7-4.6c0,0,0,0,0-0.1c0,0,0-0.1,0-0.1C478,89.7,474.3,85.9,469.3,84.7z"/>
<g>
	<path fill="#D7D7D8" d="M26.2,98.6h23.9l0-8.7h8.6l-8.7,8.7h8.7V66L26.2,98.6z M41.9,97.3v-6.2l5.8,0L41.9,97.3z M51.3,87.6v-6.2
		l5.8,0L51.3,87.6z"/>
</g>
<g>
	<path fill="#D7D7D8" d="M416.5,92h11.8h0.1c0.9,0,1.5-0.7,1.6-1.5l2.3-11.8c0.1-0.3-0.2-0.6-0.5-0.6h-18.4L416.5,92z"/>
	<path fill="#D7D7D8" d="M428.3,93h-13.3l-4.2-19h-4.5c-0.5,0-0.9,0.5-0.9,1s0.4,1,0.9,1h3l3.9,17.9c-0.8,0.4-1.4,1.3-1.4,2.2
		c0,1.3,1.1,2.4,2.4,2.4s2.4-1.3,2.4-2.6c0-0.2,0,0.1-0.1-0.9h9.5c-0.1,1-0.1,0.7-0.1,0.9c0,1.3,1.1,2.5,2.4,2.5s2.4-1.4,2.4-2.7
		S429.6,93,428.3,93z"/>
</g>
<g>
	<path fill="#D7D7D8" d="M73.3,97V85.4h5.1c0.5,0,1,0.1,1.5,0.3c0.5,0.2,0.8,0.5,1.2,0.9c0.3,0.4,0.6,0.8,0.8,1.2
		c0.2,0.5,0.3,0.9,0.3,1.4c0,0.8-0.2,1.4-0.6,2.1s-0.9,1.1-1.5,1.3l2.7,4.4h-2.6l-2.4-3.9h-2.2V97H73.3z M75.6,91.2h2.8
		c0.2,0,0.4,0,0.6-0.1s0.3-0.2,0.5-0.4c0.1-0.2,0.2-0.4,0.3-0.6c0.1-0.2,0.1-0.5,0.1-0.7c0-0.3,0-0.5-0.1-0.8
		c-0.1-0.2-0.2-0.4-0.4-0.6c-0.1-0.2-0.3-0.3-0.5-0.4c-0.2-0.1-0.4-0.1-0.6-0.1h-2.7V91.2z"/>
	<path fill="#D7D7D8" d="M84,87.3v-2.2h2.2v2.2H84z M84,97v-8.6h2.2V97H84z"/>
	<path fill="#D7D7D8" d="M91.5,97.2c-0.3,0-0.7,0-1.1-0.1c-0.4-0.1-0.7-0.1-1.1-0.2c-0.4-0.1-0.7-0.2-1-0.4
		c-0.3-0.1-0.6-0.3-0.9-0.5l0.9-1.5c1.1,0.7,2.1,1.1,3.2,1.1c0.5,0,0.8-0.1,1.1-0.2c0.3-0.2,0.4-0.4,0.4-0.7c0-0.3-0.2-0.5-0.5-0.7
		c-0.3-0.1-0.8-0.3-1.6-0.5c-0.6-0.1-1-0.3-1.4-0.4c-0.4-0.1-0.7-0.3-0.9-0.5c-0.2-0.2-0.4-0.4-0.5-0.6c-0.1-0.2-0.2-0.5-0.2-0.9
		c0-0.4,0.1-0.8,0.3-1.2c0.2-0.3,0.4-0.6,0.7-0.9c0.3-0.2,0.7-0.4,1.1-0.6c0.4-0.1,0.9-0.2,1.4-0.2c0.6,0,1.2,0.1,1.8,0.3
		c0.6,0.2,1.2,0.5,1.7,0.8l-0.9,1.4c-0.5-0.3-0.9-0.5-1.4-0.7c-0.4-0.1-0.9-0.2-1.3-0.2c-0.4,0-0.7,0.1-1,0.2
		c-0.3,0.2-0.4,0.4-0.4,0.7c0,0.3,0.1,0.5,0.4,0.6s0.7,0.3,1.4,0.4c0.6,0.2,1.1,0.3,1.6,0.5s0.8,0.3,1.1,0.5s0.5,0.4,0.6,0.7
		c0.1,0.3,0.2,0.6,0.2,0.9c0,0.4-0.1,0.8-0.3,1.1c-0.2,0.3-0.4,0.6-0.7,0.9c-0.3,0.2-0.7,0.4-1.1,0.5C92.6,97.1,92.1,97.2,91.5,97.2
		z"/>
	<path fill="#D7D7D8" d="M100.5,97.2c-0.7,0-1.3-0.1-1.9-0.4c-0.6-0.2-1-0.6-1.4-1c-0.4-0.4-0.7-0.9-0.9-1.4
		c-0.2-0.5-0.3-1.1-0.3-1.7c0-0.6,0.1-1.2,0.3-1.7c0.2-0.5,0.5-1,0.9-1.4c0.4-0.4,0.9-0.7,1.4-1c0.6-0.2,1.2-0.4,1.9-0.4
		c0.7,0,1.3,0.1,1.9,0.4c0.6,0.2,1,0.6,1.4,1c0.4,0.4,0.7,0.9,0.9,1.4c0.2,0.5,0.3,1.1,0.3,1.7c0,0.1,0,0.3,0,0.4c0,0.1,0,0.2,0,0.3
		h-6.6c0,0.3,0.1,0.6,0.2,0.9c0.1,0.3,0.3,0.5,0.5,0.7c0.2,0.2,0.4,0.3,0.7,0.4c0.3,0.1,0.5,0.1,0.8,0.1c0.4,0,0.8-0.1,1.2-0.3
		s0.7-0.5,0.8-0.8l1.9,0.5c-0.3,0.7-0.8,1.2-1.5,1.6C102.2,97,101.4,97.2,100.5,97.2z M102.7,92c-0.1-0.6-0.3-1.2-0.7-1.5
		c-0.4-0.4-0.9-0.6-1.5-0.6c-0.3,0-0.6,0.1-0.8,0.2c-0.3,0.1-0.5,0.2-0.7,0.4c-0.2,0.2-0.4,0.4-0.5,0.7c-0.1,0.3-0.2,0.6-0.2,0.9
		H102.7z"/>
	<path fill="#D7D7D8" d="M117.4,88.5c-0.1-0.1-0.2-0.2-0.4-0.3c-0.2-0.1-0.4-0.3-0.7-0.4c-0.3-0.1-0.6-0.2-0.9-0.3s-0.7-0.1-1-0.1
		c-0.6,0-1.1,0.1-1.4,0.3c-0.3,0.2-0.5,0.6-0.5,1c0,0.2,0.1,0.4,0.2,0.6c0.1,0.2,0.3,0.3,0.5,0.4s0.5,0.2,0.8,0.3s0.7,0.2,1.2,0.3
		c0.6,0.2,1.1,0.3,1.5,0.5c0.5,0.2,0.9,0.4,1.2,0.7c0.3,0.3,0.6,0.6,0.7,0.9c0.2,0.4,0.3,0.8,0.3,1.4c0,0.6-0.1,1.2-0.4,1.6
		c-0.2,0.4-0.5,0.8-0.9,1.1c-0.4,0.3-0.9,0.5-1.4,0.6c-0.5,0.1-1.1,0.2-1.6,0.2c-0.9,0-1.7-0.1-2.6-0.4c-0.9-0.3-1.6-0.6-2.3-1.1
		l1-1.9c0.1,0.1,0.3,0.2,0.5,0.4c0.3,0.2,0.6,0.3,0.9,0.5c0.3,0.2,0.7,0.3,1.2,0.4c0.4,0.1,0.9,0.2,1.3,0.2c1.2,0,1.9-0.4,1.9-1.2
		c0-0.3-0.1-0.5-0.2-0.7c-0.1-0.2-0.3-0.3-0.6-0.5c-0.3-0.1-0.6-0.3-0.9-0.4c-0.4-0.1-0.8-0.2-1.2-0.3c-0.6-0.2-1-0.3-1.4-0.5
		s-0.8-0.4-1-0.6c-0.3-0.2-0.5-0.5-0.6-0.9c-0.1-0.3-0.2-0.7-0.2-1.2c0-0.6,0.1-1.1,0.3-1.6s0.5-0.8,0.9-1.1
		c0.4-0.3,0.8-0.5,1.4-0.7c0.5-0.2,1.1-0.2,1.7-0.2c0.8,0,1.6,0.1,2.3,0.4s1.3,0.6,1.8,0.9L117.4,88.5z"/>
	<path fill="#D7D7D8" d="M125.2,96.6c-0.3,0.1-0.7,0.3-1.1,0.4c-0.4,0.1-0.9,0.2-1.4,0.2c-0.3,0-0.6,0-0.9-0.1
		c-0.3-0.1-0.5-0.2-0.7-0.4c-0.2-0.2-0.4-0.4-0.5-0.7s-0.2-0.6-0.2-1v-4.9h-1.1v-1.7h1.1v-2.8h2.2v2.8h1.8v1.7h-1.8v4.2
		c0,0.3,0.1,0.5,0.2,0.6c0.2,0.1,0.4,0.2,0.6,0.2s0.5,0,0.7-0.1c0.2-0.1,0.4-0.1,0.5-0.2L125.2,96.6z"/>
	<path fill="#D7D7D8" d="M130.1,97.2c-0.7,0-1.3-0.1-1.9-0.4c-0.6-0.2-1-0.6-1.4-1c-0.4-0.4-0.7-0.9-0.9-1.4
		c-0.2-0.5-0.3-1.1-0.3-1.7c0-0.6,0.1-1.2,0.3-1.7c0.2-0.5,0.5-1,0.9-1.4c0.4-0.4,0.9-0.7,1.4-1c0.6-0.2,1.2-0.4,1.9-0.4
		c0.7,0,1.3,0.1,1.9,0.4c0.6,0.2,1,0.6,1.4,1c0.4,0.4,0.7,0.9,0.9,1.4s0.3,1.1,0.3,1.7c0,0.6-0.1,1.2-0.3,1.7s-0.5,1-0.9,1.4
		c-0.4,0.4-0.9,0.7-1.4,1C131.5,97.1,130.8,97.2,130.1,97.2z M127.9,92.8c0,0.4,0.1,0.7,0.2,1c0.1,0.3,0.3,0.6,0.5,0.8
		c0.2,0.2,0.4,0.4,0.7,0.5s0.6,0.2,0.9,0.2c0.3,0,0.6-0.1,0.9-0.2s0.5-0.3,0.7-0.5c0.2-0.2,0.4-0.5,0.5-0.8s0.2-0.7,0.2-1
		c0-0.4-0.1-0.7-0.2-1s-0.3-0.6-0.5-0.8c-0.2-0.2-0.4-0.4-0.7-0.5s-0.6-0.2-0.9-0.2c-0.3,0-0.6,0.1-0.9,0.2
		c-0.3,0.1-0.5,0.3-0.7,0.5c-0.2,0.2-0.4,0.5-0.5,0.8C128,92,127.9,92.4,127.9,92.8z"/>
	<path fill="#D7D7D8" d="M141.2,90.4c-0.7,0-1.3,0.1-1.8,0.4s-0.9,0.6-1.1,1.1V97h-2.2v-8.6h2v1.8c0.3-0.6,0.7-1.1,1.2-1.4
		c0.5-0.4,1-0.5,1.5-0.5c0.1,0,0.2,0,0.3,0c0.1,0,0.1,0,0.2,0V90.4z"/>
	<path fill="#D7D7D8" d="M146.4,97.2c-0.7,0-1.3-0.1-1.9-0.4c-0.6-0.2-1-0.6-1.4-1c-0.4-0.4-0.7-0.9-0.9-1.4
		c-0.2-0.5-0.3-1.1-0.3-1.7c0-0.6,0.1-1.2,0.3-1.7c0.2-0.5,0.5-1,0.9-1.4c0.4-0.4,0.9-0.7,1.4-1c0.6-0.2,1.2-0.4,1.9-0.4
		c0.7,0,1.3,0.1,1.9,0.4c0.6,0.2,1,0.6,1.4,1c0.4,0.4,0.7,0.9,0.9,1.4c0.2,0.5,0.3,1.1,0.3,1.7c0,0.1,0,0.3,0,0.4c0,0.1,0,0.2,0,0.3
		h-6.6c0,0.3,0.1,0.6,0.2,0.9c0.1,0.3,0.3,0.5,0.5,0.7c0.2,0.2,0.4,0.3,0.7,0.4c0.3,0.1,0.5,0.1,0.8,0.1c0.4,0,0.8-0.1,1.2-0.3
		s0.7-0.5,0.8-0.8l1.9,0.5c-0.3,0.7-0.8,1.2-1.5,1.6C148.2,97,147.4,97.2,146.4,97.2z M148.6,92c-0.1-0.6-0.3-1.2-0.7-1.5
		c-0.4-0.4-0.9-0.6-1.5-0.6c-0.3,0-0.6,0.1-0.8,0.2c-0.3,0.1-0.5,0.2-0.7,0.4c-0.2,0.2-0.4,0.4-0.5,0.7c-0.1,0.3-0.2,0.6-0.2,0.9
		H148.6z"/>
</g>
</svg>
