<?xml version="1.0" encoding="utf-8"?>
<!-- Generator: Adobe Illustrator 18.0.0, SVG Export Plug-In . SVG Version: 6.00 Build 0)  -->
<!DOCTYPE svg PUBLIC "-//W3C//DTD SVG 1.1//EN" "http://www.w3.org/Graphics/SVG/1.1/DTD/svg11.dtd">
<svg version="1.1" id="Layer_1" xmlns="http://www.w3.org/2000/svg" xmlns:xlink="http://www.w3.org/1999/xlink" x="0px" y="0px"
	 viewBox="0 0 500 500" enable-background="new 0 0 500 500" xml:space="preserve">
<g>
	<g>
		<path fill="#FFFFFF" d="M132.3,409.5c0.2-2.4,0.2-4.9,0.6-7.3c0.6-3.3,1.2-6.6,2.5-9.7c2.8-7.1,8.1-11.4,15.6-12.9
			c7-1.4,13.9-1,20.7,0.8c3.7,1,3.7,1.1,2.8,4.7c-0.4,1.8-0.9,3.6-1.3,5.4c-0.3,1.4-0.9,1.6-2.2,1.2c-4.6-1.5-9.3-1.7-14-1.1
			c-5.3,0.7-8.9,3.6-10.4,8.7c-2,6.6-1.9,13.2,0.1,19.7c1.7,5.5,5.5,8.2,11.2,8.2c1.9,0,3.9-0.2,5.8-0.3c0.9,0,1.2-0.4,1.2-1.3
			c0-3.1,0-6.1,0-9.2c0-1-0.4-1.2-1.3-1.2c-1.9,0-3.7,0-5.6,0c-1.1,0-1.6-0.3-1.6-1.5c0.1-2.6,0.1-5.3,0-7.9c0-1.1,0.4-1.5,1.5-1.5
			c6,0,12,0,18,0c1.2,0,1.6,0.5,1.6,1.7c0,9,0,17.9,0,26.9c0,1.1-0.4,1.6-1.3,2c-6,3.1-12.3,4.2-19,3.6c-3.5-0.3-7.1-0.9-10.4-2.1
			c-7.8-2.8-11.8-8.9-13.4-16.7c-0.6-2.8-0.7-5.7-1-8.5c-0.1-0.6-0.1-1.1-0.2-1.7C132.3,409.7,132.3,409.6,132.3,409.5z"/>
		<path fill="#FFFFFF" d="M265.8,402.1c0-6.3,0-12.4,0-18.6c0-2.5,0-2.5,2.5-2.5c2.8,0,5.7,0,8.5,0c1.2,0,1.7,0.3,1.7,1.6
			c0,17.9,0,35.8,0,53.7c0,1.1-0.4,1.6-1.5,1.6c-3.1-0.1-6.2-0.1-9.4,0c-1.3,0-1.8-0.4-1.8-1.8c0.1-6.9,0-13.8,0-20.8
			c0-0.6,0-1.2,0-1.8c-0.6,0-1-0.1-1.4-0.1c-5.2,0-10.4,0-15.6,0c-1.1,0-1.5,0.3-1.5,1.5c0.1,7,0,14,0,21.1c0,1.9,0,2-2,2
			c-3,0-6,0-9.1,0c-1.1,0-1.6-0.4-1.6-1.5c0-17.9,0-35.9,0-53.8c0-1.1,0.4-1.5,1.5-1.5c3.2,0,6.4,0,9.7,0c1.2,0,1.5,0.5,1.5,1.6
			c0,5.9,0,11.8,0,17.7c0,0.6,0,1.1,0,1.8C253.5,402.1,259.6,402.1,265.8,402.1z"/>
		<path fill="#FFFFFF" d="M337.5,435c0,0.4-0.1,0.6-0.1,0.8c-0.1,1.5-0.7,2.1-2.3,2c-1.9-0.1-3.8-0.1-5.7,0c-1.1,0-1.6-0.4-1.6-1.5
			c0-3,0-6,0-9.1c0-14.7,0-29.4,0-44.1c0-2,0-2,2.1-2c2.9,0,5.8,0.1,8.8,0c1.4,0,1.9,0.4,1.9,1.8c-0.1,5.3,0,10.5,0,15.8
			c0,0.5,0,1.1,0,1.8c0.6-0.2,0.9-0.4,1.3-0.6c3.8-1.7,7.8-2.3,12-1.8c5.9,0.8,9.9,4.6,11.3,11c1.5,6.7,1.3,13.4-0.6,20
			c-1.9,6.8-6.7,10-14.4,9.8C345.7,438.8,343.7,438.2,337.5,435z M353.7,418.1c-0.3-1.8-0.5-4-1.1-6.1c-0.8-2.8-2.7-4.2-5.5-4
			c-2,0.1-3.9,0.8-5.8,1.2c-0.8,0.2-1.1,0.8-1.1,1.6c0,5.1,0,10.2,0,15.4c0,0.8,0.2,1.2,1,1.6c2.2,0.9,4.5,1.4,6.8,1.2
			c2.9-0.3,4.3-1.4,4.8-4.2C353.3,422.6,353.4,420.5,353.7,418.1z"/>
		<path fill="#FFFFFF" d="M312.5,435.2c-4.4,2.5-9,4-13.9,3.7c-2.2-0.1-4.5-0.4-6.6-1.1c-5-1.6-7-5.7-7.1-10.5
			c-0.2-9-0.1-17.9-0.1-26.9c0-0.4,0.7-1.1,1.1-1.1c3.5-0.1,6.9,0,10.4-0.1c1,0,1.2,0.6,1.2,1.4c0,2.1,0,4.2,0,6.3
			c0,5.5,0,10.9,0,16.4c0,4.7,1.7,6.2,6.5,5.6c0.3,0,0.7-0.1,1-0.1c3.8-0.8,4.1-1.2,4.1-5c0-7.5,0-15,0-22.5c0-2,0-2,1.9-2
			c3,0,6,0,9.1,0c1.1,0,1.6,0.3,1.6,1.5c0,11.9,0,23.8,0,35.7c0,1.2-0.5,1.5-1.6,1.5c-1.7,0-3.4-0.1-5.1,0c-1.4,0.1-2.2-0.3-2.2-1.8
			C312.7,435.9,312.6,435.6,312.5,435.2z"/>
		<path fill="#FFFFFF" d="M207.3,409.2c-1.7,0-3.3-0.1-4.8,0c-1.4,0.1-1.8-0.5-1.7-1.8c0.1-1.7,0.1-3.4,0-5.1c0-1,0.3-1.5,1.3-1.7
			c1.4-0.2,2.8-0.7,4.3-1c0.8-0.2,1-0.5,1-1.3c0-2.8,0.1-5.7,0-8.5c0-1.4,0.3-1.9,1.8-1.8c3,0.1,6,0.1,9.1,0c1.3,0,1.7,0.3,1.7,1.6
			c-0.1,3.1,0,6.1,0,9.4c2.5,0,4.8,0,7.1,0c1.8,0,1.9,0.1,1.9,1.9c0,2.2,0,4.4,0,6.6c0,1.2-0.4,1.8-1.7,1.7c-2.4-0.1-4.8,0-7.3,0
			c0,0.5-0.1,0.9-0.1,1.3c0,4.6,0,9.3,0,13.9c0,2.7,1.3,4.1,4,4.4c1.3,0.1,2.5,0,3.8,0c0.9,0,1.3,0.3,1.3,1.3c0,2.2,0,4.4-0.1,6.6
			c0,0.5-0.5,1.2-1,1.3c-4.5,1.2-9,1.4-13.4-0.2c-4.7-1.6-7.1-5.6-7.2-11.6c-0.1-5,0-10,0-15.1C207.3,410.5,207.3,410,207.3,409.2z"
			/>
		<path fill="#FFFFFF" d="M197,418.4c0,5.6,0,11.2,0,16.8c0,2.6,0,2.6-2.6,2.6c-2.6,0-5.3,0-7.9,0c-1.8,0-2.2-0.3-2.2-2.1
			c0-11.6,0-23.2,0-34.8c0-1.4,0.4-1.9,1.8-1.9c3,0.1,6,0.1,9.1,0c1.4,0,1.8,0.5,1.7,1.8C197,406.7,197,412.5,197,418.4z"/>
		<path fill="#FFFFFF" d="M197.5,389.1c0,3.8-3.1,6.8-6.9,6.8c-3.8,0-7.1-3.2-7-6.9c0.1-3.7,3.2-6.8,7-6.7
			C194.5,382.3,197.5,385.3,197.5,389.1z"/>
	</g>
	<g>
		<path fill="#FFFFFF" d="M277.7,279.4c6.7-1.3,12.9-2.3,19-3.8c18.2-4.6,33.5-13.6,41.9-31.1c8.5-17.8,10.5-36.5,6.2-55.8
			c-1.9-8.5-6.1-16-11.7-22.6c-1.3-1.5-1.8-2.7-1.1-4.8c3.7-11.9,2.6-23.6-1.4-35.2c-0.7-2.1-1.9-2.8-4-2.7
			c-7.3,0.2-14,2.4-20.5,5.5c-5.4,2.6-10.5,5.9-15.9,8.6c-1.5,0.8-3.6,1.3-5.2,0.9c-23.7-5.7-47.3-5.7-71,0c-1.5,0.4-3.6,0-4.9-0.8
			c-10-6.1-20.2-11.9-32-13.9c-7.1-1.2-7.8-0.8-9.7,5.9c-3.1,10.7-3.6,21.4-0.3,32.1c0.3,1,0.1,2.7-0.6,3.5
			c-13.6,15.8-16.2,34.3-13.4,54.1c0.8,5.6,2,11.2,3.7,16.6c7.2,22,23.4,34.1,45.2,39.7c6.2,1.6,12.5,2.6,19.1,3.9
			c-5,5.3-7.6,11.6-8.9,18.4c-0.2,0.8-1.1,1.8-2,2.2c-15.8,6.1-31.8,4.2-42-12.4c-4.9-8-11.4-14.1-20.9-16c-2.4-0.5-5.1-0.3-7.5,0.2
			c-2.8,0.6-3.2,2.3-1.3,4.5c1.1,1.3,2.4,2.5,3.8,3.3c8.2,4.9,13.4,12.2,16.9,20.7c5.8,14.3,17,20.6,31.5,21.5
			c6.8,0.4,13.6-0.5,20.8-0.8c0,9.3,0.2,19-0.1,28.6c-0.2,5.1-5.3,7.6-11,5.7c-12.9-4.2-25.1-10-36.3-17.8
			c-46.1-32.4-69.4-76.9-66.8-133.3c3.2-70,54.2-127.1,123.4-140.5C299.6,48.5,376.8,97,397.3,174.7c20,75.7-23.7,156.1-98,180.6
			c-7.4,2.4-11.8-0.7-11.8-8.4c0-12.3,0-24.6,0.1-37C287.6,298.8,286,288.2,277.7,279.4z"/>
		<path fill="#FFFFFF" d="M195.6,304.9c1.4,1.4,2.4,2.3,3.3,3.1c-1.1,0.7-2.2,2-3.3,2.1c-0.9,0.1-2-1.2-3-1.9
			C193.4,307.3,194.3,306.4,195.6,304.9z"/>
		<path fill="#FFFFFF" d="M173.4,303.8c-1.5-2.1-2.5-3.3-3.3-4.7c-0.1-0.2,1.7-1.7,1.9-1.6c1.2,0.9,2.4,2,3.3,3.2
			C175.5,301,174.5,302.1,173.4,303.8z"/>
		<path fill="#FFFFFF" d="M183.4,309.2c-1.3-1.4-2.2-2.4-3.2-3.5c0.9-0.6,2-1.9,2.6-1.7c1.3,0.5,2.4,1.8,3.6,2.7
			C185.6,307.4,184.7,308.1,183.4,309.2z"/>
		<path fill="#FFFFFF" d="M207.4,303.5c1.4,1.3,2.2,2.1,3.1,2.9c-1.2,0.8-2.2,2.1-3.5,2.4c-0.7,0.2-1.8-1.1-2.8-1.7
			C205.1,306,206.1,305,207.4,303.5z"/>
		<path fill="#FFFFFF" d="M168.3,291.8c-1.2,1-2.2,2.1-2.3,2c-1.1-0.8-2.2-1.8-3-2.9c-0.2-0.2,1-1.4,1.5-2.1
			C165.6,289.6,166.7,290.5,168.3,291.8z"/>
		<path fill="#FFFFFF" d="M159.8,286.1c-1.2-1.4-2.1-2.3-2.7-3.3c-0.2-0.4,0.7-1.2,1.1-1.9c1,0.9,2.1,1.7,2.9,2.7
			C161.3,283.8,160.5,284.8,159.8,286.1z"/>
	</g>
</g>
</svg>
