<?xml version="1.0" encoding="utf-8"?>
<!-- Generator: Adobe Illustrator 18.0.0, SVG Export Plug-In . SVG Version: 6.00 Build 0)  -->
<!DOCTYPE svg PUBLIC "-//W3C//DTD SVG 1.1//EN" "http://www.w3.org/Graphics/SVG/1.1/DTD/svg11.dtd">
<svg version="1.1" id="Layer_1" xmlns="http://www.w3.org/2000/svg" xmlns:xlink="http://www.w3.org/1999/xlink" x="0px" y="0px"
	 viewBox="0 0 500 500" enable-background="new 0 0 500 500" xml:space="preserve">
<g>
	<path fill="#FFFFFF" d="M372.5,200.8c-0.5,52.8-32.2,100.1-81,120.1c-7.1,2.9-8,2.6-10.7-4.6c-8.9-23.8-17.8-47.6-26.8-71.3
		c-2-5.3-1.6-6.2,3.6-8.6c15.6-7.2,25.3-23.5,23.3-39.3c-2.2-17.7-14.5-31.4-31.3-34.8c-19.4-3.9-38.8,7.5-45,26.5
		c-6,18.5,2.8,38.8,20.7,47.1c6.4,3,6.5,3.4,4,10.1c-8.9,23.8-17.8,47.6-26.8,71.3c-2.1,5.6-3.6,6.4-9,4.1
		c-44.7-19.3-72.5-52.7-80.1-101C103,152.9,145.4,90.2,211.2,74.1c73.8-18.1,147.3,30.8,159.3,106
		C371.5,186.9,371.9,193.9,372.5,200.8z"/>
	<path fill="#FFFFFF" d="M82.4,349.7c3.2,1.1,7.5-2.3,8.5,2.4c4.9-0.7,9.8-2.3,14.4-1.8c8.9,0.9,14.5,7.9,14.7,16.9
		c0.1,4.2,0.1,8.3,0,12.5c-0.3,13.8-13.3,21.5-25.6,15.3c-0.7-0.4-1.4-0.6-2.7-1.1c0,9.1,0,17.8,0,26.7c-3.3,0-6.2,0-9.3,0
		C82.4,397.2,82.4,373.8,82.4,349.7z M91.7,373.3C91.7,373.3,91.7,373.3,91.7,373.3c0,2.2-0.2,4.4,0,6.6c0.4,4.9,4.2,8.5,9,8.7
		c4.8,0.2,9-3.1,9.4-8.1c0.4-4.7,0.4-9.4,0-14.1c-0.4-4.7-4.6-8.1-9.1-8c-4.5,0-8.8,3.9-9.2,8.6C91.6,369.1,91.7,371.2,91.7,373.3z"
		/>
	<path fill="#FFFFFF" d="M160.4,386.9c-3.6,9-11.8,12.9-22,11.2c-8.8-1.5-14.5-7.9-14.8-17c-0.2-4.9-0.2-9.7,0-14.6
		c0.4-10.2,9-17.8,19.5-17.6c10.3,0.2,18.4,8,18.5,18.1c0,2.5,0,5,0,8.1c-9.4,0-18.6,0-27.9,0c-0.8,4.4-0.8,8.1,1.7,11.2
		c3.2,4,9.1,4.5,12.6,1.3c1.5-1.4,3-4.2,4.3-4.1C155,383.8,157.6,385.6,160.4,386.9z M151.6,367.5c0.2-5.8-3.8-10.1-9-10
		c-5.2,0-9.2,4.3-9,10C139.5,367.5,145.4,367.5,151.6,367.5z"/>
	<path fill="#FFFFFF" d="M76.8,373.4c0,3,0.2,6.1,0,9.1c-1,10.6-8.8,16.4-21,15.7c-9.9-0.5-16.6-7.6-16.7-17.6c0-4,0.3-8.1-0.1-12.1
		c-1-13.3,8.8-21.6,23.4-19.3c8.3,1.3,13.5,7.1,14.3,15.5C77.1,367.6,76.8,370.5,76.8,373.4z M67.3,373.6
		C67.3,373.6,67.3,373.6,67.3,373.6c0-2.5,0.2-5-0.1-7.5c-0.4-5-4.7-8.8-9.4-8.7c-4.6,0.1-8.7,3.8-9,8.7c-0.3,5-0.3,10,0,15
		c0.3,5.1,4.6,8.8,9.4,8.7c4.8-0.1,8.8-4.1,9.1-9.1C67.5,378.3,67.3,376,67.3,373.6z"/>
	<path fill="#FFFFFF" d="M203.4,397.1c-2.9,0-5.7,0-9.1,0c0-7.7,0-15.1,0-22.6c0-1.7,0-3.3,0-5c-0.1-6.4-4-11.1-9.4-11
		c-5.5,0.1-9.3,4.5-9.3,11.1c-0.1,7.6,0,15.3,0,22.9c0,1.5-0.1,3-0.2,4.6c-3.2,0-6.1,0-9.2,0c0-15.7,0-31.2,0-47.2
		c3.2,1.1,7.5-2.7,8.9,3.7c5.2-3.4,10.6-4.6,16.4-2.9c6.2,1.9,11.3,5.8,11.7,12.2C204,374.1,203.4,385.5,203.4,397.1z"/>
	<path fill="#FFFFFF" d="M449.7,374.4c-9.8,0-19.2,0-29.4,0c0.2,3.6-0.1,7,0.7,10.1c2,7.4,12,11.1,18.5,3.6c2.1-2.4,5.6-2.5,7.1,0.2
		c0.6,1.1-0.5,4.3-1.8,5.3c-6.7,5.6-14.4,6.2-22.3,3c-7.2-2.9-9.6-9.1-9.6-16.5c0-4.2-0.1-8.3,0-12.5c0.2-10.4,8.1-17.9,18.5-17.8
		c10.4,0.1,18.1,7.8,18.2,18.1C449.7,369.9,449.7,371.9,449.7,374.4z M442.1,369c0.8-5.4-1.2-9.1-5.4-11.6c-3.9-2.3-8-2.1-11.8,0.6
		c-3.8,2.6-5.1,6.3-4.3,11C427.8,369,434.8,369,442.1,369z"/>
	<path fill="#FFFFFF" d="M300.5,374.2c0,2.5,0.1,5,0,7.5c-0.3,9.7-7.1,16.3-17.2,16.5c-11.7,0.2-18.9-5.6-19.4-15.9
		c-0.3-5.5-0.3-11.1,0-16.7c0.5-10,7.7-16.1,18.6-15.9c10.8,0.1,17.8,6.5,18,16.6C300.5,369,300.5,371.6,300.5,374.2z M271.1,373.6
		c0,2.6-0.1,5.3,0,7.9c0.2,5.6,4.6,10.2,10.3,10.7c5.2,0.4,10.8-3.5,11.3-8.9c0.6-6.2,0.6-12.5,0-18.6c-0.5-5.4-6.1-9.2-11.4-8.8
		c-5.7,0.5-10,4.9-10.1,10.7C271.1,368.9,271.1,371.3,271.1,373.6z"/>
	<path fill="#FFFFFF" d="M306.1,350.9c2.2,0,4.1,0,6.6,0c0.1,1.5,0.2,2.9,0.2,4.4c0,7.9,0,15.8,0,23.8c0.1,7.1,4.7,12.1,11,12.1
		c6.4,0,11.2-4.9,11.3-11.9c0.1-9.3,0-18.6,0-28.2c2.4,0,4.5,0,6.9,0c0,15.3,0,30.5,0,46c-2,0-3.7,0-5.6,0c-0.2-2.1-0.3-4-0.5-6.6
		c-1.2,0.9-2.1,1.3-2.7,2.1c-4.4,5.2-10,5.8-15.9,3.9c-6.2-1.9-10.7-6.2-11.1-12.7C305.7,372.9,306.1,362.1,306.1,350.9z"/>
	<path fill="#FFFFFF" d="M241.3,398.9c-6.1-0.3-11.6-1.5-15.9-5.8c-1-1-1.7-4.2-1.2-4.6c1.8-1.3,4-3.7,6.4-0.5
		c3.7,4.9,8.9,5.2,14.3,4.4c3.6-0.6,6.6-2.3,7.1-6.5c0.5-4.2-2.3-6.1-5.7-7.1c-4.5-1.3-9.2-2.3-13.7-3.5c-4.8-1.3-8.8-3.5-9.3-9.2
		c-0.6-6,1.9-11.2,6.9-14.1c6.8-3.9,19.8-2.9,25.7,2.2c1.6,1.3,4.3,3,2,5.3c-1.8,1.8-4.3,3.1-7.1,0c-3.7-4.2-11.6-5.5-16.5-2.9
		c-1.8,0.9-3.7,3.4-3.8,5.2c-0.1,1.9,1.5,4.6,3.1,5.6c2.5,1.6,5.7,2.1,8.6,2.9c2.5,0.7,5.1,1.2,7.7,2c5,1.4,9.1,3.7,9.6,9.6
		c0.5,6.4-2.3,12.1-7.8,14.4C248.4,397.7,244.7,398.1,241.3,398.9z"/>
	<path fill="#FFFFFF" d="M382.1,374.2c0,2.2,0,4.4,0,6.7c0.1,4.9,2.5,8.5,7,10.4c4.5,1.9,8.3,0.6,11.7-2.8c1.1-1.1,2.9-2.3,4.3-2.2
		c1.5,0.2,3.8,1.6,4.1,2.8c0.3,1.3-1.2,3.4-2.4,4.4c-6.8,5.5-14.5,6.1-22.3,3c-7.3-2.9-9.6-9.2-9.6-16.5c0-5.3-0.3-10.6,0.4-15.8
		c1.4-10.9,11.2-16.9,23-14c3.5,0.9,6.7,3.1,9.7,5.2c0.9,0.6,1.3,3.8,0.9,4c-2,1-3.8,3.8-6.6,1.4c-0.8-0.7-1.6-1.5-2.4-2.3
		c-3.2-2.9-6.8-3.6-10.8-1.9c-4.1,1.7-6.4,4.8-6.8,9.2C381.9,368.7,382.1,371.5,382.1,374.2C382.1,374.2,382.1,374.2,382.1,374.2z"
		/>
	<path fill="#FFFFFF" d="M358.9,397.1c-2.4,0-4.4,0-6.7,0c0-15.4,0-30.6,0-46.1c1.8,0,3.5,0,5.6,0c0.2,2.3,0.4,4.5,0.7,7.9
		c5-4.7,9.1-10.2,16.6-7.6c0,2.1,0,4.2,0,6.9c-1.2,0-2.4,0-3.6,0c-7.6-0.2-12.1,3.9-12.3,11.5c-0.2,7.9,0,15.8-0.1,23.7
		C359.1,394.5,359,395.6,358.9,397.1z"/>
</g>
</svg>
