<?xml version="1.0" encoding="utf-8"?>
<!-- Generator: Adobe Illustrator 18.0.0, SVG Export Plug-In . SVG Version: 6.00 Build 0)  -->
<!DOCTYPE svg PUBLIC "-//W3C//DTD SVG 1.1//EN" "http://www.w3.org/Graphics/SVG/1.1/DTD/svg11.dtd">
<svg version="1.1" id="Layer_1" xmlns="http://www.w3.org/2000/svg" xmlns:xlink="http://www.w3.org/1999/xlink" x="0px" y="0px"
	 viewBox="0 0 500 500" enable-background="new 0 0 500 500" xml:space="preserve">
<g>
	<rect x="26.4" y="129.4" fill="#FFFFFF" width="132.6" height="202.9"/>
	<rect x="26.5" y="128.5" fill="#8CC97F" width="132.5" height="88.5"/>
	<g>
		<g>
			<path fill="#FFFFFF" d="M112.6,195.8c0,0.7-0.1,1.7-0.4,2.8c-0.3,1.2-0.5,2.1-0.8,2.7c-0.6,1.3-2.2,2.7-4.9,4.2
				c-2.5,1.4-5,2-7.4,2c-0.7,0-1.4,0-2.1-0.1c-0.7-0.1-1.4-0.3-2.3-0.5c-0.9-0.2-1.5-0.4-1.9-0.6s-1.1-0.4-2.2-0.8
				c-1.1-0.4-1.7-0.6-2-0.7c-2.6-0.9-4.9-2-7-3.3c-3.4-2.1-6.9-5-10.5-8.6c-3.6-3.6-6.5-7.1-8.6-10.5c-1.3-2-2.4-4.4-3.3-7
				c-0.1-0.2-0.3-0.9-0.7-2c-0.4-1.1-0.7-1.8-0.8-2.2c-0.1-0.4-0.3-1-0.6-1.9c-0.2-0.9-0.4-1.6-0.5-2.3c-0.1-0.7-0.1-1.4-0.1-2.1
				c0-2.4,0.7-4.9,2-7.4c1.5-2.7,2.9-4.3,4.2-4.9c0.7-0.3,1.6-0.6,2.7-0.8c1.2-0.3,2.1-0.4,2.8-0.4c0.4,0,0.6,0,0.8,0.1
				c0.5,0.2,1.2,1.2,2.1,3c0.3,0.5,0.7,1.2,1.2,2.2c0.5,0.9,1,1.8,1.4,2.5c0.4,0.8,0.8,1.5,1.2,2.1c0.1,0.1,0.3,0.4,0.7,1
				c0.4,0.6,0.7,1,0.9,1.4c0.2,0.4,0.3,0.8,0.3,1.1c0,0.5-0.4,1.2-1.1,2c-0.8,0.8-1.6,1.5-2.5,2.2c-0.9,0.7-1.7,1.4-2.5,2.1
				c-0.8,0.7-1.1,1.4-1.1,1.8c0,0.2,0.1,0.5,0.2,0.9c0.1,0.4,0.2,0.6,0.3,0.8c0.1,0.2,0.3,0.5,0.6,1c0.3,0.5,0.4,0.7,0.5,0.8
				c2,3.6,4.3,6.8,6.9,9.4c2.6,2.6,5.7,4.9,9.4,6.9c0.1,0,0.3,0.2,0.8,0.5s0.8,0.5,1,0.6c0.2,0.1,0.5,0.2,0.8,0.3
				c0.4,0.1,0.7,0.2,0.9,0.2c0.5,0,1.1-0.4,1.8-1.1c0.7-0.8,1.4-1.6,2.1-2.5c0.7-0.9,1.4-1.7,2.2-2.5c0.8-0.8,1.5-1.1,2-1.1
				c0.4,0,0.8,0.1,1.1,0.3c0.4,0.2,0.9,0.5,1.4,0.9c0.6,0.4,0.9,0.6,1,0.7c0.7,0.4,1.4,0.8,2.1,1.2c0.8,0.4,1.6,0.9,2.5,1.4
				c0.9,0.5,1.6,0.9,2.2,1.2c1.9,0.9,2.9,1.6,3,2.1C112.5,195.1,112.6,195.4,112.6,195.8z"/>
		</g>
		<path fill="#FFFFFF" d="M108.9,138.1c-10.5,0-19,8.5-19,19c0,10.5,8.5,19,19,19s19-8.5,19-19C127.9,146.6,119.4,138.1,108.9,138.1
			z M118.4,154.4c-0.2,0.7-0.5,1.2-0.7,1.6c-0.3,0.4-0.7,0.8-1.2,1.3c-0.5,0.4-0.9,0.7-1.2,0.9c-0.3,0.2-0.7,0.4-1.3,0.8
			c-0.6,0.3-1.1,0.8-1.5,1.3c-0.4,0.5-0.5,1.8-1.4,1.8h-5.1c-0.2,0-1,0.1-1-0.5v-1c0-1.2,0.5-2.3,1.5-3.4c0.9-1,2-1.8,3.1-2.3
			c0.9-0.4,1.5-0.8,1.8-1.2c0.4-0.4,0.5-1,0.5-1.6c0-0.6-0.3-1.1-1-1.6c-0.7-0.5-1.4-0.7-2.3-0.7c-0.9,0-1.7,0.2-2.3,0.6
			c-0.6,0.4-1.4,1.3-2.3,2.5c-0.2,0.2-0.4,0.3-0.7,0.3c-0.2,0-0.4-0.1-0.5-0.2l-3.5-2.7c-0.4-0.3-0.5-0.7-0.2-1.1
			c2.3-3.8,5.6-5.7,9.9-5.7c1.6,0,3.1,0.4,4.6,1.1c1.5,0.7,2.7,1.8,3.7,3.1c1,1.3,1.5,2.8,1.5,4.4
			C118.7,153,118.6,153.7,118.4,154.4z M111.2,171h-5.8c-0.3,0-0.5-0.2-0.5-0.5v-5.8c0-0.3,0.2-0.5,0.5-0.5h5.8
			c0.3,0,0.5,0.2,0.5,0.5v5.8C111.7,170.7,111.4,171,111.2,171z"/>
	</g>
	<g>
		<path fill="#47B667" d="M44.2,230c-0.1-0.1-0.2-0.1-0.3-0.2c-0.2-0.1-0.3-0.2-0.6-0.3c-0.2-0.1-0.5-0.2-0.7-0.2s-0.5-0.1-0.8-0.1
			c-0.5,0-0.8,0.1-1.1,0.3s-0.4,0.4-0.4,0.8c0,0.2,0,0.3,0.1,0.5c0.1,0.1,0.2,0.2,0.4,0.3c0.2,0.1,0.4,0.2,0.6,0.3
			c0.3,0.1,0.6,0.2,0.9,0.2c0.4,0.1,0.8,0.2,1.2,0.4c0.4,0.1,0.7,0.3,0.9,0.5c0.3,0.2,0.4,0.4,0.6,0.7c0.1,0.3,0.2,0.6,0.2,1.1
			c0,0.5-0.1,0.9-0.3,1.2s-0.4,0.6-0.7,0.8c-0.3,0.2-0.7,0.4-1.1,0.5c-0.4,0.1-0.8,0.1-1.3,0.1c-0.7,0-1.3-0.1-2-0.3
			s-1.3-0.5-1.8-0.9l0.8-1.5c0.1,0.1,0.2,0.2,0.4,0.3c0.2,0.1,0.4,0.2,0.7,0.4c0.3,0.1,0.6,0.2,0.9,0.3c0.3,0.1,0.7,0.1,1,0.1
			c1,0,1.5-0.3,1.5-0.9c0-0.2-0.1-0.4-0.2-0.5c-0.1-0.1-0.3-0.3-0.5-0.4c-0.2-0.1-0.5-0.2-0.7-0.3s-0.6-0.2-1-0.3
			c-0.4-0.1-0.8-0.2-1.1-0.4c-0.3-0.1-0.6-0.3-0.8-0.5c-0.2-0.2-0.4-0.4-0.5-0.7c-0.1-0.3-0.2-0.6-0.2-0.9c0-0.5,0.1-0.9,0.3-1.2
			c0.2-0.4,0.4-0.7,0.7-0.9c0.3-0.2,0.7-0.4,1.1-0.5s0.8-0.2,1.3-0.2c0.6,0,1.2,0.1,1.8,0.3c0.5,0.2,1,0.4,1.4,0.7L44.2,230z"/>
		<path fill="#47B667" d="M48.4,236.8c-0.7,0-1.2-0.2-1.6-0.7c-0.4-0.4-0.5-1.1-0.5-2V230h1.7v3.8c0,1,0.4,1.5,1.1,1.5
			c0.3,0,0.7-0.1,1-0.3c0.3-0.2,0.6-0.5,0.8-0.9V230h1.7v4.7c0,0.2,0,0.3,0.1,0.4c0.1,0.1,0.2,0.1,0.4,0.1v1.5
			c-0.2,0-0.3,0.1-0.5,0.1s-0.3,0-0.4,0c-0.3,0-0.5-0.1-0.7-0.2s-0.3-0.3-0.3-0.6l0-0.5c-0.3,0.5-0.7,0.8-1.2,1
			C49.5,236.7,49,236.8,48.4,236.8z"/>
		<path fill="#47B667" d="M58.3,236.8c-0.5,0-1-0.1-1.4-0.4c-0.4-0.2-0.7-0.5-0.9-0.9v3.9h-1.7V230h1.5v1.1c0.2-0.4,0.6-0.7,1-0.9
			c0.4-0.2,0.8-0.3,1.3-0.3c0.5,0,0.9,0.1,1.2,0.3s0.7,0.4,1,0.7c0.3,0.3,0.5,0.7,0.6,1.1c0.2,0.4,0.2,0.9,0.2,1.3
			c0,0.5-0.1,0.9-0.2,1.4c-0.1,0.4-0.3,0.8-0.6,1.1s-0.6,0.6-0.9,0.7C59.1,236.7,58.7,236.8,58.3,236.8z M57.8,235.3
			c0.3,0,0.5-0.1,0.7-0.2c0.2-0.1,0.4-0.3,0.6-0.4c0.2-0.2,0.3-0.4,0.4-0.6c0.1-0.2,0.1-0.5,0.1-0.8c0-0.3,0-0.5-0.1-0.8
			c-0.1-0.2-0.2-0.5-0.4-0.6s-0.4-0.3-0.6-0.4c-0.2-0.1-0.5-0.2-0.7-0.2c-0.2,0-0.3,0-0.5,0.1c-0.2,0.1-0.3,0.1-0.5,0.2
			c-0.1,0.1-0.3,0.2-0.4,0.4c-0.1,0.1-0.2,0.3-0.3,0.4v1.6c0.2,0.4,0.4,0.7,0.7,0.9S57.4,235.3,57.8,235.3z"/>
		<path fill="#47B667" d="M66.4,236.8c-0.5,0-1-0.1-1.4-0.4c-0.4-0.2-0.7-0.5-0.9-0.9v3.9h-1.7V230h1.5v1.1c0.2-0.4,0.6-0.7,1-0.9
			c0.4-0.2,0.8-0.3,1.3-0.3c0.5,0,0.9,0.1,1.2,0.3s0.7,0.4,1,0.7c0.3,0.3,0.5,0.7,0.6,1.1c0.2,0.4,0.2,0.9,0.2,1.3
			c0,0.5-0.1,0.9-0.2,1.4c-0.1,0.4-0.3,0.8-0.6,1.1s-0.6,0.6-0.9,0.7C67.2,236.7,66.8,236.8,66.4,236.8z M65.8,235.3
			c0.3,0,0.5-0.1,0.7-0.2c0.2-0.1,0.4-0.3,0.6-0.4c0.2-0.2,0.3-0.4,0.4-0.6c0.1-0.2,0.1-0.5,0.1-0.8c0-0.3,0-0.5-0.1-0.8
			c-0.1-0.2-0.2-0.5-0.4-0.6s-0.4-0.3-0.6-0.4c-0.2-0.1-0.5-0.2-0.7-0.2c-0.2,0-0.3,0-0.5,0.1c-0.2,0.1-0.3,0.1-0.5,0.2
			c-0.1,0.1-0.3,0.2-0.4,0.4c-0.1,0.1-0.2,0.3-0.3,0.4v1.6c0.2,0.4,0.4,0.7,0.7,0.9S65.4,235.3,65.8,235.3z"/>
		<path fill="#47B667" d="M73.5,236.8c-0.5,0-1-0.1-1.5-0.3c-0.4-0.2-0.8-0.4-1.1-0.8c-0.3-0.3-0.5-0.7-0.7-1.1
			c-0.2-0.4-0.2-0.9-0.2-1.3c0-0.5,0.1-0.9,0.2-1.3c0.2-0.4,0.4-0.8,0.7-1.1s0.7-0.6,1.1-0.8c0.4-0.2,0.9-0.3,1.5-0.3
			c0.5,0,1,0.1,1.5,0.3s0.8,0.4,1.1,0.8c0.3,0.3,0.5,0.7,0.7,1.1c0.2,0.4,0.2,0.9,0.2,1.3c0,0.5-0.1,0.9-0.2,1.3
			c-0.2,0.4-0.4,0.8-0.7,1.1c-0.3,0.3-0.7,0.6-1.1,0.8S74.1,236.8,73.5,236.8z M71.8,233.3c0,0.3,0,0.6,0.1,0.8
			c0.1,0.2,0.2,0.5,0.4,0.6c0.2,0.2,0.3,0.3,0.6,0.4c0.2,0.1,0.4,0.1,0.7,0.1s0.5,0,0.7-0.1c0.2-0.1,0.4-0.2,0.6-0.4
			c0.2-0.2,0.3-0.4,0.4-0.6s0.1-0.5,0.1-0.8c0-0.3,0-0.6-0.1-0.8s-0.2-0.5-0.4-0.6c-0.2-0.2-0.3-0.3-0.6-0.4
			c-0.2-0.1-0.4-0.1-0.7-0.1s-0.5,0.1-0.7,0.2c-0.2,0.1-0.4,0.2-0.6,0.4c-0.2,0.2-0.3,0.4-0.4,0.6C71.8,232.8,71.8,233.1,71.8,233.3
			z"/>
		<path fill="#47B667" d="M82.1,231.5c-0.5,0-1,0.1-1.4,0.3c-0.4,0.2-0.7,0.5-0.9,0.9v4h-1.7V230h1.6v1.4c0.2-0.5,0.5-0.8,0.9-1.1
			c0.4-0.3,0.8-0.4,1.2-0.4c0.1,0,0.2,0,0.2,0c0,0,0.1,0,0.1,0V231.5z"/>
		<path fill="#47B667" d="M87.1,236.3c-0.2,0.1-0.5,0.2-0.8,0.3c-0.3,0.1-0.7,0.2-1.1,0.2c-0.2,0-0.5,0-0.7-0.1
			c-0.2-0.1-0.4-0.2-0.5-0.3c-0.2-0.1-0.3-0.3-0.4-0.5c-0.1-0.2-0.1-0.5-0.1-0.8v-3.8h-0.9V230h0.9v-2.2h1.7v2.2h1.4v1.3h-1.4v3.3
			c0,0.2,0.1,0.4,0.2,0.5c0.1,0.1,0.3,0.1,0.5,0.1s0.4,0,0.5-0.1s0.3-0.1,0.4-0.2L87.1,236.3z"/>
	</g>
	<g>
		<rect x="37.9" y="272.8" fill="#8CC97F" width="108.7" height="2.7"/>
		<rect x="37.9" y="252.8" fill="#8CC97F" width="108.7" height="2.7"/>
		<rect x="37.9" y="292.8" fill="#8CC97F" width="108.7" height="2.7"/>
	</g>
	<g>
		<rect x="93.1" y="309.4" fill="#8CC97F" width="52.3" height="16.1"/>
		<g>
			<path fill="#FFFFFF" d="M110.1,320c0,0.3-0.1,0.6-0.2,0.9s-0.3,0.5-0.5,0.6c-0.2,0.2-0.5,0.3-0.8,0.4c-0.3,0.1-0.6,0.1-1,0.1
				h-3.7v-7.7h4.1c0.3,0,0.5,0.1,0.7,0.2s0.4,0.3,0.6,0.5s0.3,0.4,0.4,0.6c0.1,0.2,0.1,0.5,0.1,0.7c0,0.4-0.1,0.7-0.3,1.1
				c-0.2,0.3-0.5,0.6-0.8,0.7c0.4,0.1,0.8,0.4,1.1,0.7C110,319,110.1,319.4,110.1,320z M105.4,315.5v2h2c0.3,0,0.5-0.1,0.6-0.3
				s0.3-0.4,0.3-0.7c0-0.3-0.1-0.5-0.2-0.7s-0.4-0.3-0.6-0.3H105.4z M108.6,319.7c0-0.1,0-0.3-0.1-0.4c0-0.1-0.1-0.2-0.2-0.3
				c-0.1-0.1-0.2-0.2-0.3-0.2c-0.1-0.1-0.2-0.1-0.4-0.1h-2.3v2h2.2c0.1,0,0.3,0,0.4-0.1s0.2-0.1,0.3-0.2c0.1-0.1,0.2-0.2,0.2-0.3
				C108.6,319.9,108.6,319.8,108.6,319.7z"/>
			<path fill="#FFFFFF" d="M114.6,320.7c0.4,0,0.7-0.1,0.9-0.2s0.4-0.3,0.6-0.6c0.1-0.2,0.3-0.5,0.3-0.8c0.1-0.3,0.1-0.6,0.1-0.9v-4
				h1.5v4c0,0.5-0.1,1-0.2,1.5s-0.3,0.9-0.6,1.2c-0.3,0.3-0.6,0.6-1.1,0.8s-0.9,0.3-1.5,0.3c-0.6,0-1.1-0.1-1.6-0.3
				c-0.4-0.2-0.8-0.5-1.1-0.9c-0.3-0.4-0.5-0.8-0.6-1.2s-0.2-0.9-0.2-1.5v-4h1.5v4c0,0.3,0,0.6,0.1,0.9c0.1,0.3,0.2,0.6,0.3,0.8
				c0.1,0.2,0.3,0.4,0.6,0.6C113.9,320.6,114.2,320.7,114.6,320.7z"/>
			<path fill="#FFFFFF" d="M120.3,314.2l1.9,3.7l1.9-3.7h1.6l-2.8,5v2.7h-1.5v-2.7l-2.8-5H120.3z"/>
			<path fill="#FFFFFF" d="M133.4,316.2c0-0.1-0.1-0.1-0.2-0.2s-0.3-0.1-0.4-0.2c-0.2-0.1-0.3-0.1-0.5-0.2c-0.2-0.1-0.4-0.1-0.6-0.1
				v1.9l0.3,0.1c0.4,0.1,0.7,0.2,1,0.3s0.6,0.3,0.8,0.4c0.2,0.2,0.4,0.4,0.5,0.6c0.1,0.2,0.2,0.5,0.2,0.9c0,0.4-0.1,0.7-0.2,1
				c-0.1,0.3-0.3,0.5-0.6,0.7c-0.2,0.2-0.5,0.3-0.8,0.4c-0.3,0.1-0.7,0.1-1,0.2v1.2h-0.7V322c-0.5,0-1-0.1-1.5-0.3
				c-0.5-0.2-0.9-0.4-1.3-0.7l0.7-1.3c0.1,0.1,0.2,0.1,0.3,0.2s0.3,0.2,0.5,0.3c0.2,0.1,0.4,0.2,0.7,0.3s0.5,0.1,0.8,0.2v-1.9
				l-0.4-0.1c-0.4-0.1-0.7-0.2-1-0.3c-0.3-0.1-0.5-0.3-0.7-0.4c-0.2-0.2-0.3-0.3-0.4-0.6c-0.1-0.2-0.1-0.5-0.1-0.8
				c0-0.4,0.1-0.7,0.2-1c0.1-0.3,0.3-0.5,0.5-0.7c0.2-0.2,0.5-0.4,0.8-0.5s0.6-0.2,1-0.2v-1.1h0.7v1.1c0.5,0,0.9,0.1,1.3,0.3
				c0.4,0.2,0.8,0.3,1.1,0.6L133.4,316.2z M130.1,316.3c0,0.2,0.1,0.4,0.3,0.6c0.2,0.1,0.4,0.2,0.8,0.3v-1.8
				C130.5,315.5,130.1,315.8,130.1,316.3z M132.8,319.9c0-0.3-0.1-0.5-0.3-0.6c-0.2-0.1-0.5-0.3-0.9-0.4v1.8
				C132.4,320.7,132.8,320.4,132.8,319.9z"/>
		</g>
	</g>
</g>
</svg>
